<svg width="100%" height="100%" viewBox="0 0 12 12" fill="none" xmlns="http://www.w3.org/2000/svg">
<circle cx="6" cy="6" r="6" fill="#CC3E44"/>
<path d="M9.07567 6.93747L6.79616 2.98918C6.42383 2.33694 5.4823 2.33694 5.11131 2.98918L2.83046 6.93747C2.45813 7.58972 2.92153 8.4 3.67289 8.4H8.22521C8.97656 8.4 9.448 7.58168 9.07567 6.93747ZM5.9524 7.52409C5.75418 7.52409 5.58944 7.35936 5.58944 7.16114C5.58944 6.96292 5.75418 6.79818 5.9524 6.79818C6.15061 6.79818 6.31535 6.96292 6.30731 7.17051C6.31669 7.35936 6.14258 7.52409 5.9524 7.52409ZM6.28321 5.17762C6.26713 5.45887 6.24972 5.73879 6.23365 6.02004C6.22562 6.11112 6.22562 6.19415 6.22562 6.28389C6.21758 6.43255 6.10106 6.54773 5.9524 6.54773C5.80373 6.54773 5.68855 6.44059 5.67918 6.29192C5.65507 5.85397 5.62962 5.42405 5.60551 4.9861C5.59748 4.87092 5.58944 4.7544 5.58007 4.63921C5.58007 4.44903 5.68721 4.29233 5.86132 4.24278C6.03543 4.20126 6.2082 4.2843 6.28321 4.44903C6.30865 4.50662 6.31669 4.56421 6.31669 4.63118C6.30865 4.81466 6.29124 4.99681 6.28321 5.17762Z" fill="white"/>
</svg>
