<svg width="100%" height="100%" viewBox="0 0 28 28" fill="none" xmlns="http://www.w3.org/2000/svg">
    <path fill-rule="evenodd" clip-rule="evenodd"
        d="M3.66065 10.0305L7.83899 6.409C7.78126 6.25246 7.74974 6.08317 7.74974 5.90684C7.74974 5.09996 8.41001 4.4461 9.22481 4.4461C10.0396 4.4461 10.6746 5.07534 10.6994 5.86067L14.0017 7.0057C14.2721 6.6913 14.6753 6.49167 15.1251 6.49167C15.3791 6.49167 15.618 6.55499 15.8262 6.66711L19.6333 3.44619C19.5792 3.29448 19.5499 3.13091 19.5499 2.96074C19.5499 2.15386 20.2101 1.5 21.0249 1.5C21.8397 1.5 22.5 2.15386 22.5 2.96074C22.5 3.76762 21.8397 4.42148 21.0249 4.42148C20.7709 4.42148 20.5321 4.35816 20.3238 4.24603L16.5167 7.46696C16.5709 7.61866 16.6002 7.78224 16.6002 7.95241C16.6002 8.75929 15.9399 9.41315 15.1251 9.41315C14.3103 9.41315 13.6753 8.78391 13.6509 7.99858L10.3486 6.85355C10.0782 7.16795 9.6755 7.36758 9.22525 7.36758C8.97748 7.36758 8.74392 7.3069 8.53922 7.20005L4.36089 10.8216C4.41862 10.9781 4.45014 11.1474 4.45014 11.3237C4.45014 12.1306 3.78987 12.7845 2.97507 12.7845C2.16027 12.7845 1.5 12.1306 1.5 11.3237C1.5 10.5168 2.16027 9.86298 2.97507 9.86298C3.22284 9.86298 3.45596 9.92366 3.66065 10.0305ZM19.9024 7.30646C19.5356 7.30646 19.2364 7.60283 19.2364 7.96604V21.4267C19.2364 21.7899 19.5356 22.0862 19.9024 22.0862H20.8149C21.1817 22.0862 21.4809 21.7899 21.4809 21.4267V7.9656C21.4809 7.60239 21.1817 7.30602 20.8149 7.30602L19.9024 7.30646ZM14.0021 12.6855C13.6354 12.6855 13.3361 12.9819 13.3361 13.3451V21.5647C13.3361 21.9279 13.6354 22.2243 14.0021 22.2243H14.9146C15.2814 22.2243 15.5807 21.9279 15.5807 21.5647V13.3451C15.5807 12.9819 15.2814 12.6855 14.9146 12.6855H14.0021ZM8.1023 10.7543C7.73553 10.7543 7.43625 11.0507 7.43625 11.4139V21.7028C7.43625 22.066 7.73553 22.3624 8.1023 22.3624H9.01478C9.38155 22.3624 9.68083 22.066 9.68083 21.7028V11.4134C9.68083 11.0502 9.38155 10.7538 9.01478 10.7538L8.1023 10.7543ZM2.20246 16.4315H3.11494C3.48171 16.4315 3.78099 16.7278 3.78099 17.091V21.8404C3.78099 22.2036 3.48171 22.5 3.11494 22.5H2.20246C1.83569 22.5 1.53641 22.2036 1.53641 21.8404V17.091C1.53641 16.7278 1.83569 16.4315 2.20246 16.4315Z"
        fill="currentColor" />
</svg>