<svg width="16" height="16" viewBox="0 0 16 16" fill="none" xmlns="http://www.w3.org/2000/svg">
    <path
        d="M7.95106 12.3437C8.12161 12.1731 8.13712 11.9062 7.99757 11.7182L7.95106 11.6643L3.80722 7.52022L7.95106 3.37616C8.12161 3.20561 8.13712 2.93872 7.99757 2.75065L7.95106 2.69677C7.78051 2.52622 7.51362 2.51071 7.32555 2.65026L7.27167 2.69677L2.78792 7.18052C2.61736 7.35108 2.60186 7.61797 2.7414 7.80603L2.78792 7.85992L7.27167 12.3437C7.45928 12.5313 7.76345 12.5313 7.95106 12.3437Z"
        fill="currentColor" />
    <path
        d="M12.3433 12.3437C12.5139 12.1731 12.5294 11.9062 12.3898 11.7182L12.3433 11.6643L8.19946 7.52022L12.3433 3.37616C12.5139 3.20561 12.5294 2.93872 12.3898 2.75065L12.3433 2.69677C12.1727 2.52622 11.9059 2.51071 11.7178 2.65026L11.6639 2.69677L7.18016 7.18052C7.0096 7.35108 6.9941 7.61797 7.13364 7.80603L7.18016 7.85991L11.6639 12.3437C11.8515 12.5313 12.1557 12.5313 12.3433 12.3437Z"
        fill="currentColor" />
</svg>