<svg width="16" height="16" viewBox="0 0 16 16" fill="none" xmlns="http://www.w3.org/2000/svg">
    <path
        d="M8.04891 12.3437C7.87836 12.1731 7.86285 11.9062 8.0024 11.7182L8.04891 11.6643L12.1928 7.52022L8.04891 3.37616C7.87836 3.20561 7.86285 2.93872 8.0024 2.75065L8.04891 2.69677C8.21946 2.52622 8.48635 2.51071 8.67442 2.65026L8.7283 2.69677L13.2121 7.18052C13.3826 7.35108 13.3981 7.61797 13.2586 7.80603L13.2121 7.85992L8.7283 12.3437C8.54069 12.5313 8.23652 12.5313 8.04891 12.3437Z"
        fill="currentColor" />
    <path
        d="M3.65667 12.3437C3.48611 12.1731 3.47061 11.9062 3.61015 11.7182L3.65667 11.6643L7.80051 7.52022L3.65667 3.37616C3.48611 3.20561 3.47061 2.93872 3.61015 2.75065L3.65667 2.69677C3.82722 2.52622 4.09411 2.51071 4.28218 2.65026L4.33606 2.69677L8.81981 7.18052C8.99037 7.35108 9.00587 7.61797 8.86633 7.80603L8.81981 7.85991L4.33606 12.3437C4.14845 12.5313 3.84428 12.5313 3.65667 12.3437Z"
        fill="currentColor" />
</svg>