<svg width="100%" height="100%" viewBox="0 0 10 10" fill="none" xmlns="http://www.w3.org/2000/svg">
    <path
        d="M0.984795 5.26583L2.4848 6.76583C2.51939 6.80164 2.56077 6.83021 2.60652 6.84986C2.65227 6.86952 2.70148 6.87986 2.75127 6.8803C2.80106 6.88073 2.85044 6.87124 2.89653 6.85238C2.94261 6.83353 2.98448 6.80568 3.01969 6.77047C3.0549 6.73526 3.08275 6.6934 3.1016 6.64731C3.12046 6.60122 3.12995 6.55184 3.12951 6.50205C3.12908 6.45226 3.11874 6.40305 3.09908 6.3573C3.07943 6.31155 3.05086 6.27017 3.01504 6.23558L1.78017 5.0007L3.01504 3.76583C3.05086 3.73123 3.07943 3.68985 3.09908 3.6441C3.11874 3.59835 3.12908 3.54914 3.12951 3.49935C3.12995 3.44956 3.12046 3.40018 3.1016 3.35409C3.08275 3.30801 3.0549 3.26614 3.01969 3.23093C2.98448 3.19572 2.94261 3.16787 2.89653 3.14902C2.85044 3.13016 2.80106 3.12068 2.75127 3.12111C2.70148 3.12154 2.65227 3.13189 2.60652 3.15154C2.56077 3.17119 2.51939 3.19976 2.4848 3.23558L0.984795 4.73558C0.914493 4.8059 0.875 4.90127 0.875 5.0007C0.875 5.10014 0.914493 5.1955 0.984795 5.26583Z"
        fill="white" />
    <path
        d="M7.51534 3.23558C7.48075 3.19976 7.43937 3.17119 7.39362 3.15154C7.34786 3.13189 7.29866 3.12154 7.24886 3.12111C7.19907 3.12068 7.14969 3.13016 7.10361 3.14902C7.05752 3.16787 7.01565 3.19572 6.98044 3.23093C6.94523 3.26614 6.91739 3.30801 6.89853 3.35409C6.87968 3.40018 6.87019 3.44956 6.87062 3.49935C6.87105 3.54914 6.8814 3.59835 6.90105 3.6441C6.9207 3.68985 6.94927 3.73123 6.98509 3.76583L8.21996 5.0007L6.98509 6.23558C6.94927 6.27017 6.9207 6.31155 6.90105 6.3573C6.8814 6.40305 6.87105 6.45226 6.87062 6.50205C6.87019 6.55184 6.87968 6.60122 6.89853 6.64731C6.91739 6.6934 6.94523 6.73526 6.98044 6.77047C7.01565 6.80568 7.05752 6.83353 7.10361 6.85238C7.14969 6.87124 7.19907 6.88073 7.24886 6.8803C7.29866 6.87986 7.34786 6.86952 7.39362 6.84986C7.43937 6.83021 7.48075 6.80164 7.51534 6.76583L9.01534 5.26583C9.08564 5.1955 9.12513 5.10014 9.12513 5.0007C9.12513 4.90127 9.08564 4.8059 9.01534 4.73558L7.51534 3.23558Z"
        fill="white" />
    <path
        d="M5.38943 2.27404L3.88943 7.52404C3.86212 7.61962 3.87388 7.72212 3.92212 7.80903C3.97035 7.89595 4.05112 7.96015 4.14668 7.98754C4.18027 7.99682 4.21495 8.00161 4.2498 8.00179C4.3313 8.00173 4.41055 7.97513 4.47557 7.926C4.5406 7.87688 4.58785 7.80791 4.61018 7.72954L6.11018 2.47954C6.12581 2.4316 6.13162 2.38099 6.12724 2.33075C6.12287 2.28052 6.10841 2.23168 6.08472 2.18716C6.06104 2.14264 6.02862 2.10335 5.9894 2.07165C5.95018 2.03995 5.90497 2.01648 5.85648 2.00265C5.80798 1.98883 5.7572 1.98492 5.70716 1.99118C5.65712 1.99743 5.60885 2.01371 5.56525 2.03904C5.52165 2.06438 5.48361 2.09825 5.4534 2.13863C5.42319 2.179 5.40143 2.22506 5.38943 2.27404Z"
        fill="white" />
</svg>