<svg width="100%" height="100%" viewBox="0 0 16 17" fill="none" xmlns="http://www.w3.org/2000/svg">
<path d="M5.33325 1.83398V3.83398" stroke="currentColor" stroke-miterlimit="10" stroke-linecap="round" stroke-linejoin="round"/>
<path d="M10.6667 1.83398V3.83398" stroke="currentColor" stroke-miterlimit="10" stroke-linecap="round" stroke-linejoin="round"/>
<path d="M2.33325 6.56055H13.6666" stroke="currentColor" stroke-miterlimit="10" stroke-linecap="round" stroke-linejoin="round"/>
<path d="M14 11.4073V6.16732C14 4.16732 13 2.83398 10.6667 2.83398H5.33333C3 2.83398 2 4.16732 2 6.16732V11.834C2 13.834 3 15.1673 5.33333 15.1673H10.2467" stroke="currentColor" stroke-miterlimit="10" stroke-linecap="round" stroke-linejoin="round"/>
<path d="M2 6.59464L2 11.8346C2 13.8346 3 15.168 5.33333 15.168L10.6667 15.168C13 15.168 14 13.8346 14 11.8346L14 6.16797C14 4.16797 13 2.83464 10.6667 2.83464L5.75333 2.83464" stroke="currentColor" stroke-miterlimit="10" stroke-linecap="round" stroke-linejoin="round"/>
<path d="M10.4955 9H10.5045" stroke="currentColor" stroke-width="1.5" stroke-linecap="round" stroke-linejoin="round"/>
<path d="M10.4955 12H10.5045" stroke="currentColor" stroke-width="1.5" stroke-linecap="round" stroke-linejoin="round"/>
<path d="M5.4955 9H5.5045" stroke="currentColor" stroke-width="1.5" stroke-linecap="round" stroke-linejoin="round"/>
<path d="M5.4955 12H5.5045" stroke="currentColor" stroke-width="1.5" stroke-linecap="round" stroke-linejoin="round"/>
</svg>
