<svg width="100%" height="100%" viewBox="0 0 103 103" fill="none" xmlns="http://www.w3.org/2000/svg">
<path d="M98.2299 4.28531C100.637 6.61235 102.22 9.68963 102.587 13.0339C102.587 14.4327 102.22 15.361 101.384 17.1285C100.548 18.896 90.25 36.7748 87.1847 41.7086C85.424 44.5952 84.4993 48.0412 84.4993 51.3983C84.4993 54.7553 85.424 58.2014 87.1847 61.0879C90.25 66.0217 100.548 84.0022 101.384 85.7697C102.22 87.5373 102.587 88.3765 102.587 89.7753C102.22 93.1323 100.738 96.1969 98.3187 98.4349C96.0007 100.851 92.9352 102.44 89.6925 102.72C88.2992 102.72 87.3745 102.351 85.7025 101.512C84.0305 100.673 65.854 90.6146 60.9393 87.5373C60.572 87.3465 60.1919 87.0668 59.7359 86.8888L35.4287 72.456C35.986 77.1101 38.0252 81.5862 41.3692 84.8415C42.0152 85.49 42.6739 86.0495 43.4085 86.609C42.8512 86.8888 42.2053 87.1685 41.648 87.5373C36.7333 90.6146 18.8227 100.953 17.062 101.792C15.3013 102.631 14.4653 103 12.9833 103C9.63933 102.631 6.58659 101.143 4.35726 98.7147C1.95059 96.3876 0.367333 93.3104 0 89.966C0.0886667 88.5673 0.468605 87.1685 1.20327 85.9605C2.03927 84.193 12.3372 66.2125 15.4025 61.2786C17.1632 58.3921 18.0879 55.0351 18.0879 51.589C18.0879 48.143 17.1632 44.7859 15.4025 41.8994C12.3372 36.7748 1.9506 18.807 1.20327 17.0395C0.455938 15.8315 0.0886667 14.4327 0 13.0339C0.367333 9.67691 1.84933 6.61235 4.26867 4.28531C6.574 1.85654 9.62665 0.368765 12.9707 0C14.364 0.0890123 15.7573 0.470494 17.0493 1.20802C18.5313 1.85654 31.616 9.49889 38.57 13.5935L40.1533 14.5217C40.7105 14.8905 41.1792 15.1702 41.5465 15.361L42.294 15.8315L67.0572 30.544C66.4999 24.9616 63.6247 19.837 59.166 16.391C59.7233 16.1112 60.3693 15.8315 60.9267 15.4627C65.8413 12.3854 83.752 1.95827 85.5127 1.20802C86.716 0.470494 88.1093 0.0890123 89.5913 0C92.834 0.368765 95.8992 1.85654 98.2172 4.28531H98.2299ZM52.5919 58.1123L57.8739 52.8097C58.6212 52.0595 58.6212 50.9532 57.8739 50.203L52.5919 44.9004C51.8445 44.1501 50.7427 44.1501 49.9953 44.9004L44.7132 50.203C43.9659 50.9532 43.9659 52.0595 44.7132 52.8097L49.9953 58.1123C50.6413 58.7609 51.8445 58.7609 52.5919 58.1123ZM98.2299 4.28531C100.637 6.61235 102.22 9.68963 102.587 13.0339C102.587 14.4327 102.22 15.361 101.384 17.1285C100.548 18.896 90.25 36.7748 87.1847 41.7086C85.424 44.5952 84.4993 48.0412 84.4993 51.3983C84.4993 54.7553 85.424 58.2014 87.1847 61.0879C90.25 66.0217 100.548 84.0022 101.384 85.7697C102.22 87.5373 102.587 88.3765 102.587 89.7753C102.22 93.1323 100.738 96.1969 98.3187 98.4349C96.0007 100.851 92.9352 102.44 89.6925 102.72C88.2992 102.72 87.3745 102.351 85.7025 101.512C84.0305 100.673 65.854 90.6146 60.9393 87.5373C60.572 87.3465 60.1919 87.0668 59.7359 86.8888L35.4287 72.456C35.986 77.1101 38.0252 81.5862 41.3692 84.8415C42.0152 85.49 42.6739 86.0495 43.4085 86.609C42.8512 86.8888 42.2053 87.1685 41.648 87.5373C36.7333 90.6146 18.8227 100.953 17.062 101.792C15.3013 102.631 14.4653 103 12.9833 103C9.63933 102.631 6.58659 101.143 4.35726 98.7147C1.95059 96.3876 0.367333 93.3104 0 89.966C0.0886667 88.5673 0.468605 87.1685 1.20327 85.9605C2.03927 84.193 12.3372 66.2125 15.4025 61.2786C17.1632 58.3921 18.0879 55.0351 18.0879 51.589C18.0879 48.143 17.1632 44.7859 15.4025 41.8994C12.3372 36.7748 1.9506 18.807 1.20327 17.0395C0.455938 15.8315 0.0886667 14.4327 0 13.0339C0.367333 9.67691 1.84933 6.61235 4.26867 4.28531C6.574 1.85654 9.62665 0.368765 12.9707 0C14.364 0.0890123 15.7573 0.470494 17.0493 1.20802C18.5313 1.85654 31.616 9.49889 38.57 13.5935L40.1533 14.5217C40.7105 14.8905 41.1792 15.1702 41.5465 15.361L42.294 15.8315L67.0572 30.544C66.4999 24.9616 63.6247 19.837 59.166 16.391C59.7233 16.1112 60.3693 15.8315 60.9267 15.4627C65.8413 12.3854 83.752 1.95827 85.5127 1.20802C86.716 0.470494 88.1093 0.0890123 89.5913 0C92.834 0.368765 95.8992 1.85654 98.2172 4.28531H98.2299ZM52.5919 58.1123L57.8739 52.8097C58.6212 52.0595 58.6212 50.9532 57.8739 50.203L52.5919 44.9004C51.8445 44.1501 50.7427 44.1501 49.9953 44.9004L44.7132 50.203C43.9659 50.9532 43.9659 52.0595 44.7132 52.8097L49.9953 58.1123C50.6413 58.7609 51.8445 58.7609 52.5919 58.1123Z" fill="#FF694A"/>
</svg>
