<svg width="100%" height="100%" viewBox="0 0 36 36" fill="none" xmlns="http://www.w3.org/2000/svg">
<rect width="36" height="36" rx="5" fill="#FFECE6"/>
<path fill-rule="evenodd" clip-rule="evenodd" d="M11.8212 9.371C11.951 9.07907 12.2928 8.9476 12.5847 9.07734L18.5199 11.7152L24.455 9.07734C24.7469 8.9476 25.0887 9.07907 25.2184 9.371C25.3482 9.66293 25.2167 10.0048 24.9248 10.1345L18.7548 12.8767C18.6052 12.9432 18.4345 12.9432 18.2849 12.8767L12.1149 10.1345C11.823 10.0048 11.6915 9.66293 11.8212 9.371Z" fill="#FF754C"/>
<path fill-rule="evenodd" clip-rule="evenodd" d="M17.0318 6.21028C17.9791 5.78928 19.0604 5.78928 20.0076 6.21028L23.8639 7.92417C25.1868 8.51216 26.0394 9.82412 26.0394 11.2719V16.5172C26.0394 17.9649 25.1868 19.2769 23.8639 19.8649L20.0076 21.5788C19.0604 21.9998 17.9791 21.9998 17.0318 21.5788L13.1756 19.8649C11.8526 19.2769 11 17.9649 11 16.5172V11.2719C11 9.82412 11.8526 8.51216 13.1756 7.92417L17.0318 6.21028ZM19.5378 7.26745C18.8896 6.97939 18.1498 6.97939 17.5017 7.26745L13.6454 8.98134C12.7402 9.38365 12.1569 10.2813 12.1569 11.2719V16.5172C12.1569 17.5078 12.7402 18.4054 13.6454 18.8077L17.5017 20.5216C18.1498 20.8097 18.8896 20.8097 19.5378 20.5216L23.394 18.8077C24.2992 18.4054 24.8825 17.5078 24.8825 16.5172V11.2719C24.8825 10.2813 24.2992 9.38365 23.394 8.98134L19.5378 7.26745Z" fill="#FF754C"/>
<path fill-rule="evenodd" clip-rule="evenodd" d="M18.5196 11.7695C18.8391 11.7695 19.098 12.0285 19.098 12.348V20.8318C19.098 21.1512 18.8391 21.4102 18.5196 21.4102C18.2001 21.4102 17.9412 21.1512 17.9412 20.8318V12.348C17.9412 12.0285 18.2001 11.7695 18.5196 11.7695Z" fill="#FF754C"/>
<path d="M21.6372 29.0008V24.8008H22.4172V28.2808H24.3552V29.0008H21.6372Z" fill="#FF754C"/>
<path d="M17.0962 29.0008V24.8008H18.7822C19.0862 24.8008 19.3602 24.8508 19.6042 24.9508C19.8522 25.0508 20.0642 25.1948 20.2402 25.3828C20.4202 25.5708 20.5562 25.7928 20.6482 26.0488C20.7442 26.3048 20.7922 26.5888 20.7922 26.9008C20.7922 27.2128 20.7442 27.4988 20.6482 27.7588C20.5562 28.0148 20.4222 28.2368 20.2462 28.4248C20.0702 28.6088 19.8582 28.7508 19.6102 28.8508C19.3622 28.9508 19.0862 29.0008 18.7822 29.0008H17.0962ZM17.8762 28.3948L17.8162 28.2808H18.7522C18.9482 28.2808 19.1222 28.2488 19.2742 28.1848C19.4302 28.1208 19.5622 28.0288 19.6702 27.9088C19.7782 27.7888 19.8602 27.6448 19.9162 27.4768C19.9722 27.3048 20.0002 27.1128 20.0002 26.9008C20.0002 26.6888 19.9722 26.4988 19.9162 26.3308C19.8602 26.1588 19.7762 26.0128 19.6642 25.8928C19.5562 25.7728 19.4262 25.6808 19.2742 25.6168C19.1222 25.5528 18.9482 25.5208 18.7522 25.5208H17.7982L17.8762 25.4188V28.3948Z" fill="#FF754C"/>
<path d="M11.8813 29.0008V24.8008H12.6193L14.1493 27.2908L13.7173 27.2848L15.2653 24.8008H15.9673V29.0008H15.1933V27.4228C15.1933 27.0628 15.2013 26.7388 15.2173 26.4508C15.2373 26.1628 15.2693 25.8768 15.3133 25.5928L15.4093 25.8508L14.1073 27.8608H13.7113L12.4513 25.8688L12.5353 25.5928C12.5793 25.8608 12.6093 26.1368 12.6253 26.4208C12.6453 26.7008 12.6553 27.0348 12.6553 27.4228V29.0008H11.8813Z" fill="#FF754C"/>
</svg>
