<svg width="100%" height="100%" viewBox="0 0 36 36" fill="none" xmlns="http://www.w3.org/2000/svg">
<rect width="36" height="36" rx="5" fill="#4C404C"/>
<g clip-path="url(#clip0_20572_494884)">
<path d="M23.0406 9.14436C22.9197 9.01752 22.7469 9.03712 22.6495 9.1293C22.5522 9.22153 22.5234 9.39311 22.6436 9.52061C22.6442 9.52135 22.6449 9.52206 22.6456 9.52275C22.7053 9.58479 22.7774 9.61137 22.8468 9.61137C22.9186 9.61137 22.9875 9.58287 23.0367 9.53571C23.1335 9.44296 23.1615 9.27124 23.0406 9.14436Z" fill="#EF5DA8"/>
<path d="M21.4736 8.67965L21.4735 8.67962C20.441 8.00403 19.24 7.64688 18 7.64688C14.497 7.64688 11.6469 10.497 11.6469 14C11.6469 17.503 14.497 20.3531 18 20.3531C21.503 20.3531 24.3531 17.503 24.3531 14C24.3531 12.8057 24.02 11.6422 23.3899 10.6351C23.3899 10.6351 23.3899 10.6351 23.3899 10.6351L23.4747 10.5821L21.4736 8.67965ZM21.4736 8.67965C21.6462 8.7925 21.8776 8.74421 21.9905 8.57159L21.9905 8.57158M21.4736 8.67965L21.9905 8.57158M21.9905 8.57158C22.1034 8.39899 22.0551 8.16758 21.8825 8.05462L21.8825 8.05461M21.9905 8.57158L21.8825 8.05461M21.8825 8.05461C20.728 7.29926 19.3853 6.9 18 6.9C16.1037 6.9 14.3204 7.63867 12.9795 8.97952L12.9795 8.97953M21.8825 8.05461L12.9795 8.97953M12.9795 8.97953C11.6387 10.3204 10.9 12.1037 10.9 14C10.9 15.8963 11.6387 17.6796 12.9795 19.0205L13.0502 18.9498M12.9795 8.97953L13.0502 18.9498M13.0502 18.9498L12.9795 19.0205C14.3204 20.3613 16.1037 21.1 18 21.1C19.8963 21.1 21.6796 20.3613 23.0205 19.0205L22.9498 18.9498L23.0205 19.0205C24.3613 17.6796 25.1 15.8963 25.1 14C25.1 12.6656 24.7276 11.365 24.0231 10.239L13.0502 18.9498Z" fill="#EF5DA8" stroke="#EF5DA8" stroke-width="0.2"/>
<path d="M21.4199 10.5806C21.2497 10.4106 20.9741 10.4106 20.8039 10.5806L18.166 13.2186C17.9763 13.1217 17.7618 13.0667 17.5346 13.0667C16.7661 13.0667 16.1409 13.6919 16.1409 14.4604C16.1409 14.6876 16.1959 14.9021 16.2928 15.0918L16.1276 15.257C15.9575 15.4271 15.9575 15.7028 16.1276 15.8729C16.2126 15.958 16.3241 16.0005 16.4355 16.0005C16.5469 16.0005 16.6584 15.958 16.7435 15.8729L16.9105 15.7059C17.0984 15.8005 17.3103 15.854 17.5346 15.854C18.303 15.854 18.9282 15.2289 18.9282 14.4604C18.9282 14.2361 18.8746 14.0242 18.7801 13.8363L21.4198 11.1966C21.5899 11.0265 21.5899 10.7507 21.4199 10.5806ZM17.5346 14.983C17.3935 14.983 17.2654 14.9265 17.1713 14.8352C17.1703 14.8342 17.1694 14.8331 17.1684 14.8321C17.1665 14.8302 17.1644 14.8285 17.1625 14.8267C17.0695 14.7323 17.012 14.6029 17.012 14.4603C17.012 14.1721 17.2464 13.9377 17.5346 13.9377C17.8228 13.9377 18.0572 14.1721 18.0572 14.4603C18.0572 14.7485 17.8228 14.983 17.5346 14.983Z" fill="#EF5DA8"/>
<path d="M17.0175 17.8536C16.9667 17.8027 16.8961 17.7734 16.8242 17.7734C16.7523 17.7734 16.6818 17.8027 16.6309 17.8536C16.58 17.9044 16.5508 17.9747 16.5508 18.0469C16.5508 18.1188 16.58 18.1893 16.6309 18.2402C16.6818 18.2911 16.7523 18.3203 16.8242 18.3203C16.8961 18.3203 16.9667 18.2911 17.0175 18.2402C17.0684 18.1893 17.0977 18.1188 17.0977 18.0469C17.0977 17.9747 17.0684 17.9044 17.0175 17.8536Z" fill="#EF5DA8"/>
<path d="M19.1758 17.7734H17.8906C17.7396 17.7734 17.6172 17.8959 17.6172 18.0469C17.6172 18.1979 17.7396 18.3203 17.8906 18.3203H19.1758C19.3268 18.3203 19.4492 18.1979 19.4492 18.0469C19.4492 17.8959 19.3268 17.7734 19.1758 17.7734Z" fill="#EF5DA8"/>
</g>
<path d="M12.6812 28V23.8H15.4292V24.508H13.4492V27.292H15.4532V28H12.6812ZM13.0412 26.2V25.504H15.1232V26.2H13.0412ZM18.9572 28L17.6552 26.116L15.9872 23.8H16.9592L18.2312 25.66L19.9292 28H18.9572ZM15.9572 28L17.5592 25.714L18.1112 26.188L16.8692 28H15.9572ZM18.3272 26.05L17.7812 25.594L18.9572 23.8H19.8692L18.3272 26.05ZM20.5855 28V23.8H22.3315C22.5715 23.8 22.7875 23.858 22.9795 23.974C23.1755 24.09 23.3315 24.248 23.4475 24.448C23.5635 24.648 23.6215 24.872 23.6215 25.12C23.6215 25.372 23.5635 25.6 23.4475 25.804C23.3315 26.004 23.1755 26.164 22.9795 26.284C22.7875 26.404 22.5715 26.464 22.3315 26.464H21.3655V28H20.5855ZM21.3655 25.744H22.2775C22.3775 25.744 22.4675 25.716 22.5475 25.66C22.6315 25.604 22.6975 25.53 22.7455 25.438C22.7975 25.346 22.8235 25.242 22.8235 25.126C22.8235 25.01 22.7975 24.908 22.7455 24.82C22.6975 24.728 22.6315 24.656 22.5475 24.604C22.4675 24.548 22.3775 24.52 22.2775 24.52H21.3655V25.744Z" fill="#EF5DA8"/>
<defs>
<clipPath id="clip0_20572_494884">
<rect width="16" height="16" fill="white" transform="translate(10 6)"/>
</clipPath>
</defs>
</svg>
