<svg width="100%" height="100%" viewBox="0 0 36 36" fill="none" xmlns="http://www.w3.org/2000/svg">
<rect width="36" height="36" rx="5" fill="#F6F4FF"/>
<path d="M22.6364 20H20.8636C20.5091 20 20.2727 19.7636 20.2727 19.4091C20.2727 19.0545 20.5091 18.8182 20.8636 18.8182H22.6364C23.2864 18.8182 23.8182 18.2864 23.8182 17.6364V15.8636C23.8182 15.5091 24.0545 15.2727 24.4091 15.2727C24.7636 15.2727 25 15.5091 25 15.8636V17.6364C25 18.9364 23.9364 20 22.6364 20ZM16.1364 20H14.3636C13.0636 20 12 18.9364 12 17.6364V15.8636C12 15.5091 12.2364 15.2727 12.5909 15.2727C12.9455 15.2727 13.1818 15.5091 13.1818 15.8636V17.6364C13.1818 18.2864 13.7136 18.8182 14.3636 18.8182H16.1364C16.4909 18.8182 16.7273 19.0545 16.7273 19.4091C16.7273 19.7636 16.4909 20 16.1364 20ZM18.5 15.8636C17.2 15.8636 16.1364 14.8 16.1364 13.5C16.1364 12.2 17.2 11.1364 18.5 11.1364C19.8 11.1364 20.8636 12.2 20.8636 13.5C20.8636 14.8 19.8 15.8636 18.5 15.8636ZM18.5 12.3182C17.85 12.3182 17.3182 12.85 17.3182 13.5C17.3182 14.15 17.85 14.6818 18.5 14.6818C19.15 14.6818 19.6818 14.15 19.6818 13.5C19.6818 12.85 19.15 12.3182 18.5 12.3182ZM24.4091 11.7273C24.0545 11.7273 23.8182 11.4909 23.8182 11.1364V9.36364C23.8182 8.71364 23.2864 8.18182 22.6364 8.18182H20.8636C20.5091 8.18182 20.2727 7.94545 20.2727 7.59091C20.2727 7.23636 20.5091 7 20.8636 7H22.6364C23.9364 7 25 8.06364 25 9.36364V11.1364C25 11.4909 24.7636 11.7273 24.4091 11.7273ZM12.5909 11.7273C12.2364 11.7273 12 11.4909 12 11.1364V9.36364C12 8.06364 13.0636 7 14.3636 7H16.1364C16.4909 7 16.7273 7.23636 16.7273 7.59091C16.7273 7.94545 16.4909 8.18182 16.1364 8.18182H14.3636C13.7136 8.18182 13.1818 8.71364 13.1818 9.36364V11.1364C13.1818 11.4909 12.9455 11.7273 12.5909 11.7273Z" fill="#9B8AFF"/>
<path d="M14.1909 28.06C13.9469 28.06 13.7229 28.03 13.5189 27.97C13.3149 27.906 13.1309 27.812 12.9669 27.688C12.8029 27.564 12.6569 27.414 12.5289 27.238L13.0389 26.662C13.2349 26.934 13.4269 27.122 13.6149 27.226C13.8029 27.33 14.0149 27.382 14.2509 27.382C14.3869 27.382 14.5109 27.362 14.6229 27.322C14.7349 27.278 14.8229 27.22 14.8869 27.148C14.9509 27.072 14.9829 26.986 14.9829 26.89C14.9829 26.822 14.9689 26.76 14.9409 26.704C14.9169 26.644 14.8789 26.592 14.8269 26.548C14.7749 26.5 14.7109 26.456 14.6349 26.416C14.5589 26.376 14.4729 26.342 14.3769 26.314C14.2809 26.286 14.1749 26.26 14.0589 26.236C13.8389 26.192 13.6469 26.134 13.4829 26.062C13.3189 25.986 13.1809 25.894 13.0689 25.786C12.9569 25.674 12.8749 25.55 12.8229 25.414C12.7709 25.274 12.7449 25.116 12.7449 24.94C12.7449 24.764 12.7829 24.602 12.8589 24.454C12.9389 24.306 13.0469 24.178 13.1829 24.07C13.3189 23.962 13.4769 23.878 13.6569 23.818C13.8369 23.758 14.0309 23.728 14.2389 23.728C14.4749 23.728 14.6849 23.756 14.8689 23.812C15.0569 23.868 15.2209 23.952 15.3609 24.064C15.5049 24.172 15.6229 24.304 15.7149 24.46L15.1989 24.97C15.1189 24.846 15.0289 24.744 14.9289 24.664C14.8289 24.58 14.7209 24.518 14.6049 24.478C14.4889 24.434 14.3669 24.412 14.2389 24.412C14.0949 24.412 13.9689 24.432 13.8609 24.472C13.7569 24.512 13.6749 24.57 13.6149 24.646C13.5549 24.718 13.5249 24.806 13.5249 24.91C13.5249 24.99 13.5429 25.062 13.5789 25.126C13.6149 25.186 13.6649 25.24 13.7289 25.288C13.7969 25.336 13.8829 25.378 13.9869 25.414C14.0909 25.45 14.2089 25.482 14.3409 25.51C14.5609 25.554 14.7589 25.614 14.9349 25.69C15.1109 25.762 15.2609 25.85 15.3849 25.954C15.5089 26.054 15.6029 26.17 15.6669 26.302C15.7309 26.43 15.7629 26.574 15.7629 26.734C15.7629 27.01 15.6969 27.248 15.5649 27.448C15.4369 27.644 15.2549 27.796 15.0189 27.904C14.7829 28.008 14.5069 28.06 14.1909 28.06ZM16.6206 28V23.8H17.3226L19.7586 27.082L19.6266 27.106C19.6106 26.994 19.5966 26.88 19.5846 26.764C19.5726 26.644 19.5606 26.52 19.5486 26.392C19.5406 26.264 19.5326 26.13 19.5246 25.99C19.5206 25.85 19.5166 25.704 19.5126 25.552C19.5086 25.396 19.5066 25.232 19.5066 25.06V23.8H20.2806V28H19.5666L17.1186 24.766L17.2746 24.724C17.2946 24.948 17.3106 25.14 17.3226 25.3C17.3386 25.456 17.3506 25.592 17.3586 25.708C17.3666 25.82 17.3726 25.914 17.3766 25.99C17.3846 26.066 17.3886 26.136 17.3886 26.2C17.3926 26.26 17.3946 26.318 17.3946 26.374V28H16.6206ZM21.4078 28V23.8H23.1538C23.3938 23.8 23.6098 23.858 23.8018 23.974C23.9978 24.09 24.1538 24.248 24.2698 24.448C24.3858 24.648 24.4438 24.872 24.4438 25.12C24.4438 25.372 24.3858 25.6 24.2698 25.804C24.1538 26.004 23.9978 26.164 23.8018 26.284C23.6098 26.404 23.3938 26.464 23.1538 26.464H22.1878V28H21.4078ZM22.1878 25.744H23.0998C23.1998 25.744 23.2898 25.716 23.3698 25.66C23.4538 25.604 23.5198 25.53 23.5678 25.438C23.6198 25.346 23.6458 25.242 23.6458 25.126C23.6458 25.01 23.6198 24.908 23.5678 24.82C23.5198 24.728 23.4538 24.656 23.3698 24.604C23.2898 24.548 23.1998 24.52 23.0998 24.52H22.1878V25.744Z" fill="#9B8AFF"/>
</svg>
