<svg width="100%" height="100%" viewBox="0 0 36 36" fill="none" xmlns="http://www.w3.org/2000/svg">
<rect width="36" height="36" rx="5" fill="#344B49"/>
<path d="M22.85 10.9066L20.2141 8.41016C19.9324 8.14492 19.566 8 19.1805 8H14.1602C13.3316 8 12.6562 8.67539 12.6562 9.50391V20.4961C12.6562 21.3246 13.3316 22 14.1602 22H21.8164C22.6449 22 23.3203 21.3246 23.3203 20.4961V11.9977C23.3203 11.5875 23.148 11.1883 22.85 10.9066ZM22.0543 11.2812H20.0117C19.9352 11.2812 19.875 11.2211 19.875 11.1445V9.21953L22.0543 11.2812ZM21.8164 21.1797H14.1602C13.7828 21.1797 13.4766 20.8734 13.4766 20.4961V9.50391C13.4766 9.12656 13.7828 8.82031 14.1602 8.82031H19.0547V11.1445C19.0547 11.6723 19.484 12.1016 20.0117 12.1016H22.5V20.4961C22.5 20.8734 22.1938 21.1797 21.8164 21.1797Z" fill="#01CD8C"/>
<path d="M20.9146 13.4688H14.8989C14.672 13.4688 14.4888 13.652 14.4888 13.8789C14.4888 14.1059 14.672 14.2891 14.8989 14.2891H20.9146C21.1415 14.2891 21.3247 14.1059 21.3247 13.8789C21.3247 13.652 21.1415 13.4688 20.9146 13.4688Z" fill="#01CD8C"/>
<path d="M20.9146 15.6562H14.8989C14.672 15.6562 14.4888 15.8395 14.4888 16.0664C14.4888 16.2934 14.672 16.4766 14.8989 16.4766H20.9146C21.1415 16.4766 21.3247 16.2934 21.3247 16.0664C21.3247 15.8395 21.1415 15.6562 20.9146 15.6562Z" fill="#01CD8C"/>
<path d="M16.8868 17.8438H14.8989C14.672 17.8438 14.4888 18.027 14.4888 18.2539C14.4888 18.4809 14.672 18.6641 14.8989 18.6641H16.8868C17.1138 18.6641 17.297 18.4809 17.297 18.2539C17.297 18.027 17.1138 17.8438 16.8868 17.8438Z" fill="#01CD8C"/>
<path d="M21.719 27.9419V23.8555H23.3594C23.6552 23.8555 23.9218 23.9041 24.1592 24.0014C24.4005 24.0987 24.6067 24.2388 24.778 24.4217C24.9531 24.6047 25.0854 24.8206 25.175 25.0697C25.2684 25.3188 25.3151 25.5951 25.3151 25.8987C25.3151 26.2023 25.2684 26.4805 25.175 26.7335C25.0854 26.9826 24.9551 27.1986 24.7838 27.3815C24.6126 27.5605 24.4063 27.6987 24.165 27.796C23.9237 27.8933 23.6552 27.9419 23.3594 27.9419H21.719ZM22.4779 27.3523L22.4195 27.2414H23.3302C23.5209 27.2414 23.6902 27.2102 23.8381 27.148C23.9899 27.0857 24.1183 26.9962 24.2234 26.8794C24.3285 26.7627 24.4083 26.6226 24.4627 26.4591C24.5172 26.2918 24.5445 26.105 24.5445 25.8987C24.5445 25.6924 24.5172 25.5076 24.4627 25.3441C24.4083 25.1768 24.3265 25.0347 24.2176 24.9179C24.1125 24.8012 23.986 24.7117 23.8381 24.6494C23.6902 24.5871 23.5209 24.556 23.3302 24.556H22.402L22.4779 24.4568V27.3523Z" fill="#01CD8C"/>
<path d="M18.0706 27.9419V23.8555H20.7443V24.5443H18.8178V27.2531H20.7676V27.9419H18.0706ZM18.4208 26.1906V25.5134H20.4465V26.1906H18.4208Z" fill="#01CD8C"/>
<path d="M14.4219 27.9419V23.8555H17.0956V24.5443H15.1691V27.2531H17.1189V27.9419H14.4219ZM14.7721 26.1906V25.5134H16.7979V26.1906H14.7721Z" fill="#01CD8C"/>
<path d="M12.0577 28C11.8203 28 11.6024 27.9708 11.4039 27.9125C11.2054 27.8502 11.0264 27.7587 10.8668 27.6381C10.7073 27.5174 10.5652 27.3715 10.4407 27.2003L10.9369 26.6398C11.1276 26.9045 11.3144 27.0874 11.4973 27.1886C11.6802 27.2898 11.8865 27.3404 12.1161 27.3404C12.2484 27.3404 12.3691 27.3209 12.4781 27.282C12.587 27.2392 12.6727 27.1827 12.7349 27.1127C12.7972 27.0387 12.8283 26.9551 12.8283 26.8617C12.8283 26.7955 12.8147 26.7352 12.7875 26.6807C12.7641 26.6223 12.7271 26.5717 12.6765 26.5289C12.6259 26.4822 12.5637 26.4394 12.4897 26.4005C12.4158 26.3616 12.3321 26.3285 12.2387 26.3012C12.1453 26.274 12.0422 26.2487 11.9293 26.2253C11.7153 26.1825 11.5284 26.1261 11.3689 26.0561C11.2093 25.9821 11.075 25.8926 10.9661 25.7875C10.8571 25.6785 10.7773 25.5579 10.7267 25.4256C10.6761 25.2894 10.6508 25.1356 10.6508 24.9644C10.6508 24.7931 10.6878 24.6355 10.7618 24.4915C10.8396 24.3475 10.9447 24.223 11.077 24.1179C11.2093 24.0128 11.363 23.9311 11.5382 23.8727C11.7133 23.8143 11.9021 23.7852 12.1044 23.7852C12.3341 23.7852 12.5384 23.8124 12.7174 23.8669C12.9003 23.9214 13.0599 24.0031 13.1961 24.1121C13.3362 24.2172 13.451 24.3456 13.5405 24.4974L13.0385 24.9936C12.9606 24.8729 12.8731 24.7737 12.7758 24.6958C12.6785 24.6141 12.5734 24.5538 12.4605 24.5149C12.3477 24.4721 12.229 24.4507 12.1044 24.4507C11.9643 24.4507 11.8417 24.4701 11.7367 24.509C11.6355 24.548 11.5557 24.6044 11.4973 24.6783C11.4389 24.7484 11.4097 24.834 11.4097 24.9352C11.4097 25.013 11.4273 25.0831 11.4623 25.1454C11.4973 25.2037 11.546 25.2563 11.6082 25.303C11.6744 25.3497 11.7581 25.3905 11.8593 25.4256C11.9604 25.4606 12.0753 25.4917 12.2037 25.519C12.4177 25.5618 12.6104 25.6202 12.7816 25.6941C12.9529 25.7642 13.0988 25.8498 13.2195 25.951C13.3401 26.0483 13.4316 26.1611 13.4938 26.2896C13.5561 26.4141 13.5872 26.5542 13.5872 26.7099C13.5872 26.9784 13.523 27.21 13.3946 27.4046C13.2701 27.5953 13.093 27.7432 12.8634 27.8482C12.6337 27.9494 12.3652 28 12.0577 28Z" fill="#01CD8C"/>
</svg>
