<svg width="100%" height="100%" viewBox="0 0 36 36" fill="none" xmlns="http://www.w3.org/2000/svg">
<rect width="36" height="36" rx="5" fill="#EAF3FF"/>
<path d="M24.3974 10.5688C24.3828 9.804 23.6822 9.12385 22.4183 8.65388C21.2857 8.23353 19.7852 8 18.2002 8C16.6122 8 15.1147 8.23353 13.9791 8.65388C12.7152 9.12385 12.0117 9.80692 12 10.5717C12 10.5776 12 10.5863 12 10.5922V19.4078C12 20.1843 12.7035 20.8703 13.9791 21.3461C15.1147 21.7694 16.6122 22 18.2002 22C19.7882 22 21.2857 21.7665 22.4212 21.3461C23.6968 20.8732 24.4003 20.1843 24.4003 19.4078V10.5922C24.3974 10.5863 24.3974 10.5776 24.3974 10.5688ZM23.4867 19.4078C23.4867 20.0938 21.4258 21.0892 18.1972 21.0892C14.9687 21.0892 12.9078 20.0938 12.9078 19.4078V17.8753C13.1997 18.0738 13.5559 18.2519 13.9762 18.4095C15.1147 18.8299 16.6122 19.0634 18.2002 19.0634C19.7882 19.0634 21.2886 18.8299 22.4212 18.4095C22.8415 18.2519 23.1977 18.0738 23.4896 17.8753V19.4078H23.4867ZM23.4867 16.4566C23.4867 16.4595 23.4867 16.4654 23.4867 16.4683C23.4867 17.1543 21.4258 18.1497 18.1972 18.1497C14.9687 18.1497 12.9078 17.1543 12.9078 16.4683V14.9358C13.1997 15.1343 13.5559 15.3123 13.9762 15.47C15.1118 15.8932 16.6093 16.1239 18.1972 16.1239C19.7852 16.1239 21.2827 15.8903 22.4183 15.47C22.8386 15.3153 23.1947 15.1343 23.4867 14.9358V16.4566ZM23.4867 13.52C23.4867 13.5229 23.4867 13.5288 23.4867 13.5317C23.4867 14.2177 21.4258 15.2131 18.1972 15.2131C14.9687 15.2131 12.9078 14.2177 12.9078 13.5317V11.9992C13.1997 12.1977 13.5559 12.3757 13.9762 12.5304C15.1118 12.9537 16.6093 13.1843 18.1972 13.1843C19.7852 13.1843 21.2827 12.9508 22.4183 12.5304C22.8357 12.3757 23.1947 12.1947 23.4867 11.9992V13.52ZM18.2002 12.2736C14.9716 12.2736 12.9108 11.2781 12.9108 10.5922C12.9108 9.90617 14.9716 8.91076 18.2002 8.91076C21.4287 8.91076 23.4896 9.90617 23.4896 10.5922C23.4867 11.2781 21.4287 12.2736 18.2002 12.2736Z" fill="#247EFE"/>
<path d="M21.9987 28.3335C21.6947 28.3335 21.4167 28.2815 21.1647 28.1775C20.9127 28.0735 20.6947 27.9255 20.5107 27.7335C20.3267 27.5375 20.1827 27.3075 20.0787 27.0435C19.9787 26.7755 19.9287 26.4835 19.9287 26.1675C19.9287 25.8635 19.9827 25.5815 20.0907 25.3215C20.1987 25.0615 20.3487 24.8335 20.5407 24.6375C20.7327 24.4415 20.9567 24.2895 21.2127 24.1815C21.4687 24.0735 21.7467 24.0195 22.0467 24.0195C22.2507 24.0195 22.4487 24.0495 22.6407 24.1095C22.8327 24.1695 23.0087 24.2535 23.1687 24.3615C23.3287 24.4655 23.4627 24.5875 23.5707 24.7275L23.0727 25.2735C22.9687 25.1655 22.8607 25.0755 22.7487 25.0035C22.6407 24.9275 22.5267 24.8715 22.4067 24.8355C22.2907 24.7955 22.1707 24.7755 22.0467 24.7755C21.8627 24.7755 21.6887 24.8095 21.5247 24.8775C21.3647 24.9455 21.2247 25.0415 21.1047 25.1655C20.9887 25.2895 20.8967 25.4375 20.8287 25.6095C20.7607 25.7775 20.7267 25.9655 20.7267 26.1735C20.7267 26.3855 20.7587 26.5775 20.8227 26.7495C20.8907 26.9215 20.9847 27.0695 21.1047 27.1935C21.2287 27.3175 21.3747 27.4135 21.5427 27.4815C21.7147 27.5455 21.9027 27.5775 22.1067 27.5775C22.2387 27.5775 22.3667 27.5595 22.4907 27.5235C22.6147 27.4875 22.7287 27.4375 22.8327 27.3735C22.9407 27.3055 23.0387 27.2275 23.1267 27.1395L23.5107 27.7575C23.4147 27.8655 23.2867 27.9635 23.1267 28.0515C22.9667 28.1395 22.7867 28.2095 22.5867 28.2615C22.3907 28.3095 22.1947 28.3335 21.9987 28.3335Z" fill="#247EFE"/>
<path d="M16.0918 28.2703V24.0703H17.9158C18.1678 24.0703 18.3978 24.1303 18.6058 24.2503C18.8138 24.3663 18.9778 24.5263 19.0978 24.7303C19.2218 24.9303 19.2838 25.1563 19.2838 25.4083C19.2838 25.6483 19.2218 25.8703 19.0978 26.0743C18.9778 26.2743 18.8138 26.4343 18.6058 26.5543C18.4018 26.6703 18.1718 26.7283 17.9158 26.7283H16.8538V28.2703H16.0918ZM18.5278 28.2703L17.4598 26.3743L18.2638 26.2243L19.4518 28.2763L18.5278 28.2703ZM16.8538 26.0503H17.9218C18.0378 26.0503 18.1378 26.0243 18.2218 25.9723C18.3098 25.9163 18.3778 25.8403 18.4258 25.7443C18.4738 25.6483 18.4978 25.5423 18.4978 25.4263C18.4978 25.2943 18.4678 25.1803 18.4078 25.0843C18.3478 24.9883 18.2638 24.9123 18.1558 24.8563C18.0478 24.8003 17.9238 24.7723 17.7838 24.7723H16.8538V26.0503Z" fill="#247EFE"/>
<path d="M13.662 28.332C13.418 28.332 13.194 28.302 12.99 28.242C12.786 28.178 12.602 28.084 12.438 27.96C12.274 27.836 12.128 27.686 12 27.51L12.51 26.934C12.706 27.206 12.898 27.394 13.086 27.498C13.274 27.602 13.486 27.654 13.722 27.654C13.858 27.654 13.982 27.634 14.094 27.594C14.206 27.55 14.294 27.492 14.358 27.42C14.422 27.344 14.454 27.258 14.454 27.162C14.454 27.094 14.44 27.032 14.412 26.976C14.388 26.916 14.35 26.864 14.298 26.82C14.246 26.772 14.182 26.728 14.106 26.688C14.03 26.648 13.944 26.614 13.848 26.586C13.752 26.558 13.646 26.532 13.53 26.508C13.31 26.464 13.118 26.406 12.954 26.334C12.79 26.258 12.652 26.166 12.54 26.058C12.428 25.946 12.346 25.822 12.294 25.686C12.242 25.546 12.216 25.388 12.216 25.212C12.216 25.036 12.254 24.874 12.33 24.726C12.41 24.578 12.518 24.45 12.654 24.342C12.79 24.234 12.948 24.15 13.128 24.09C13.308 24.03 13.502 24 13.71 24C13.946 24 14.156 24.028 14.34 24.084C14.528 24.14 14.692 24.224 14.832 24.336C14.976 24.444 15.094 24.576 15.186 24.732L14.67 25.242C14.59 25.118 14.5 25.016 14.4 24.936C14.3 24.852 14.192 24.79 14.076 24.75C13.96 24.706 13.838 24.684 13.71 24.684C13.566 24.684 13.44 24.704 13.332 24.744C13.228 24.784 13.146 24.842 13.086 24.918C13.026 24.99 12.996 25.078 12.996 25.182C12.996 25.262 13.014 25.334 13.05 25.398C13.086 25.458 13.136 25.512 13.2 25.56C13.268 25.608 13.354 25.65 13.458 25.686C13.562 25.722 13.68 25.754 13.812 25.782C14.032 25.826 14.23 25.886 14.406 25.962C14.582 26.034 14.732 26.122 14.856 26.226C14.98 26.326 15.074 26.442 15.138 26.574C15.202 26.702 15.234 26.846 15.234 27.006C15.234 27.282 15.168 27.52 15.036 27.72C14.908 27.916 14.726 28.068 14.49 28.176C14.254 28.28 13.978 28.332 13.662 28.332Z" fill="#247EFE"/>
</svg>
