<svg width="100%" height="100%" viewBox="0 0 36 36" fill="none" xmlns="http://www.w3.org/2000/svg">
<rect width="36" height="36" rx="5" fill="#FDF6EA"/>
<path d="M24.1666 22H11.8334C10.822 22 10 21.1594 10 20.1251V8.87505C10 7.84071 10.822 7 11.8334 7H24.1666C25.178 7 26 7.84071 26 8.87505V20.1251C26 21.1594 25.178 22 24.1666 22ZM11.8334 8.02273C11.374 8.02273 11 8.40526 11 8.87505V20.1251C11 20.5949 11.374 20.9773 11.8334 20.9773H24.1666C24.626 20.9773 25 20.5949 25 20.1251V8.87505C25 8.40526 24.626 8.02273 24.1666 8.02273H11.8334Z" fill="#E7A427"/>
<path d="M25.5 12H10.5C10.224 12 10 11.776 10 11.5C10 11.224 10.224 11 10.5 11H25.5C25.776 11 26 11.224 26 11.5C26 11.776 25.776 12 25.5 12Z" fill="#E7A427"/>
<path d="M25.5 15.5H10.5C10.224 15.5 10 15.276 10 15C10 14.724 10.224 14.5 10.5 14.5H25.5C25.776 14.5 26 14.724 26 15C26 15.276 25.776 15.5 25.5 15.5Z" fill="#E7A427"/>
<path d="M25.5 19H10.5C10.224 19 10 18.776 10 18.5C10 18.224 10.224 18 10.5 18H25.5C25.776 18 26 18.224 26 18.5C26 18.776 25.776 19 25.5 19Z" fill="#E7A427"/>
<path d="M14 22C13.724 22 13.5 21.769 13.5 21.4844V11.5156C13.5 11.231 13.724 11 14 11C14.276 11 14.5 11.231 14.5 11.5156V21.4844C14.5 21.769 14.276 22 14 22Z" fill="#E7A427"/>
<path d="M18 22C17.724 22 17.5 21.769 17.5 21.4844V11.5156C17.5 11.231 17.724 11 18 11C18.276 11 18.5 11.231 18.5 11.5156V21.4844C18.5 21.769 18.276 22 18 22Z" fill="#E7A427"/>
<path d="M22 22C21.724 22 21.5 21.769 21.5 21.4844V11.5156C21.5 11.231 21.724 11 22 11C22.276 11 22.5 11.231 22.5 11.5156V21.4844C22.5 21.769 22.276 22 22 22Z" fill="#E7A427"/>
<path d="M20.5503 29.0008V24.8008H23.2983V25.5088H21.3183V28.2928H23.3223V29.0008H20.5503ZM20.9103 27.2008V26.5048H22.9923V27.2008H20.9103Z" fill="#E7A427"/>
<path d="M17.7691 29.0008V25.5208H16.5691V24.8008H19.7851V25.5208H18.5491V29.0008H17.7691Z" fill="#E7A427"/>
<path d="M14.6096 29.0601C14.3056 29.0601 14.0276 29.0081 13.7756 28.9041C13.5236 28.8001 13.3056 28.6521 13.1216 28.4601C12.9376 28.2641 12.7936 28.0341 12.6896 27.7701C12.5896 27.5021 12.5396 27.2101 12.5396 26.8941C12.5396 26.5901 12.5936 26.3081 12.7016 26.0481C12.8096 25.7881 12.9596 25.5601 13.1516 25.3641C13.3436 25.1681 13.5676 25.0161 13.8236 24.9081C14.0796 24.8001 14.3576 24.7461 14.6576 24.7461C14.8616 24.7461 15.0596 24.7761 15.2516 24.8361C15.4436 24.8961 15.6196 24.9801 15.7796 25.0881C15.9396 25.1921 16.0736 25.3141 16.1816 25.4541L15.6836 26.0001C15.5796 25.8921 15.4716 25.8021 15.3596 25.7301C15.2516 25.6541 15.1376 25.5981 15.0176 25.5621C14.9016 25.5221 14.7816 25.5021 14.6576 25.5021C14.4736 25.5021 14.2996 25.5361 14.1356 25.6041C13.9756 25.6721 13.8356 25.7681 13.7156 25.8921C13.5996 26.0161 13.5076 26.1641 13.4396 26.3361C13.3716 26.5041 13.3376 26.6921 13.3376 26.9001C13.3376 27.1121 13.3696 27.3041 13.4336 27.4761C13.5016 27.6481 13.5956 27.7961 13.7156 27.9201C13.8396 28.0441 13.9856 28.1401 14.1536 28.2081C14.3256 28.2721 14.5136 28.3041 14.7176 28.3041C14.8496 28.3041 14.9776 28.2861 15.1016 28.2501C15.2256 28.2141 15.3396 28.1641 15.4436 28.1001C15.5516 28.0321 15.6496 27.9541 15.7376 27.8661L16.1216 28.4841C16.0256 28.5921 15.8976 28.6901 15.7376 28.7781C15.5776 28.8661 15.3976 28.9361 15.1976 28.9881C15.0016 29.0361 14.8056 29.0601 14.6096 29.0601Z" fill="#E7A427"/>
</svg>
