<svg xmlns="http://www.w3.org/2000/svg" width="100%" height="100%" viewBox="0 0 15 15" fill="none">
    <circle cx="7.5" cy="7.5" r="6.9" stroke="currentColor" stroke-width="1.2" />
    <path
        d="M7.05 7.5V7.95H7.5H11C11.1548 7.95 11.2873 8.01395 11.3684 8.10088C11.4447 8.18264 11.4755 8.28138 11.4504 8.39262C11.3415 8.87457 11.1448 9.33503 10.8675 9.75006C10.4224 10.4161 9.78991 10.9352 9.04987 11.2417C8.30983 11.5482 7.49551 11.6285 6.70988 11.4722C5.92426 11.3159 5.20262 10.9302 4.63622 10.3638C4.06981 9.79738 3.68409 9.07574 3.52782 8.29012C3.37155 7.50449 3.45175 6.69017 3.75829 5.95013C4.06482 5.21009 4.58392 4.57757 5.24994 4.13255C5.66497 3.85524 6.12543 3.65849 6.60738 3.54959C6.71862 3.52445 6.81736 3.55531 6.89912 3.6316C6.98605 3.71271 7.05 3.84521 7.05 4V7.5Z"
        stroke="currentColor" stroke-width="0.9" />
</svg>