<svg width="16" height="16" viewBox="0 0 16 16" fill="none" xmlns="http://www.w3.org/2000/svg">
    <g clip-path="url(#clip0_17179_3800)">
        <mask id="mask0_17179_3800" style="mask-type:luminance" maskUnits="userSpaceOnUse" x="0" y="0" width="16"
            height="16">
            <path d="M16 0H0V16H16V0Z" fill="white" />
        </mask>
        <g mask="url(#mask0_17179_3800)">
            <path
                d="M13.581 0C12.2681 0 11.2 1.0681 11.2 2.38095C11.2 3.69381 12.2681 4.7619 13.581 4.7619C14.8939 4.7619 15.9619 3.69381 15.9619 2.38095C15.9619 1.0681 14.8939 0 13.581 0ZM13.581 3.96826C12.7057 3.96826 11.9937 3.25619 11.9937 2.38095C11.9937 1.50571 12.7057 0.793651 13.581 0.793651C14.4562 0.793651 15.1683 1.50571 15.1683 2.38095C15.1683 3.25619 14.4562 3.96826 13.581 3.96826Z"
                fill="currentColor" />
            <path
                d="M13.581 11.1992C12.2681 11.1992 11.2 12.2673 11.2 13.5802C11.2 14.8931 12.2681 15.9611 13.581 15.9611C14.8939 15.9611 15.9619 14.8931 15.9619 13.5802C15.9619 12.2673 14.8939 11.1992 13.581 11.1992ZM13.581 15.1675C12.7057 15.1675 11.9937 14.4554 11.9937 13.5802C11.9937 12.7049 12.7057 11.9929 13.581 11.9929C14.4562 11.9929 15.1683 12.7049 15.1683 13.5802C15.1683 14.4554 14.4562 15.1675 13.581 15.1675Z"
                fill="currentColor" />
            <path
                d="M2.38095 0C1.0681 0 0 1.0681 0 2.38095C0 3.69381 1.0681 4.7619 2.38095 4.7619C3.69381 4.7619 4.7619 3.69381 4.7619 2.38095C4.7619 1.0681 3.69381 0 2.38095 0ZM2.38095 3.96826C1.50571 3.96826 0.793651 3.25619 0.793651 2.38095C0.793651 1.50571 1.50571 0.793651 2.38095 0.793651C3.25619 0.793651 3.96826 1.50571 3.96826 2.38095C3.96826 3.25619 3.25619 3.96826 2.38095 3.96826Z"
                fill="currentColor" />
            <path
                d="M2.38095 11.1992C1.0681 11.1992 0 12.2673 0 13.5802C0 14.8931 1.0681 15.9611 2.38095 15.9611C3.69381 15.9611 4.7619 14.8931 4.7619 13.5802C4.7619 12.2673 3.69381 11.1992 2.38095 11.1992ZM2.38095 15.1675C1.50571 15.1675 0.793651 14.4554 0.793651 13.5802C0.793651 12.7049 1.50571 11.9929 2.38095 11.9929C3.25619 11.9929 3.96826 12.7049 3.96826 13.5802C3.96826 14.4554 3.25619 15.1675 2.38095 15.1675Z"
                fill="currentColor" />
            <path d="M4.15473 12.6454L12.64 4.16016L11.7349 3.25506L3.24964 11.7403L4.15473 12.6454Z"
                fill="currentColor" />
            <path d="M3.24958 4.15925L11.7349 12.6445L12.64 11.7394L4.15468 3.25415L3.24958 4.15925Z"
                fill="currentColor" />
            <path
                d="M7.97714 10.8334C9.5551 10.8334 10.8343 9.55424 10.8343 7.97628C10.8343 6.39833 9.5551 5.11914 7.97714 5.11914C6.39918 5.11914 5.12 6.39833 5.12 7.97628C5.12 9.55424 6.39918 10.8334 7.97714 10.8334Z"
                fill="currentColor" />
        </g>
    </g>
    <defs>
        <clipPath id="clip0_17179_3800">
            <rect width="16" height="16" fill="white" />
        </clipPath>
    </defs>
</svg>