<svg width="100%" height="100%" viewBox="0 0 10 10" fill="none" xmlns="http://www.w3.org/2000/svg">
    <g clip-path="url(#clip0_8292_48040)">
        <path
            d="M6.46776 1.25L6.46776 1.66667L4.16929 1.66667C4.11388 1.66667 4.06073 1.68862 4.02154 1.72769C3.98236 1.76676 3.96034 1.81975 3.96034 1.875L3.96034 4.79167L2.49768 4.79167L2.49768 4.375C2.49768 4.20924 2.43164 4.05027 2.31408 3.93306C2.19652 3.81585 2.03708 3.75 1.87083 3.75L0.826073 3.75C0.65982 3.75 0.500378 3.81585 0.38282 3.93306C0.265262 4.05027 0.199219 4.20924 0.199219 4.375L0.199219 5.625C0.199219 5.79076 0.265262 5.94973 0.38282 6.06694C0.500378 6.18415 0.659821 6.25 0.826073 6.25L1.87083 6.25C2.03708 6.25 2.19652 6.18415 2.31408 6.06694C2.43164 5.94973 2.49768 5.79076 2.49768 5.625L2.49768 5.20833L3.96034 5.20833L3.96034 8.125C3.96034 8.18025 3.98236 8.23324 4.02154 8.27231C4.06073 8.31138 4.11388 8.33333 4.16929 8.33333L6.46776 8.33333L6.46776 8.75C6.46776 8.91576 6.5338 9.07473 6.65136 9.19194C6.76892 9.30915 6.92836 9.375 7.09461 9.375L8.13937 9.375C8.30562 9.375 8.46506 9.30915 8.58262 9.19194C8.70018 9.07473 8.76622 8.91576 8.76622 8.75L8.76622 7.5C8.76622 7.33424 8.70018 7.17527 8.58262 7.05806C8.46506 6.94085 8.30562 6.875 8.13937 6.875L7.09461 6.875C6.92836 6.875 6.76892 6.94085 6.65136 7.05806C6.5338 7.17527 6.46776 7.33424 6.46776 7.5L6.46776 7.91667L4.37825 7.91667L4.37825 5.20833L6.46776 5.20833L6.46776 5.625C6.46776 5.79076 6.5338 5.94973 6.65136 6.06694C6.76892 6.18415 6.92836 6.25 7.09461 6.25L8.13937 6.25C8.30562 6.25 8.46506 6.18415 8.58262 6.06694C8.70018 5.94973 8.76622 5.79076 8.76622 5.625L8.76622 4.375C8.76622 4.20924 8.70018 4.05027 8.58262 3.93306C8.46506 3.81585 8.30562 3.75 8.13937 3.75L7.09461 3.75C6.92836 3.75 6.76892 3.81585 6.65136 3.93306C6.5338 4.05027 6.46776 4.20924 6.46776 4.375L6.46776 4.79167L4.37825 4.79167L4.37825 2.08333L6.46776 2.08333L6.46776 2.5C6.46776 2.66576 6.5338 2.82473 6.65136 2.94194C6.76892 3.05915 6.92836 3.125 7.09461 3.125L8.13937 3.125C8.30562 3.125 8.46506 3.05915 8.58262 2.94194C8.70018 2.82473 8.76622 2.66576 8.76622 2.5L8.76622 1.25C8.76622 1.08424 8.70018 0.925271 8.58262 0.80806C8.46506 0.69085 8.30562 0.625002 8.13937 0.625002L7.09461 0.625002C6.92836 0.625002 6.76892 0.69085 6.65136 0.80806C6.5338 0.925271 6.46776 1.08424 6.46776 1.25ZM1.87083 5.83333L0.826073 5.83333C0.770655 5.83333 0.717508 5.81138 0.678322 5.77232C0.639136 5.73324 0.617121 5.68025 0.617121 5.625L0.617121 4.375C0.617121 4.31975 0.639136 4.26676 0.678322 4.22769C0.717508 4.18862 0.770655 4.16667 0.826073 4.16667L1.87083 4.16667C1.92625 4.16667 1.97939 4.18862 2.01858 4.22769C2.05777 4.26676 2.07978 4.31975 2.07978 4.375L2.07978 5.625C2.07978 5.68025 2.05777 5.73324 2.01858 5.77231C1.97939 5.81138 1.92625 5.83333 1.87083 5.83333ZM7.09461 7.29167L8.13937 7.29167C8.19479 7.29167 8.24793 7.31362 8.28712 7.35269C8.32631 7.39176 8.34832 7.44475 8.34832 7.5L8.34832 8.75C8.34832 8.80525 8.32631 8.85824 8.28712 8.89731C8.24793 8.93638 8.19479 8.95833 8.13937 8.95833L7.09461 8.95833C7.0392 8.95833 6.98605 8.93638 6.94686 8.89731C6.90768 8.85824 6.88566 8.80525 6.88566 8.75L6.88566 7.5C6.88566 7.44475 6.90768 7.39176 6.94686 7.35269C6.98605 7.31362 7.0392 7.29167 7.09461 7.29167ZM7.09461 4.16667L8.13937 4.16667C8.19479 4.16667 8.24793 4.18862 8.28712 4.22769C8.32631 4.26676 8.34832 4.31975 8.34832 4.375L8.34832 5.625C8.34832 5.68025 8.32631 5.73324 8.28712 5.77231C8.24793 5.81138 8.19479 5.83333 8.13937 5.83333L7.09461 5.83333C7.0392 5.83333 6.98605 5.81138 6.94686 5.77231C6.90768 5.73324 6.88566 5.68025 6.88566 5.625L6.88566 4.375C6.88566 4.31975 6.90768 4.26676 6.94686 4.22769C6.98605 4.18862 7.0392 4.16667 7.09461 4.16667ZM8.13937 1.04167C8.19479 1.04167 8.24793 1.06362 8.28712 1.10269C8.32631 1.14176 8.34832 1.19475 8.34832 1.25L8.34832 2.5C8.34832 2.55525 8.32631 2.60825 8.28712 2.64732C8.24793 2.68639 8.19479 2.70833 8.13937 2.70833L7.09461 2.70833C7.0392 2.70833 6.98605 2.68639 6.94686 2.64732C6.90768 2.60825 6.88566 2.55525 6.88566 2.5L6.88566 1.25C6.88566 1.19475 6.90768 1.14176 6.94686 1.10269C6.98605 1.06362 7.0392 1.04167 7.09461 1.04167L8.13937 1.04167Z"
            fill="white" />
    </g>
    <defs>
        <clipPath id="clip0_8292_48040">
            <rect width="10" height="10" fill="white" transform="translate(0 10) rotate(-90)" />
        </clipPath>
    </defs>
</svg>