<svg width="100%" height="100%" viewBox="0 0 16 16" fill="none" xmlns="http://www.w3.org/2000/svg">
    <path
        d="M14.4866 5.36855C15.0957 6.86998 15.165 8.53621 14.6829 10.0831C14.2007 11.6299 13.1969 12.9616 11.8425 13.8511C10.4882 14.7405 8.86727 15.1325 7.25618 14.9604C5.64508 14.7882 4.1436 14.0624 3.00781 12.9069C1.87202 11.7514 1.17225 10.2376 1.02786 8.62381C0.883469 7.00999 1.30339 5.39605 2.21601 4.05724C3.12863 2.71844 4.47742 1.73768 6.03236 1.28224C7.58731 0.826792 9.25209 0.924866 10.7428 1.55973C10.7925 1.58093 10.8376 1.61172 10.8755 1.65034C10.9133 1.68896 10.9432 1.73466 10.9634 1.78482C10.9836 1.83499 10.9937 1.88864 10.9931 1.94271C10.9926 1.99678 10.9814 2.05022 10.9602 2.09997C10.939 2.14972 10.9082 2.1948 10.8696 2.23265C10.831 2.2705 10.7853 2.30037 10.7351 2.32056C10.685 2.34075 10.6313 2.35086 10.5772 2.35031C10.5232 2.34977 10.4697 2.33858 10.42 2.31738C9.78137 2.05018 9.10237 1.89233 8.41139 1.85044V2.23914C8.41139 2.34835 8.36801 2.45308 8.29079 2.53031C8.21357 2.60753 8.10883 2.65091 7.99963 2.65091C7.89042 2.65091 7.78569 2.60753 7.70846 2.53031C7.63124 2.45308 7.58786 2.34835 7.58786 2.23914V1.84962C6.23566 1.92718 4.94927 2.45909 3.93716 3.35914L4.21139 3.63914C4.27086 3.71844 4.29974 3.81652 4.29271 3.91539C4.28568 4.01426 4.24323 4.10728 4.17314 4.17736C4.10306 4.24745 4.01004 4.2899 3.91117 4.29693C3.8123 4.30396 3.71422 4.27508 3.63492 4.21561L3.35492 3.94138C2.45563 4.95419 1.92309 6.24001 1.84293 7.59208H2.23492C2.34413 7.59208 2.44887 7.63546 2.52609 7.71268C2.60331 7.7899 2.64669 7.89464 2.64669 8.00384C2.64669 8.11305 2.60331 8.21779 2.52609 8.29501C2.44887 8.37223 2.34413 8.41561 2.23492 8.41561H1.84293C1.92277 9.76775 2.45536 11.0537 3.35492 12.0663L3.63492 11.7921C3.71422 11.7326 3.8123 11.7037 3.91117 11.7108C4.01004 11.7178 4.10306 11.7602 4.17314 11.8303C4.24323 11.9004 4.28568 11.9934 4.29271 12.0923C4.29974 12.1912 4.27086 12.2893 4.21139 12.3685L3.93386 12.6461C4.94651 13.5477 6.23421 14.0805 7.58786 14.1581V13.7685C7.58786 13.6593 7.63124 13.5546 7.70846 13.4774C7.78569 13.4002 7.89042 13.3568 7.99963 13.3568C8.10883 13.3568 8.21357 13.4002 8.29079 13.4774C8.36801 13.5546 8.41139 13.6593 8.41139 13.7685V14.1581C9.76359 14.0805 11.05 13.5486 12.0621 12.6485L11.7879 12.3685C11.7284 12.2893 11.6995 12.1912 11.7065 12.0923C11.7136 11.9934 11.756 11.9004 11.8261 11.8303C11.8962 11.7602 11.9892 11.7178 12.0881 11.7108C12.1869 11.7037 12.285 11.7326 12.3643 11.7921L12.6419 12.0696C13.5435 11.0568 14.0768 9.76931 14.1555 8.41561H13.7643C13.6551 8.41561 13.5504 8.37223 13.4732 8.29501C13.3959 8.21779 13.3526 8.11305 13.3526 8.00384C13.3526 7.89464 13.3959 7.7899 13.4732 7.71268C13.5504 7.63546 13.6551 7.59208 13.7643 7.59208H14.1563C14.116 6.93556 13.97 6.28984 13.724 5.67985C13.7015 5.62939 13.6893 5.57492 13.6883 5.51968C13.6873 5.46444 13.6974 5.40957 13.7181 5.35832C13.7387 5.30707 13.7694 5.26049 13.8084 5.22137C13.8474 5.18224 13.8939 5.15137 13.9451 5.13058C13.9963 5.1098 14.0511 5.09953 14.1064 5.10038C14.1616 5.10124 14.2161 5.1132 14.2667 5.13556C14.3172 5.15791 14.3627 5.19021 14.4005 5.23052C14.4382 5.27083 14.4675 5.31834 14.4866 5.3702V5.36855ZM9.13363 6.28679L12.6501 2.7695C12.7274 2.69218 12.8323 2.64874 12.9416 2.64874C13.051 2.64874 13.1558 2.69218 13.2332 2.7695C13.3105 2.84682 13.3539 2.95168 13.3539 3.06103C13.3539 3.17037 13.3105 3.27524 13.2332 3.35256L9.71586 6.86902C9.94005 7.20496 10.0593 7.59997 10.0584 8.00384C10.0584 8.41104 9.9377 8.80909 9.71147 9.14766C9.48525 9.48624 9.1637 9.75012 8.7875 9.90595C8.4113 10.0618 7.99734 10.1025 7.59797 10.0231C7.1986 9.94367 6.83175 9.74758 6.54382 9.45965C6.25589 9.17172 6.0598 8.80487 5.98036 8.4055C5.90092 8.00613 5.9417 7.59217 6.09752 7.21597C6.25335 6.83977 6.51723 6.51822 6.85581 6.292C7.19438 6.06577 7.59243 5.94502 7.99963 5.94502C8.40303 5.94474 8.79742 6.06426 9.1328 6.28843L9.13363 6.28679ZM9.23492 8.00384C9.23492 7.75953 9.16247 7.5207 9.02674 7.31755C8.891 7.11441 8.69807 6.95608 8.47235 6.86258C8.24663 6.76909 7.99826 6.74462 7.75863 6.79229C7.51901 6.83995 7.2989 6.9576 7.12614 7.13036C6.95338 7.30312 6.83573 7.52323 6.78807 7.76285C6.7404 8.00247 6.76487 8.25085 6.85836 8.47657C6.95186 8.70229 7.11019 8.89522 7.31333 9.03095C7.51648 9.16669 7.75531 9.23914 7.99963 9.23914C8.32725 9.23914 8.64145 9.10899 8.87311 8.87733C9.10477 8.64567 9.23492 8.33146 9.23492 8.00384Z"
        fill="currentColor" />
</svg>