<svg width="15" height="15" viewBox="0 0 11 10" fill="none" xmlns="http://www.w3.org/2000/svg">
<g clip-path="url(#clip0_19334_15206)">
<path d="M8.87489 5.27405C8.77129 5.27405 8.67194 5.3152 8.59868 5.38846C8.52543 5.46171 8.48428 5.56106 8.48428 5.66466V7.23702C8.48393 7.5407 8.36314 7.83185 8.1484 8.0466C7.93366 8.26133 7.64251 8.38213 7.33882 8.38247H2.86441C2.56073 8.38213 2.26958 8.26133 2.05484 8.0466C1.8401 7.83185 1.7193 7.5407 1.71896 7.23702V2.76261C1.7193 2.45892 1.8401 2.16777 2.05484 1.95303C2.26958 1.73829 2.56073 1.6175 2.86441 1.61715H4.43677C4.54037 1.61715 4.63972 1.576 4.71297 1.50275C4.78623 1.42949 4.82738 1.33014 4.82738 1.22654C4.82738 1.12295 4.78623 1.0236 4.71297 0.950344C4.63972 0.877091 4.54037 0.835938 4.43677 0.835938H2.86441C2.35362 0.836541 1.86391 1.03972 1.50272 1.40091C1.14153 1.7621 0.938347 2.25181 0.937744 2.76261V7.23702C0.938347 7.74782 1.14153 8.23752 1.50272 8.59871C1.86391 8.9599 2.35362 9.16308 2.86441 9.16369H7.33882C7.84962 9.16308 8.33933 8.9599 8.70052 8.59871C9.06171 8.23752 9.26489 7.74782 9.26549 7.23702V5.66466C9.26549 5.56106 9.22434 5.46171 9.15109 5.38846C9.07783 5.3152 8.97848 5.27405 8.87489 5.27405Z" fill="#FFCE73"/>
<path d="M8.86633 0.832031H6.43805C6.33577 0.832012 6.23756 0.872113 6.16452 0.94372C6.09149 1.01533 6.04945 1.11273 6.04745 1.21499C6.04338 1.43422 6.22778 1.61325 6.44684 1.61325H7.93327L4.8224 4.72508C4.74916 4.79834 4.70801 4.89769 4.70801 5.00128C4.70801 5.10487 4.74916 5.20422 4.8224 5.27747C4.89566 5.35072 4.99501 5.39187 5.0986 5.39187C5.20219 5.39187 5.30154 5.35072 5.37479 5.27747L8.48663 2.16661V3.6584C8.48663 3.762 8.52778 3.86135 8.60103 3.9346C8.67429 4.00786 8.77364 4.04901 8.87724 4.04901C8.98083 4.04901 9.08018 4.00786 9.15344 3.9346C9.22669 3.86135 9.26784 3.762 9.26784 3.6584V1.23338C9.26784 1.18066 9.25746 1.12846 9.23728 1.07975C9.2171 1.03105 9.18752 0.986797 9.15023 0.949526C9.11295 0.912255 9.06868 0.882696 9.01997 0.862535C8.97126 0.842375 8.91905 0.83201 8.86633 0.832031Z" fill="#FFCE73"/>
</g>
<defs>
<clipPath id="clip0_19334_15206">
<rect width="10" height="10" fill="white" transform="translate(0.101318)"/>
</clipPath>
</defs>
</svg>
