<svg width="16" height="16" viewBox="0 0 16 16" fill="none" xmlns="http://www.w3.org/2000/svg">
    <g clip-path="url(#clip0_16491_10923)">
        <path
            d="M10.015 7.0418C10.015 6.7933 9.81354 6.5918 9.56504 6.5918H4.61504C4.36654 6.5918 4.16504 6.7933 4.16504 7.0418C4.16504 7.2903 4.36654 7.4918 4.61504 7.4918H9.56504C9.81354 7.4918 10.015 7.2903 10.015 7.0418Z"
            fill="#8390A3" />
        <path
            d="M4.61431 8.86523C4.36581 8.86523 4.16431 9.06673 4.16431 9.31523C4.16431 9.56373 4.36581 9.76523 4.61431 9.76523H7.23881C7.48731 9.76523 7.68881 9.56373 7.68881 9.31523C7.68881 9.06673 7.48731 8.86523 7.23881 8.86523H4.61431Z"
            fill="#8390A3" />
        <path
            d="M12.98 7.06786C12.7315 7.06786 12.53 7.26936 12.53 7.51786V11.1574C12.53 11.8384 11.976 12.3924 11.295 12.3924H8.28505C8.18755 12.3924 8.09255 12.4239 8.01455 12.4829L5.41555 14.4374C5.34955 14.4869 5.28755 14.4664 5.25655 14.4494C5.22505 14.4334 5.17305 14.3939 5.17505 14.3134L5.22505 12.8584C5.22905 12.7364 5.18355 12.6179 5.09905 12.5304C5.01455 12.4424 4.89755 12.3929 4.77555 12.3929H2.68505C2.00405 12.3929 1.45005 11.8394 1.45005 11.1579V5.20786C1.45005 4.52436 2.00405 3.96836 2.68505 3.96836H8.23005C8.47855 3.96836 8.68005 3.76686 8.68005 3.51836C8.68005 3.26986 8.47855 3.06836 8.23005 3.06836H2.68505C1.50805 3.06836 0.550049 4.02836 0.550049 5.20836V11.1579C0.550049 12.3349 1.50805 13.2934 2.68505 13.2934H4.30955L4.27555 14.2844C4.26355 14.6914 4.48005 15.0614 4.84155 15.2489C4.99605 15.3294 5.16255 15.3689 5.32755 15.3689C5.54905 15.3689 5.76855 15.2974 5.95555 15.1579L8.43505 13.2934H11.2945C12.4715 13.2934 13.4295 12.3354 13.4295 11.1579V7.51836C13.43 7.26936 13.2285 7.06786 12.98 7.06786Z"
            fill="#8390A3" />
        <path
            d="M15.4121 2.78067C15.3306 2.53067 15.1301 2.34367 14.8756 2.28067L13.7256 1.99417L13.0976 0.989172C12.8191 0.542172 12.0921 0.543172 11.8141 0.989172L11.1861 1.99417L10.0361 2.28067C9.78162 2.34367 9.58062 2.53067 9.49962 2.78067C9.41862 3.03067 9.47062 3.30017 9.63962 3.50167L10.4016 4.40867L10.3186 5.59067C10.3001 5.85267 10.4161 6.10117 10.6286 6.25567C10.7606 6.35167 10.9156 6.40117 11.0726 6.40117C11.1681 6.40117 11.2646 6.38267 11.3571 6.34517L12.4561 5.90117L13.5546 6.34517C13.7981 6.44417 14.0701 6.41017 14.2831 6.25617C14.4956 6.10167 14.6116 5.85317 14.5936 5.59067L14.5106 4.40867L15.2726 3.50117C15.4411 3.30017 15.4936 3.03067 15.4121 2.78067ZM13.7041 3.96917C13.6291 4.05867 13.5916 4.17367 13.6001 4.29067L13.6801 5.42567L12.6251 4.99917C12.5711 4.97717 12.5136 4.96617 12.4566 4.96617C12.3996 4.96617 12.3421 4.97717 12.2881 4.99917L11.2336 5.42567L11.3131 4.29067C11.3211 4.17417 11.2836 4.05867 11.2091 3.96917L10.4776 3.09817L11.5816 2.82267C11.6946 2.79417 11.7926 2.72367 11.8541 2.62467L12.4571 1.66017L13.0601 2.62467C13.1221 2.72367 13.2196 2.79467 13.3326 2.82267L14.4366 3.09817L13.7041 3.96917Z"
            fill="#8390A3" />
    </g>
    <defs>
        <clipPath id="clip0_16491_10923">
            <rect width="16" height="16" fill="white" />
        </clipPath>
    </defs>
</svg>