<svg width="100%" height="100%" viewBox="0 0 14 14" fill="none" xmlns="http://www.w3.org/2000/svg">
    <rect width="14" height="14" rx="2" fill="#8390A3" fill-opacity="0.2" />
    <path
        d="M10.836 6.48665C10.7551 6.37263 10.6485 6.28021 10.5251 6.21726C10.4017 6.1543 10.2652 6.12265 10.1273 6.12501H10.0359V5.54171C10.0359 5.42532 10.0132 5.3101 9.96901 5.20279C9.92485 5.09548 9.86017 4.99824 9.77873 4.91676C9.69729 4.83528 9.60075 4.7712 9.49474 4.72828C9.38874 4.68535 9.27541 4.66444 9.16139 4.66677H7.30954C7.24025 4.66635 7.173 4.64279 7.11807 4.59969L5.97496 3.68975C5.8185 3.5668 5.62658 3.50015 5.42912 3.50018H3.87448C3.76046 3.49785 3.64713 3.51876 3.54113 3.56169C3.43512 3.60461 3.33858 3.66869 3.25714 3.75017C3.1757 3.83165 3.11102 3.92889 3.06686 4.0362C3.02271 4.14351 2.99998 4.25873 3 4.37512V9.62478C2.99975 9.78623 3.04542 9.94428 3.13146 10.0798C3.21054 10.208 3.32013 10.3138 3.45005 10.3873C3.57996 10.4607 3.72597 10.4994 3.87448 10.4997H9.30428C9.49087 10.5045 9.67389 10.4469 9.82553 10.3359C9.97717 10.2248 10.0891 10.0663 10.1445 9.88435L10.9618 7.25952C11.0011 7.12958 11.0102 6.99208 10.9884 6.85792C10.9666 6.72376 10.9144 6.59664 10.836 6.48665ZM3.57156 4.37512C3.57149 4.3353 3.57941 4.29589 3.59483 4.25932C3.61025 4.22274 3.63285 4.18977 3.66123 4.16245C3.68961 4.13513 3.72317 4.11402 3.75985 4.10044C3.79652 4.08686 3.83554 4.08108 3.87448 4.08347H5.42912C5.49935 4.08347 5.56764 4.10704 5.62345 4.15055L6.76656 5.06049C6.92193 5.18342 7.11295 5.25011 7.30954 5.25006H9.16139C9.20033 5.24767 9.23935 5.25345 9.27602 5.26703C9.3127 5.28062 9.34626 5.30172 9.37464 5.32904C9.40302 5.35637 9.42562 5.38933 9.44104 5.42591C9.45646 5.46248 9.46438 5.50189 9.46431 5.54171V6.12501H4.89185C4.70671 6.12218 4.52565 6.18059 4.37574 6.29152C4.22584 6.40244 4.11515 6.55992 4.06024 6.74038L3.57156 8.32403V4.37512ZM10.4302 7.08453L9.61292 9.70936C9.59457 9.77136 9.55653 9.82536 9.50478 9.86286C9.45304 9.90035 9.39054 9.9192 9.32714 9.91643H3.89735C3.83289 9.91629 3.77004 9.89592 3.71731 9.8581L4.6318 6.91537C4.65014 6.85338 4.68819 6.79937 4.73993 6.76188C4.79167 6.72439 4.85417 6.70554 4.91758 6.7083H10.1273C10.1755 6.70796 10.223 6.71913 10.2662 6.7409C10.3094 6.76268 10.347 6.79446 10.3759 6.83371C10.4032 6.86852 10.4222 6.90922 10.4316 6.95269C10.441 6.99617 10.4406 7.04127 10.4302 7.08453Z"
        fill="white" />
</svg>