<svg width="100%" height="100%" viewBox="0 0 16 17" fill="none" xmlns="http://www.w3.org/2000/svg">
<path d="M13 7.40909C13 11.2273 8 14.5 8 14.5C8 14.5 3 11.2273 3 7.40909C3 6.10712 3.52678 4.85847 4.46447 3.93784C5.40215 3.01721 6.67392 2.5 8 2.5C9.32608 2.5 10.5979 3.01721 11.5355 3.93784C12.4732 4.85847 13 6.10712 13 7.40909Z" stroke="currentColor" stroke-linecap="round" stroke-linejoin="round"/>
<path d="M8 9.5C9.10457 9.5 10 8.60457 10 7.5C10 6.39543 9.10457 5.5 8 5.5C6.89543 5.5 6 6.39543 6 7.5C6 8.60457 6.89543 9.5 8 9.5Z" stroke="currentColor" stroke-linecap="round" stroke-linejoin="round"/>
</svg>
