<svg width="16" height="16" viewBox="0 0 16 16" fill="none" xmlns="http://www.w3.org/2000/svg">
    <path
        d="M6.66667 5.66816C6.78413 5.33424 7.01598 5.05267 7.32116 4.87332C7.62633 4.69396 7.98513 4.6284 8.33401 4.68824C8.68289 4.74809 8.99934 4.92947 9.2273 5.20027C9.45526 5.47107 9.58002 5.81381 9.57949 6.16778C9.57949 7.16704 8.08061 7.66667 8.08061 7.66667M8.09994 9.66667H8.1066M6.6 12.8L7.57333 14.0978C7.71808 14.2908 7.79045 14.3873 7.87918 14.4218C7.95689 14.452 8.04311 14.452 8.12082 14.4218C8.20955 14.3873 8.28192 14.2908 8.42667 14.0978L9.4 12.8C9.59543 12.5394 9.69315 12.4091 9.81234 12.3097C9.97126 12.177 10.1589 12.0832 10.3603 12.0357C10.5114 12 10.6743 12 11 12C11.9319 12 12.3978 12 12.7654 11.8478C13.2554 11.6448 13.6448 11.2554 13.8478 10.7654C14 10.3978 14 9.93188 14 9V5.2C14 4.07989 14 3.51984 13.782 3.09202C13.5903 2.71569 13.2843 2.40973 12.908 2.21799C12.4802 2 11.9201 2 10.8 2H5.2C4.0799 2 3.51984 2 3.09202 2.21799C2.71569 2.40973 2.40973 2.71569 2.21799 3.09202C2 3.51984 2 4.07989 2 5.2V9C2 9.93188 2 10.3978 2.15224 10.7654C2.35523 11.2554 2.74458 11.6448 3.23463 11.8478C3.60218 12 4.06812 12 5 12C5.32572 12 5.48858 12 5.63967 12.0357C5.84113 12.0832 6.02874 12.177 6.18766 12.3097C6.30685 12.4091 6.40457 12.5394 6.6 12.8Z"
        stroke="currentColor" stroke-width="1.1" stroke-linecap="round" stroke-linejoin="round" />
</svg>