<svg width="100%" height="100%" viewBox="0 0 16 16" fill="none" xmlns="http://www.w3.org/2000/svg">
    <g clip-path="url(#clip0_13132_13629)">
        <path
            d="M14.9389 11.3569L12.3125 9.88281L14.9389 8.40875C15.2577 8.22978 15.2573 7.76997 14.9389 7.59122L12.3126 6.11709L14.9388 4.64313C15.2577 4.46416 15.2573 4.00434 14.9388 3.82559L8.2295 0.06C8.08697 -0.02 7.91315 -0.02 7.77062 0.06L1.06128 3.82562C0.742402 4.00462 0.742871 4.46444 1.06128 4.64316L3.68762 6.11719L1.06125 7.59122C0.742371 7.77022 0.74284 8.23003 1.06125 8.40875L3.68762 9.88281L1.06125 11.3569C0.742371 11.5359 0.74284 11.9957 1.06125 12.1744L7.77062 15.94C7.91309 16.02 8.08697 16.02 8.2295 15.94L14.9389 12.1744C15.2577 11.9954 15.2573 11.5356 14.9389 11.3569ZM8.00006 1.00628L13.7517 4.23438L8.00006 7.46247L2.24843 4.23438L8.00006 1.00628ZM4.6454 6.65472L7.77065 8.40875C7.91312 8.48872 8.087 8.48875 8.22953 8.40875L11.3549 6.65462L13.7518 7.99997L8.00006 11.2281L2.24843 8L4.6454 6.65472ZM8.00006 14.9937L2.2484 11.7656L4.64537 10.4203L7.77062 12.1744C7.91309 12.2543 8.08697 12.2544 8.2295 12.1744L11.3547 10.4203L13.7517 11.7656L8.00006 14.9937Z"
            fill="currentColor" />
        <path
            d="M8 10.1484C8.25888 10.1484 8.46875 9.93857 8.46875 9.67969C8.46875 9.4208 8.25888 9.21094 8 9.21094C7.74112 9.21094 7.53125 9.4208 7.53125 9.67969C7.53125 9.93857 7.74112 10.1484 8 10.1484Z"
            fill="currentColor" />
        <path
            d="M6.2832 9.25C6.54209 9.25 6.75195 9.04013 6.75195 8.78125C6.75195 8.52237 6.54209 8.3125 6.2832 8.3125C6.02432 8.3125 5.81445 8.52237 5.81445 8.78125C5.81445 9.04013 6.02432 9.25 6.2832 9.25Z"
            fill="currentColor" />
        <path
            d="M4.56738 8.39062C4.82627 8.39062 5.03613 8.18076 5.03613 7.92188C5.03613 7.66299 4.82627 7.45312 4.56738 7.45312C4.3085 7.45312 4.09863 7.66299 4.09863 7.92188C4.09863 8.18076 4.3085 8.39062 4.56738 8.39062Z"
            fill="currentColor" />
        <path
            d="M9.7168 9.25C9.97568 9.25 10.1855 9.04013 10.1855 8.78125C10.1855 8.52237 9.97568 8.3125 9.7168 8.3125C9.45791 8.3125 9.24805 8.52237 9.24805 8.78125C9.24805 9.04013 9.45791 9.25 9.7168 9.25Z"
            fill="currentColor" />
        <path
            d="M11.4326 8.39062C11.6915 8.39062 11.9014 8.18076 11.9014 7.92188C11.9014 7.66299 11.6915 7.45312 11.4326 7.45312C11.1737 7.45312 10.9639 7.66299 10.9639 7.92188C10.9639 8.18076 11.1737 8.39062 11.4326 8.39062Z"
            fill="currentColor" />
    </g>
    <defs>
        <clipPath id="clip0_13132_13629">
            <rect width="16" height="16" fill="white" />
        </clipPath>
    </defs>
</svg>