<svg width="100%" height="100%" viewBox="0 0 16 16" fill="none" xmlns="http://www.w3.org/2000/svg">
    <rect width="16" height="16" rx="8" fill="#247EFE" />
    <g clip-path="url(#clip0_11331_126883)">
        <path
            d="M11.3456 9.1046V6.8954C11.7222 6.79163 12 6.44686 12 6.03682C12 5.54644 11.6 5.14644 11.1096 5.14644C10.8117 5.14644 10.5473 5.29372 10.3866 5.51799L8.8887 4.96569C8.89038 4.94059 8.89205 4.91548 8.89205 4.89038C8.89038 4.4 8.49038 4 8 4C7.50962 4 7.10962 4.4 7.10962 4.89038C7.10962 4.91548 7.1113 4.94059 7.11297 4.96569L5.61506 5.51799C5.45272 5.29205 5.18828 5.14477 4.89038 5.14477C4.4 5.14477 4 5.54477 4 6.03682C4 6.44686 4.27782 6.79163 4.65439 6.8954V9.1046C4.27782 9.20837 4 9.55481 4 9.96318C4 10.4536 4.4 10.8536 4.89038 10.8536C5.18828 10.8536 5.45272 10.7063 5.61339 10.482L7.1113 11.0343C7.10962 11.0594 7.10795 11.0845 7.10795 11.1096C7.10795 11.6 7.50795 12 7.99833 12C8.4887 12 8.8887 11.6 8.8887 11.1096C8.8887 11.0845 8.88703 11.0594 8.88536 11.0343L10.3833 10.482C10.5456 10.7079 10.8084 10.8536 11.1063 10.8536C11.5967 10.8536 11.9967 10.4536 11.9967 9.96318C12 9.55481 11.7222 9.20837 11.3456 9.1046ZM11.1096 10.3816C10.9389 10.3816 10.7916 10.2778 10.7264 10.1305C10.7247 10.1222 10.7213 10.1155 10.7197 10.1071C10.7163 10.0987 10.713 10.0921 10.7096 10.0837C10.6979 10.0452 10.6912 10.005 10.6912 9.96151C10.6912 9.73054 10.8787 9.5431 11.1096 9.5431C11.3406 9.5431 11.528 9.73054 11.528 9.96151C11.528 10.1925 11.3406 10.3816 11.1096 10.3816ZM4.89038 5.61674C5.06109 5.61674 5.20837 5.7205 5.27364 5.86778C5.27531 5.87615 5.27866 5.88285 5.28033 5.89121C5.28368 5.89958 5.28703 5.90628 5.29038 5.91464C5.30209 5.95314 5.30879 5.99331 5.30879 6.03682C5.30879 6.07866 5.30209 6.1205 5.29038 6.159C5.28703 6.16569 5.28368 6.17406 5.28033 6.18075C5.27699 6.18912 5.27531 6.19582 5.27364 6.20418C5.20837 6.35146 5.06109 6.45523 4.89038 6.45523C4.65941 6.45523 4.47197 6.26778 4.47197 6.03682C4.47197 5.80586 4.65941 5.61674 4.89038 5.61674ZM8.4 5.01255C8.39665 5.01925 8.39331 5.02762 8.38996 5.03431C8.38661 5.04268 8.38494 5.04937 8.38326 5.05774C8.31799 5.20502 8.17071 5.30879 8 5.30879C7.82929 5.30879 7.68201 5.20502 7.61674 5.05774C7.61506 5.04937 7.61172 5.04268 7.61004 5.03431C7.60669 5.02594 7.60335 5.01925 7.6 5.01255C7.58828 4.97406 7.58159 4.93389 7.58159 4.89038C7.58159 4.65941 7.76904 4.47197 8 4.47197C8.23096 4.47197 8.41841 4.65941 8.41841 4.89038C8.41841 4.93222 8.41172 4.97406 8.4 5.01255ZM8 5.78075C8.29791 5.78075 8.56234 5.63347 8.72301 5.4092L10.2209 5.96151C10.2192 5.98661 10.2176 6.01172 10.2176 6.03682C10.2176 6.06192 10.2192 6.08703 10.2209 6.11213L8.72301 6.66443C8.56067 6.43849 8.29791 6.29289 8 6.29289C7.70209 6.29289 7.43766 6.44017 7.27699 6.66443L5.77908 6.11213C5.78075 6.08703 5.78243 6.06192 5.78243 6.03682C5.78243 6.01172 5.78075 5.98661 5.77908 5.96151L7.27699 5.4092C7.43766 5.63347 7.70209 5.78075 8 5.78075ZM8.41841 7.18159C8.41841 7.41255 8.23096 7.6 8 7.6C7.76904 7.6 7.58159 7.41255 7.58159 7.18159C7.58159 7.13975 7.58828 7.09791 7.6 7.05941C7.60335 7.05272 7.60669 7.04435 7.61004 7.03598C7.61339 7.02761 7.61506 7.02092 7.61674 7.01255C7.68201 6.86527 7.82929 6.76151 8 6.76151C8.17071 6.76151 8.31799 6.86527 8.38326 7.01255C8.38494 7.02092 8.38828 7.02761 8.38996 7.03598C8.39331 7.04435 8.39665 7.05105 8.4 7.05941C8.41172 7.09791 8.41841 7.13975 8.41841 7.18159ZM11.1096 6.45523C10.9389 6.45523 10.7916 6.35146 10.7264 6.20418C10.7247 6.19582 10.7213 6.18912 10.7197 6.18075C10.7163 6.17238 10.713 6.16569 10.7096 6.15732C10.6979 6.11883 10.6912 6.07866 10.6912 6.03515C10.6912 5.99331 10.6979 5.95146 10.7096 5.91297C10.713 5.90628 10.7163 5.89791 10.7197 5.88954C10.723 5.88117 10.7247 5.87448 10.7264 5.86611C10.7916 5.71883 10.9389 5.61506 11.1096 5.61506C11.3406 5.61506 11.528 5.80251 11.528 6.03347C11.528 6.26444 11.3406 6.45523 11.1096 6.45523ZM4.89038 9.54477C5.12134 9.54477 5.30879 9.73222 5.30879 9.96318C5.30879 10.005 5.30209 10.0469 5.29038 10.0854C5.28703 10.0921 5.28368 10.1004 5.28033 10.1071C5.27699 10.1155 5.27531 10.1222 5.27364 10.1305C5.20837 10.2778 5.06109 10.3816 4.89038 10.3816C4.65941 10.3816 4.47197 10.1941 4.47197 9.96318C4.47197 9.73222 4.65941 9.54477 4.89038 9.54477ZM5.12636 9.1046V6.8954C5.32552 6.84017 5.49623 6.71799 5.61339 6.55565L7.1113 7.10795C7.10962 7.13305 7.10795 7.15816 7.10795 7.18326C7.10795 7.59331 7.38577 7.93808 7.76234 8.04184V10.2527C7.56318 10.3079 7.39247 10.4301 7.27531 10.5925L5.77741 10.0402C5.77908 10.0151 5.78075 9.98996 5.78075 9.96485C5.78075 9.55481 5.50293 9.20837 5.12636 9.1046ZM7.59833 10.9874C7.60167 10.9808 7.60502 10.9724 7.60837 10.964C7.61172 10.9556 7.61339 10.949 7.61506 10.9406C7.68033 10.7933 7.82761 10.6895 7.99833 10.6895C8.16904 10.6895 8.31632 10.7933 8.38159 10.9406C8.38326 10.949 8.38661 10.9556 8.38828 10.964C8.39163 10.9724 8.39498 10.9791 8.39833 10.9874C8.41004 11.0259 8.41674 11.0661 8.41674 11.1096C8.41674 11.3406 8.22929 11.528 7.99833 11.528C7.76736 11.528 7.57992 11.3406 7.57992 11.1096C7.58159 11.0661 7.58828 11.0259 7.59833 10.9874ZM8.23598 10.251V8.04017C8.61255 7.9364 8.89038 7.59163 8.89038 7.18159C8.89038 7.15649 8.8887 7.13138 8.88703 7.10628L10.3849 6.55397C10.5021 6.71799 10.6728 6.84017 10.872 6.89372V9.1046C10.4954 9.20837 10.2176 9.55314 10.2176 9.96318C10.2176 9.98828 10.2192 10.0134 10.2209 10.0385L8.72301 10.5908C8.60586 10.4268 8.43515 10.3046 8.23598 10.251Z"
            fill="white" />
    </g>
    <defs>
        <clipPath id="clip0_11331_126883">
            <rect width="8" height="8" fill="white" transform="translate(4 4)" />
        </clipPath>
    </defs>
</svg>