<svg width="100%" height="100%" viewBox="0 0 16 16" fill="none" xmlns="http://www.w3.org/2000/svg">
    <path fill-rule="evenodd" clip-rule="evenodd"
        d="M2.21021 4.09393C2.32237 3.84159 2.61785 3.72794 2.87019 3.84009L8.00046 6.12021L13.1307 3.84009C13.3831 3.72794 13.6785 3.84159 13.7907 4.09393C13.9029 4.34627 13.7892 4.64175 13.5369 4.7539L8.20353 7.12425C8.07426 7.18172 7.92666 7.18172 7.79739 7.12425L2.46405 4.7539C2.21171 4.64175 2.09806 4.34627 2.21021 4.09393Z"
        fill="currentColor" />
    <path fill-rule="evenodd" clip-rule="evenodd"
        d="M6.71387 1.35887C7.53267 0.994961 8.46733 0.994961 9.28613 1.35887L12.6195 2.84035C13.763 3.3486 14.5 4.48265 14.5 5.73408V10.2681C14.5 11.5195 13.763 12.6536 12.6195 13.1618L9.28613 14.6433C8.46733 15.0072 7.53267 15.0072 6.71387 14.6433L3.38056 13.1618C2.23699 12.6536 1.5 11.5195 1.5 10.2681V5.73408C1.5 4.48265 2.23699 3.3486 3.38056 2.84035L6.71387 1.35887ZM8.88 2.27268C8.31973 2.02369 7.68027 2.02369 7.12 2.27268L3.7867 3.75416C3.00425 4.10191 2.5 4.87784 2.5 5.73408V10.2681C2.5 11.1244 3.00426 11.9002 3.7867 12.248L7.12 13.7295C7.68027 13.9785 8.31973 13.9785 8.88 13.7295L12.2133 12.248C12.9957 11.9002 13.5 11.1244 13.5 10.2681V5.73408C13.5 4.87784 12.9957 4.10191 12.2133 3.75416L8.88 2.27268Z"
        fill="currentColor" />
    <path fill-rule="evenodd" clip-rule="evenodd"
        d="M8 6.16406C8.27613 6.16406 8.5 6.38792 8.5 6.66406V13.9974C8.5 14.2735 8.27613 14.4974 8 14.4974C7.72387 14.4974 7.5 14.2735 7.5 13.9974V6.66406C7.5 6.38792 7.72387 6.16406 8 6.16406Z"
        fill="currentColor" />
</svg>