<svg width="100%" height="100%" viewBox="0 0 16 17" fill="none" xmlns="http://www.w3.org/2000/svg">
<path d="M3.86339 12.4999C3.56384 12.4353 3.3054 12.356 3.08808 12.262C2.87075 12.168 2.69161 12.0506 2.55064 11.9096C2.40967 11.7745 2.30395 11.61 2.23346 11.4162C2.16885 11.2282 2.13655 11.0109 2.13655 10.7642L2.14536 9.92723C2.14536 9.61593 2.07781 9.38392 1.94272 9.23121C1.80762 9.07262 1.61379 8.99039 1.36123 8.98452H1V8.01537H1.37885C1.63142 8.00949 1.82231 7.9302 1.95153 7.77749C2.08075 7.62477 2.14536 7.38983 2.14536 7.07265L2.13655 6.23566C2.13655 5.75402 2.27164 5.37811 2.54183 5.10792C2.81789 4.83186 3.25841 4.62922 3.86339 4.5L4.1189 5.38104C3.8957 5.4574 3.71949 5.53376 3.59027 5.61012C3.46692 5.68647 3.37882 5.78926 3.32596 5.91848C3.27897 6.04183 3.25547 6.21216 3.25547 6.42949L3.27309 7.196C3.27309 7.53667 3.17618 7.82154 2.98235 8.05061C2.79439 8.27968 2.50071 8.44414 2.10131 8.54399V8.44708C2.50071 8.55868 2.79439 8.72901 2.98235 8.95808C3.17618 9.18716 3.27309 9.46909 3.27309 9.80389L3.25547 10.5704C3.25547 10.776 3.27897 10.9375 3.32596 11.055C3.37882 11.1783 3.46692 11.2782 3.59027 11.3545C3.71949 11.4309 3.8957 11.5072 4.1189 11.5836L3.86339 12.4999Z" fill="currentColor"/>
<path d="M5.05191 12.3765V4.53524H7.55408V5.57487H6.17965L6.23251 5.50439V11.4426L6.1444 11.3369H7.55408V12.3765H5.05191Z" fill="currentColor"/>
<path d="M8.43567 12.3765V11.3369H9.8101L9.75724 11.4074V5.46915L9.84534 5.57487H8.43567V4.53524H10.9378V12.3765H8.43567Z" fill="currentColor"/>
<path d="M12.1366 12.4999L11.8723 11.6188C12.0955 11.5425 12.2688 11.4661 12.3921 11.3898C12.5155 11.3134 12.6036 11.2106 12.6564 11.0814C12.7152 10.9581 12.7445 10.7877 12.7445 10.5704L12.7269 9.80389C12.7269 9.46322 12.8209 9.17835 13.0088 8.94927C13.2027 8.7202 13.4964 8.55574 13.8899 8.45589L13.8987 8.5528C13.4993 8.44121 13.2027 8.27087 13.0088 8.0418C12.8209 7.81273 12.7269 7.53079 12.7269 7.196L12.7445 6.42949C12.7445 6.21804 12.7181 6.05358 12.6652 5.9361C12.6124 5.81863 12.5243 5.72171 12.4009 5.64536C12.2776 5.569 12.1014 5.49264 11.8723 5.41629L12.1366 4.5C12.4362 4.55874 12.6917 4.63803 12.9031 4.73788C13.1204 4.83186 13.2996 4.94933 13.4406 5.0903C13.5874 5.22539 13.6931 5.38986 13.7577 5.58368C13.8282 5.77164 13.8635 5.98897 13.8635 6.23566L13.8546 7.07265C13.8546 7.38395 13.9222 7.6189 14.0573 7.77749C14.1924 7.9302 14.3862 8.00949 14.6388 8.01537H15V8.98452H14.6212C14.3686 8.99039 14.1777 9.06968 14.0485 9.2224C13.9193 9.37511 13.8546 9.61006 13.8546 9.92723L13.8635 10.7642C13.8635 11.2459 13.7254 11.6218 13.4494 11.892C13.1733 12.168 12.7357 12.3707 12.1366 12.4999Z" fill="currentColor"/>
</svg>
