<svg width="12" height="13" viewBox="0 0 12 13" fill="none" xmlns="http://www.w3.org/2000/svg">
    <circle cx="6" cy="6.5" r="6" fill="#FFCE73" />
    <path
        d="M6.0013 7.33073C6.46154 7.33073 6.83464 6.95763 6.83464 6.4974C6.83464 6.03716 6.46154 5.66406 6.0013 5.66406C5.54106 5.66406 5.16797 6.03716 5.16797 6.4974C5.16797 6.95763 5.54106 7.33073 6.0013 7.33073Z"
        fill="#082247" />
    <path
        d="M10.1423 6.3533C9.47099 4.65934 7.82261 3.55656 6.00066 3.58248C4.17871 3.55656 2.53033 4.65934 1.85899 6.3533C1.82565 6.44767 1.82565 6.55062 1.85899 6.64497C2.53033 8.33892 4.17871 9.4417 6.00066 9.41581C7.82261 9.4417 9.47099 8.33892 10.1423 6.64497C10.1757 6.55059 10.1757 6.44767 10.1423 6.3533ZM6.00157 8.16581H6.00066C5.08017 8.16581 4.33399 7.41961 4.33399 6.49914C4.33399 5.57866 5.08017 4.83248 6.00066 4.83248C6.92114 4.83248 7.66732 5.57866 7.66732 6.49914C7.66758 7.41935 6.92181 8.16556 6.00157 8.16581Z"
        fill="#082247" />
</svg>