<svg width="16" height="16" viewBox="0 0 16 16" fill="none" xmlns="http://www.w3.org/2000/svg">
    <path
        d="M6.68527 6.29949H3.61421C3.24568 6.29949 3 6.0538 3 5.68527V2.61421C3 2.24568 3.24568 2 3.61421 2C3.98274 2 4.22842 2.24568 4.22842 2.61421V5.07106H6.68527C7.0538 5.07106 7.29949 5.31675 7.29949 5.68527C7.29949 6.0538 7.0538 6.29949 6.68527 6.29949Z"
        fill="#8390A3" />
    <path
        d="M7.91351 13.6705C7.23787 13.6705 6.56224 13.5477 5.94803 13.302C4.84245 12.872 3.92113 12.135 3.24549 11.1522C3.06123 10.8451 3.12265 10.4766 3.42976 10.2923C3.73686 10.1081 4.10539 10.1695 4.28965 10.4766C4.78102 11.2137 5.51808 11.8279 6.37798 12.135C7.23787 12.4421 8.15919 12.5035 9.08051 12.2578C9.94041 12.0121 10.7389 11.4594 11.2917 10.7223C11.8445 9.98524 12.1516 9.12534 12.213 8.20403C12.213 7.28271 11.9673 6.36139 11.4145 5.62433C10.8617 4.88728 10.1247 4.33449 9.26477 4.02738C8.40488 3.72028 7.48356 3.72028 6.56224 4.02738C5.70234 4.33449 4.96529 4.88728 4.4125 5.62433C4.22823 5.93144 3.85971 5.99286 3.5526 5.8086C3.24549 5.62433 3.18407 5.19439 3.42976 4.9487C4.10539 3.96596 5.08813 3.22891 6.19371 2.86038C7.29929 2.49185 8.52772 2.49185 9.6333 2.86038C10.7389 3.22891 11.7216 3.96596 12.3973 4.9487C13.0729 5.93144 13.4414 7.03702 13.38 8.26545C13.38 9.43245 12.95 10.5995 12.213 11.5208C11.4759 12.4421 10.4932 13.1177 9.32619 13.4862C8.95767 13.6091 8.40488 13.6705 7.91351 13.6705Z"
        fill="#8390A3" />
</svg>