<svg width="100%" height="100%" viewBox="0 0 16 16" fill="none" xmlns="http://www.w3.org/2000/svg">
    <rect width="16" height="16" rx="8" fill="#01CD8C" />
    <g clip-path="url(#clip0_11331_126760)">
        <path
            d="M10.7723 5.66094L9.26602 4.23438C9.10508 4.08281 8.8957 4 8.67539 4H5.80664C5.3332 4 4.94727 4.38594 4.94727 4.85938V11.1406C4.94727 11.6141 5.3332 12 5.80664 12H10.1816C10.6551 12 11.041 11.6141 11.041 11.1406V6.28437C11.041 6.05 10.9426 5.82188 10.7723 5.66094ZM10.3176 5.875H9.15039C9.10664 5.875 9.07227 5.84063 9.07227 5.79688V4.69687L10.3176 5.875ZM10.1816 11.5312H5.80664C5.59102 11.5312 5.41602 11.3562 5.41602 11.1406V4.85938C5.41602 4.64375 5.59102 4.46875 5.80664 4.46875H8.60352V5.79688C8.60352 6.09844 8.84883 6.34375 9.15039 6.34375H10.5723V11.1406C10.5723 11.3562 10.3973 11.5312 10.1816 11.5312Z"
            fill="white" />
        <path
            d="M9.66602 7.125H6.22852C6.09883 7.125 5.99414 7.22969 5.99414 7.35938C5.99414 7.48906 6.09883 7.59375 6.22852 7.59375H9.66602C9.7957 7.59375 9.90039 7.48906 9.90039 7.35938C9.90039 7.22969 9.7957 7.125 9.66602 7.125Z"
            fill="white" />
        <path
            d="M9.66602 8.375H6.22852C6.09883 8.375 5.99414 8.47969 5.99414 8.60938C5.99414 8.73906 6.09883 8.84375 6.22852 8.84375H9.66602C9.7957 8.84375 9.90039 8.73906 9.90039 8.60938C9.90039 8.47969 9.7957 8.375 9.66602 8.375Z"
            fill="white" />
        <path
            d="M7.36445 9.625H6.22852C6.09883 9.625 5.99414 9.72969 5.99414 9.85938C5.99414 9.98906 6.09883 10.0938 6.22852 10.0938H7.36445C7.49414 10.0938 7.59883 9.98906 7.59883 9.85938C7.59883 9.72969 7.49414 9.625 7.36445 9.625Z"
            fill="white" />
    </g>
    <defs>
        <clipPath id="clip0_11331_126760">
            <rect width="8" height="8" fill="white" transform="translate(4 4)" />
        </clipPath>
    </defs>
</svg>