<svg width="100%" height="100%" viewBox="0 0 16 16" fill="none" xmlns="http://www.w3.org/2000/svg">
    <path
        d="M14.9459 3.20159C14.9296 2.34608 14.1459 1.58527 12.732 1.05955C11.4651 0.589349 9.7867 0.328125 8.01364 0.328125C6.23731 0.328125 4.56221 0.589349 3.292 1.05955C1.87813 1.58527 1.09119 2.34935 1.07812 3.20486C1.07812 3.21139 1.07812 3.22119 1.07812 3.22772V13.0889C1.07812 13.9575 1.86506 14.7249 3.292 15.2571C4.56221 15.7306 6.23731 15.9885 8.01364 15.9885C9.78996 15.9885 11.4651 15.7273 12.7353 15.2571C14.1622 14.7281 14.9491 13.9575 14.9491 13.0889V3.22772C14.9459 3.22119 14.9459 3.21139 14.9459 3.20159ZM13.9271 13.0889C13.9271 13.8563 11.6218 14.9698 8.01037 14.9698C4.39894 14.9698 2.09364 13.8563 2.09364 13.0889V11.3747C2.42017 11.5967 2.81853 11.7959 3.28874 11.9722C4.56221 12.4424 6.23731 12.7036 8.01364 12.7036C9.78996 12.7036 11.4683 12.4424 12.7353 11.9722C13.2055 11.7959 13.6038 11.5967 13.9304 11.3747V13.0889H13.9271ZM13.9271 9.78772C13.9271 9.79098 13.9271 9.79751 13.9271 9.80078C13.9271 10.5681 11.6218 11.6816 8.01037 11.6816C4.39894 11.6816 2.09364 10.5681 2.09364 9.80078V8.08649C2.42017 8.30853 2.81853 8.50772 3.28874 8.68404C4.55894 9.15751 6.23404 9.41547 8.01037 9.41547C9.7867 9.41547 11.4618 9.15425 12.732 8.68404C13.2022 8.51098 13.6006 8.30853 13.9271 8.08649V9.78772ZM13.9271 6.50282C13.9271 6.50608 13.9271 6.51261 13.9271 6.51588C13.9271 7.28323 11.6218 8.3967 8.01037 8.3967C4.39894 8.3967 2.09364 7.28323 2.09364 6.51588V4.80159C2.42017 5.02363 2.81853 5.22282 3.28874 5.39588C4.55894 5.86935 6.23404 6.12731 8.01037 6.12731C9.7867 6.12731 11.4618 5.86608 12.732 5.39588C13.1989 5.22282 13.6006 5.02037 13.9271 4.80159V6.50282ZM8.01364 5.10853C4.40221 5.10853 2.0969 3.99506 2.0969 3.22772C2.0969 2.46037 4.40221 1.3469 8.01364 1.3469C11.6251 1.3469 13.9304 2.46037 13.9304 3.22772C13.9271 3.99506 11.6251 5.10853 8.01364 5.10853Z"
        fill="currentColor" />
</svg>