<svg width="100%" height="100%" viewBox="0 0 16 16" fill="none" xmlns="http://www.w3.org/2000/svg">
    <rect width="16" height="16" rx="8" fill="#FF754C" />
    <g clip-path="url(#clip0_11331_126664)">
        <path
            d="M11.4729 5.6008C11.4648 5.17304 11.0729 4.79263 10.366 4.52978C9.73253 4.29467 8.89335 4.16406 8.00682 4.16406C7.11865 4.16406 6.2811 4.29467 5.646 4.52978C4.93906 4.79263 4.54559 5.17467 4.53906 5.60243C4.53906 5.6057 4.53906 5.61059 4.53906 5.61386V10.5445C4.53906 10.9788 4.93253 11.3624 5.646 11.6286C6.2811 11.8653 7.11865 11.9943 8.00682 11.9943C8.89498 11.9943 9.73253 11.8637 10.3676 11.6286C11.0811 11.3641 11.4746 10.9788 11.4746 10.5445V5.61386C11.4729 5.61059 11.4729 5.6057 11.4729 5.6008ZM10.9636 10.5445C10.9636 10.9281 9.8109 11.4849 8.00519 11.4849C6.19947 11.4849 5.04682 10.9281 5.04682 10.5445V9.68733C5.21008 9.79835 5.40927 9.89794 5.64437 9.9861C6.2811 10.2212 7.11865 10.3518 8.00682 10.3518C8.89498 10.3518 9.73416 10.2212 10.3676 9.9861C10.6027 9.89794 10.8019 9.79835 10.9652 9.68733V10.5445H10.9636ZM10.9636 8.89386C10.9636 8.89549 10.9636 8.89876 10.9636 8.90039C10.9636 9.28406 9.8109 9.8408 8.00519 9.8408C6.19947 9.8408 5.04682 9.28406 5.04682 8.90039V8.04325C5.21008 8.15427 5.40927 8.25386 5.64437 8.34202C6.27947 8.57876 7.11702 8.70774 8.00519 8.70774C8.89335 8.70774 9.7309 8.57712 10.366 8.34202C10.6011 8.25549 10.8003 8.15427 10.9636 8.04325V8.89386ZM10.9636 7.25141C10.9636 7.25304 10.9636 7.25631 10.9636 7.25794C10.9636 7.64161 9.8109 8.19835 8.00519 8.19835C6.19947 8.19835 5.04682 7.64161 5.04682 7.25794V6.4008C5.21008 6.51182 5.40927 6.61141 5.64437 6.69794C6.27947 6.93467 7.11702 7.06365 8.00519 7.06365C8.89335 7.06365 9.7309 6.93304 10.366 6.69794C10.5995 6.61141 10.8003 6.51018 10.9636 6.4008V7.25141ZM8.00682 6.55427C6.2011 6.55427 5.04845 5.99753 5.04845 5.61386C5.04845 5.23018 6.2011 4.67345 8.00682 4.67345C9.81253 4.67345 10.9652 5.23018 10.9652 5.61386C10.9636 5.99753 9.81253 6.55427 8.00682 6.55427Z"
            fill="white" />
    </g>
    <defs>
        <clipPath id="clip0_11331_126664">
            <rect width="8" height="8" fill="white" transform="translate(4 4)" />
        </clipPath>
    </defs>
</svg>