<svg width="40" height="40" viewBox="0 0 40 40" fill="none" xmlns="http://www.w3.org/2000/svg">
<path d="M23.4167 20C23.4167 25.1086 19.2753 29.25 14.1667 29.25C9.05802 29.25 4.91666 25.1086 4.91666 20C4.91666 14.8914 9.05802 10.75 14.1667 10.75C19.2753 10.75 23.4167 14.8914 23.4167 20Z" stroke="black" stroke-width="1.5" stroke-linecap="round" stroke-linejoin="round"/>
<path d="M35.0833 20C35.0833 25.1086 30.9419 29.25 25.8333 29.25C20.7247 29.25 16.5833 25.1086 16.5833 20C16.5833 14.8914 20.7247 10.75 25.8333 10.75C30.9419 10.75 35.0833 14.8914 35.0833 20Z" stroke="black" stroke-width="1.5" stroke-linecap="round" stroke-linejoin="round"/>
<path d="M24 20C24 16.6982 22.416 13.7906 20 12C17.584 13.7906 16 16.6982 16 20C16 23.3018 17.584 26.2094 20 28C22.416 26.2094 24 23.3018 24 20Z" fill="black"/>
</svg>
