<svg width="40" height="40" viewBox="0 0 40 40" fill="none" xmlns="http://www.w3.org/2000/svg">
<path d="M25.8333 10C23.65 10 21.65 10.7 20 11.8833C18.35 10.7 16.35 10 14.1667 10C8.64999 10 4.16666 14.4833 4.16666 20C4.16666 25.5167 8.64999 30 14.1667 30C16.35 30 18.35 29.3 20 28.1167C21.65 29.3 23.65 30 25.8333 30C31.35 30 35.8333 25.5167 35.8333 20C35.8333 14.4833 31.35 10 25.8333 10Z" fill="black"/>
<path d="M24 20C24 16.7093 22.4199 13.7989 20 12C17.5801 13.7843 16 16.6947 16 20C16 23.3053 17.5801 26.2011 20 28C22.4199 26.2157 24 23.3053 24 20Z" fill="white"/>
</svg>
