<svg width="40" height="40" viewBox="0 0 40 40" fill="none" xmlns="http://www.w3.org/2000/svg">
<path d="M18.5833 11.9833C17.2833 11.25 15.7667 10.8333 14.1667 10.8333C9.11667 10.8333 5 14.95 5 20C5 25.05 9.11667 29.1667 14.1667 29.1667C15.7667 29.1667 17.2833 28.75 18.5833 28.0167C18.8333 27.8833 19.0833 27.7333 19.3167 27.5833C19.55 27.4167 19.7833 27.25 20 27.0667C22.0333 25.3833 23.3333 22.8333 23.3333 20C23.3333 17.1667 22.0333 14.6167 20 12.9333C19.7833 12.75 19.55 12.5833 19.3167 12.4167C19.0833 12.2667 18.8333 12.1167 18.5833 11.9833Z" fill="black"/>
<path d="M20 27.0667C19.7833 27.25 19.55 27.4167 19.3167 27.5833C19.0833 27.7333 18.8333 27.8833 18.5833 28.0167C17.2833 28.75 15.7667 29.1667 14.1667 29.1667C9.11668 29.1667 5.00001 25.05 5.00001 20C5.00001 14.95 9.11668 10.8333 14.1667 10.8333C15.7667 10.8333 17.2833 11.25 18.5833 11.9833C18.8333 12.1167 19.0833 12.2667 19.3167 12.4167C19.55 12.5833 19.7833 12.75 20 12.9333C20.2167 12.75 20.45 12.5833 20.6833 12.4167C20.9167 12.2667 21.1667 12.1167 21.4167 11.9833C21.2 11.7667 20.9667 11.5833 20.7333 11.4C20.5 11.2167 20.25 11.05 20 10.8833C18.3167 9.80001 16.3167 9.16667 14.1667 9.16667C8.20001 9.16667 3.33334 14.0333 3.33334 20C3.33334 25.9667 8.20001 30.8333 14.1667 30.8333C16.3167 30.8333 18.3167 30.2 20 29.1167C20.25 28.95 20.5 28.7833 20.7333 28.6C20.9667 28.4167 21.2 28.2333 21.4167 28.0167C21.1667 27.8833 20.9167 27.7333 20.6833 27.5833C20.45 27.4167 20.2167 27.25 20 27.0667Z" fill="white"/>
<path d="M25.8333 9.16667C23.6833 9.16667 21.6833 9.80001 20 10.8833C19.75 11.05 19.5 11.2167 19.2667 11.4C19.0333 11.5833 18.8 11.7667 18.5833 11.9833C16.3833 13.95 15 16.8167 15 20C15 23.1833 16.3833 26.05 18.5833 28.0167C18.8 28.2333 19.0333 28.4167 19.2667 28.6C19.5 28.7833 19.75 28.95 20 29.1167C21.6833 30.2 23.6833 30.8333 25.8333 30.8333C31.8 30.8333 36.6667 25.9667 36.6667 20C36.6667 14.0333 31.8 9.16667 25.8333 9.16667ZM20 27.0667C22.0333 25.3833 23.3333 22.8333 23.3333 20C23.3333 17.1667 22.0333 14.6167 20 12.9333C20.2167 12.75 20.45 12.5833 20.6833 12.4167C20.9167 12.2667 21.1667 12.1167 21.4167 11.9833C23.6167 13.95 25 16.8167 25 20C25 23.1833 23.6167 26.05 21.4167 28.0167C21.1667 27.8833 20.9167 27.7333 20.6833 27.5833C20.45 27.4167 20.2167 27.25 20 27.0667Z" fill="white"/>
</svg>
