<svg width="100%" height="100%" viewBox="0 0 24 24" fill="none" xmlns="http://www.w3.org/2000/svg">
<path d="M18.54 3.24828H5.46C4.24 3.24828 3.25 4.23828 3.25 5.45828C3.25 5.98828 3.44 6.49828 3.78 6.89828L8.95 12.9283C9.14 13.1583 9.25 13.4483 9.25 13.7383V19.3783C9.25 19.9883 9.56 20.5483 10.08 20.8683C10.36 21.0383 10.68 21.1283 11 21.1283C11.27 21.1283 11.53 21.0683 11.78 20.9383L13.78 19.9383C14.38 19.6383 14.75 19.0383 14.75 18.3683V13.7283C14.75 13.4283 14.86 13.1383 15.05 12.9183L20.22 6.88828C20.56 6.48828 20.75 5.97828 20.75 5.44828C20.75 4.22828 19.76 3.23828 18.54 3.23828V3.24828ZM19.08 5.91828L13.91 11.9483C13.48 12.4483 13.25 13.0783 13.25 13.7383V18.3783C13.25 18.4783 13.2 18.5583 13.11 18.5983L11.11 19.5983C11 19.6583 10.91 19.6183 10.87 19.5883C10.83 19.5583 10.75 19.4983 10.75 19.3783V13.7383C10.75 13.0783 10.52 12.4483 10.09 11.9483L4.92 5.91828C4.81 5.78828 4.75 5.62828 4.75 5.45828C4.75 5.06828 5.07 4.74828 5.46 4.74828H18.54C18.93 4.74828 19.25 5.06828 19.25 5.45828C19.25 5.62828 19.19 5.78828 19.08 5.91828Z" fill="#247EFE"/>
</svg>
