<svg width="40" height="40" viewBox="0 0 40 40" fill="none" xmlns="http://www.w3.org/2000/svg">
<g clip-path="url(#clip0_20121_22674)">
<path d="M40 23.6627C40 28.0505 38.6035 32.2156 35.9616 35.7083C35.4404 36.3977 34.4601 36.5314 33.7729 36.0117C33.0847 35.491 32.9489 34.5111 33.4692 33.8229C35.6973 30.8777 36.875 27.3642 36.875 23.6627C36.875 14.3359 29.3216 6.79688 20 6.79688C10.672 6.79688 3.125 14.3417 3.125 23.6627C3.125 27.3642 4.30267 30.8777 6.53046 33.8229C7.05109 34.5111 6.91528 35.491 6.22711 36.0117C5.53864 36.5323 4.55902 36.3965 4.03809 35.7083C1.39648 32.2156 0 28.0505 0 23.6627C0 12.608 8.95142 3.67188 20 3.67188C31.0547 3.67188 40 12.6141 40 23.6627ZM29.9002 14.2526C30.5103 14.8627 30.5103 15.8521 29.9002 16.4621L24.8071 21.5552C25.2264 22.3282 25.4651 23.2132 25.4651 24.1525C25.4651 27.1661 23.0133 29.6176 20 29.6176C16.9864 29.6176 14.5349 27.1661 14.5349 24.1525C14.5349 21.1392 16.9864 18.6874 20 18.6874C20.9396 18.6874 21.8243 18.9261 22.5974 19.3454L27.6904 14.2523C28.3008 13.6423 29.2899 13.6423 29.9002 14.2526ZM22.3401 24.1528C22.3401 22.8625 21.2903 21.8127 20 21.8127C18.7097 21.8127 17.6599 22.8625 17.6599 24.1528C17.6599 25.4431 18.7097 26.4929 20 26.4929C21.2903 26.4929 22.3401 25.4431 22.3401 24.1528Z" fill="white"/>
</g>
<defs>
<clipPath id="clip0_20121_22674">
<rect width="40" height="40" fill="white"/>
</clipPath>
</defs>
</svg>
