<svg width="100%" height="100%" viewBox="0 0 24 24" fill="none" xmlns="http://www.w3.org/2000/svg">
<path d="M12 16.24C11.87 16.35 11.73 16.45 11.59 16.55C11.45 16.64 11.3 16.73 11.15 16.81C10.37 17.25 9.46 17.5 8.5 17.5C5.47 17.5 3 15.03 3 12C3 8.97 5.47 6.5 8.5 6.5C9.46 6.5 10.37 6.75 11.15 7.19C11.3 7.27 11.45 7.36 11.59 7.45C11.73 7.55 11.87 7.65 12 7.76C12.13 7.65 12.27 7.55 12.41 7.45C12.55 7.36 12.7 7.27 12.85 7.19C12.72 7.06 12.58 6.95 12.44 6.84C12.3 6.73 12.15 6.63 12 6.53C10.99 5.88 9.79 5.5 8.5 5.5C4.92 5.5 2 8.42 2 12C2 15.58 4.92 18.5 8.5 18.5C9.79 18.5 10.99 18.12 12 17.47C12.15 17.37 12.3 17.27 12.44 17.16C12.58 17.05 12.72 16.94 12.85 16.81C12.7 16.73 12.55 16.64 12.41 16.55C12.27 16.45 12.13 16.35 12 16.24Z" fill="#247EFE"/>
<path d="M15.5 5.5C14.21 5.5 13.01 5.88 12 6.53C11.85 6.63 11.7 6.73 11.56 6.84C11.42 6.95 11.28 7.06 11.15 7.19C9.83 8.37 9 10.09 9 12C9 13.91 9.83 15.63 11.15 16.81C11.28 16.94 11.42 17.05 11.56 17.16C11.7 17.27 11.85 17.37 12 17.47C13.01 18.12 14.21 18.5 15.5 18.5C19.08 18.5 22 15.58 22 12C22 8.42 19.08 5.5 15.5 5.5ZM12 16.24C13.22 15.23 14 13.7 14 12C14 10.3 13.22 8.77 12 7.76C12.13 7.65 12.27 7.55 12.41 7.45C12.55 7.36 12.7 7.27 12.85 7.19C14.17 8.37 15 10.09 15 12C15 13.91 14.17 15.63 12.85 16.81C12.7 16.73 12.55 16.64 12.41 16.55C12.27 16.45 12.13 16.35 12 16.24Z" fill="#247EFE"/>
</svg>
