<svg width="100%" height="100%" viewBox="0 0 24 24" fill="none" xmlns="http://www.w3.org/2000/svg">
<path d="M13.75 12C13.75 14.8995 11.3995 17.25 8.5 17.25C5.60051 17.25 3.25 14.8995 3.25 12C3.25 9.10051 5.60051 6.75 8.5 6.75C11.3995 6.75 13.75 9.10051 13.75 12Z" stroke="#247EFE" stroke-width="1.5" stroke-linecap="round" stroke-linejoin="round"/>
<path d="M20.75 12C20.75 14.8995 18.3995 17.25 15.5 17.25C12.6005 17.25 10.25 14.8995 10.25 12C10.25 9.10051 12.6005 6.75 15.5 6.75C18.3995 6.75 20.75 9.10051 20.75 12Z" stroke="#247EFE" stroke-width="1.5" stroke-linecap="round" stroke-linejoin="round"/>
<path d="M14.4001 11.9992C14.4001 10.0181 13.4497 8.27355 12.0001 7.19922C10.5505 8.27355 9.6001 10.0181 9.6001 11.9992C9.6001 13.9803 10.5505 15.7249 12.0001 16.7992C13.4497 15.7249 14.4001 13.9803 14.4001 11.9992Z" fill="#247EFE"/>
</svg>
