<svg width="40" height="40" viewBox="0 0 40 40" fill="none" xmlns="http://www.w3.org/2000/svg">
<path d="M20 27.0667C20.2167 27.25 20.45 27.4167 20.6833 27.5833C20.9167 27.7333 21.1667 27.8833 21.4167 28.0167C22.7167 28.75 24.2333 29.1667 25.8333 29.1667C30.8833 29.1667 35 25.05 35 20C35 14.95 30.8833 10.8333 25.8333 10.8333C24.2333 10.8333 22.7167 11.25 21.4167 11.9833C21.1667 12.1167 20.9167 12.2667 20.6833 12.4167C20.45 12.5833 20.2167 12.75 20 12.9333C19.7833 12.75 19.55 12.5833 19.3167 12.4167C19.0833 12.2667 18.8333 12.1167 18.5833 11.9833C18.8 11.7667 19.0333 11.5833 19.2667 11.4C19.5 11.2167 19.75 11.05 20 10.8833C21.6833 9.80001 23.6833 9.16667 25.8333 9.16667C31.8 9.16667 36.6667 14.0333 36.6667 20C36.6667 25.9667 31.8 30.8333 25.8333 30.8333C23.6833 30.8333 21.6833 30.2 20 29.1167C19.75 28.95 19.5 28.7833 19.2667 28.6C19.0333 28.4167 18.8 28.2333 18.5833 28.0167C18.8333 27.8833 19.0833 27.7333 19.3167 27.5833C19.55 27.4167 19.7833 27.25 20 27.0667Z" fill="black"/>
<path d="M14.1667 9.16667C16.3167 9.16667 18.3167 9.80001 20 10.8833C20.25 11.05 20.5 11.2167 20.7333 11.4C20.9667 11.5833 21.2 11.7667 21.4167 11.9833C23.6167 13.95 25 16.8167 25 20C25 23.1833 23.6167 26.05 21.4167 28.0167C21.2 28.2333 20.9667 28.4167 20.7333 28.6C20.5 28.7833 20.25 28.95 20 29.1167C18.3167 30.2 16.3167 30.8333 14.1667 30.8333C8.20001 30.8333 3.33334 25.9667 3.33334 20C3.33334 14.0333 8.20001 9.16667 14.1667 9.16667ZM20 27.0667C17.9667 25.3833 16.6667 22.8333 16.6667 20C16.6667 17.1667 17.9667 14.6167 20 12.9333C19.7833 12.75 19.55 12.5833 19.3167 12.4167C19.0833 12.2667 18.8333 12.1167 18.5833 11.9833C16.3833 13.95 15 16.8167 15 20C15 23.1833 16.3833 26.05 18.5833 28.0167C18.8333 27.8833 19.0833 27.7333 19.3167 27.5833C19.55 27.4167 19.7833 27.25 20 27.0667Z" fill="black"/>
</svg>
