<svg width="100%" height="100%" viewBox="0 0 24 24" fill="none" xmlns="http://www.w3.org/2000/svg">
<path d="M15.5 6C14.19 6 12.99 6.42 12 7.13C11.01 6.42 9.81 6 8.5 6C5.19 6 2.5 8.69 2.5 12C2.5 15.31 5.19 18 8.5 18C9.81 18 11.01 17.58 12 16.87C12.99 17.58 14.19 18 15.5 18C18.81 18 21.5 15.31 21.5 12C21.5 8.69 18.81 6 15.5 6Z" fill="#247EFE"/>
<path d="M14.4001 11.9992C14.4001 10.0248 13.4521 8.27856 12.0001 7.19922C10.5481 8.26979 9.6001 10.016 9.6001 11.9992C9.6001 13.9824 10.5481 15.7199 12.0001 16.7992C13.4521 15.7287 14.4001 13.9824 14.4001 11.9992Z" fill="white"/>
</svg>
