<svg width="100%" height="100%" viewBox="0 0 24 24" fill="none" xmlns="http://www.w3.org/2000/svg">
<path d="M11.9999 16.24C12.1299 16.35 12.2699 16.45 12.4099 16.55C12.5499 16.64 12.6999 16.73 12.8499 16.81C13.6299 17.25 14.5399 17.5 15.4999 17.5C18.5299 17.5 20.9999 15.03 20.9999 12C20.9999 8.97 18.5299 6.5 15.4999 6.5C14.5399 6.5 13.6299 6.75 12.8499 7.19C12.6999 7.27 12.5499 7.36 12.4099 7.45C12.2699 7.55 12.1299 7.65 11.9999 7.76C11.8699 7.65 11.7299 7.55 11.5899 7.45C11.4499 7.36 11.2999 7.27 11.1499 7.19C11.2799 7.06 11.4199 6.95 11.5599 6.84C11.6999 6.73 11.8499 6.63 11.9999 6.53C13.0099 5.88 14.2099 5.5 15.4999 5.5C19.0799 5.5 21.9999 8.42 21.9999 12C21.9999 15.58 19.0799 18.5 15.4999 18.5C14.2099 18.5 13.0099 18.12 11.9999 17.47C11.8499 17.37 11.6999 17.27 11.5599 17.16C11.4199 17.05 11.2799 16.94 11.1499 16.81C11.2999 16.73 11.4499 16.64 11.5899 16.55C11.7299 16.45 11.8699 16.35 11.9999 16.24Z" fill="#247EFE"/>
<path d="M8.5 5.5C9.79 5.5 10.99 5.88 12 6.53C12.15 6.63 12.3 6.73 12.44 6.84C12.58 6.95 12.72 7.06 12.85 7.19C14.17 8.37 15 10.09 15 12C15 13.91 14.17 15.63 12.85 16.81C12.72 16.94 12.58 17.05 12.44 17.16C12.3 17.27 12.15 17.37 12 17.47C10.99 18.12 9.79 18.5 8.5 18.5C4.92 18.5 2 15.58 2 12C2 8.42 4.92 5.5 8.5 5.5ZM12 16.24C10.78 15.23 10 13.7 10 12C10 10.3 10.78 8.77 12 7.76C11.87 7.65 11.73 7.55 11.59 7.45C11.45 7.36 11.3 7.27 11.15 7.19C9.83 8.37 9 10.09 9 12C9 13.91 9.83 15.63 11.15 16.81C11.3 16.73 11.45 16.64 11.59 16.55C11.73 16.45 11.87 16.35 12 16.24Z" fill="#247EFE"/>
</svg>
