<svg width="40" height="40" viewBox="0 0 40 40" fill="none" xmlns="http://www.w3.org/2000/svg">
<path d="M31.5495 24.1667C31.0939 24.1686 30.6401 24.2239 30.1974 24.3315L24.2341 13.9935C25.0163 13.1654 25.5387 12.1263 25.7368 11.0046C25.9349 9.88283 25.8 8.72764 25.3488 7.68171C24.8976 6.63578 24.1499 5.74496 23.198 5.1193C22.2461 4.49365 21.1318 4.16058 19.9927 4.16126C18.8536 4.16193 17.7397 4.49631 16.7885 5.12309C15.8374 5.74986 15.0907 6.64157 14.6408 7.68803C14.1908 8.73449 14.0573 9.88984 14.2567 11.0113C14.4562 12.1328 14.9798 13.1713 15.7629 13.9985L9.80215 24.3322C8.69344 24.0621 7.52986 24.1231 6.45549 24.5077C5.38112 24.8923 4.44314 25.5836 3.75769 26.4959C3.07224 27.4082 2.66943 28.5016 2.59913 29.6405C2.52882 30.7795 2.79412 31.9141 3.36217 32.9038C3.93021 33.8935 4.77606 34.6948 5.79498 35.2086C6.81389 35.7224 7.96113 35.9261 9.09464 35.7944C10.2282 35.6628 11.2982 35.2015 12.1722 34.4678C13.0462 33.7341 13.6858 32.7602 14.0118 31.6667H25.9882C26.2995 32.7002 26.8921 33.6268 27.6996 34.3429C28.5072 35.0591 29.498 35.5366 30.5613 35.7221C31.6247 35.9076 32.7186 35.7938 33.721 35.3934C34.7234 34.9931 35.5947 34.3219 36.2376 33.4548C36.8805 32.5878 37.2697 31.5591 37.3617 30.4836C37.4536 29.4082 37.2448 28.3283 36.7584 27.3647C36.272 26.4011 35.5273 25.5918 34.6075 25.027C33.6876 24.4622 32.6289 24.1644 31.5495 24.1667ZM20 7.49999C20.3547 7.50103 20.7052 7.57761 21.028 7.72463C21.3509 7.87165 21.6387 8.08574 21.8724 8.35264C22.1061 8.61955 22.2802 8.93317 22.3833 9.27262C22.4863 9.61207 22.5159 9.96957 22.47 10.3213C22.4241 10.6731 22.3039 11.0111 22.1172 11.3127C21.9306 11.6144 21.6819 11.8729 21.3876 12.071C21.0933 12.269 20.7602 12.4022 20.4104 12.4615C20.0607 12.5208 19.7023 12.5049 19.3591 12.415C19.1431 12.3576 18.9364 12.2698 18.7451 12.1542C18.2696 11.879 17.8982 11.4545 17.6886 10.9466C17.479 10.4387 17.4429 9.87585 17.5859 9.34537C17.729 8.81488 18.0431 8.34645 18.4796 8.01277C18.9161 7.6791 19.4506 7.49884 20 7.49999ZM18.6442 15.6763C18.6818 15.6851 18.7227 15.6814 18.7607 15.6896C19.5804 15.8818 20.4336 15.8812 21.253 15.6879C21.2864 15.6807 21.3226 15.6841 21.3558 15.6763L27.3112 25.9993C27.2897 26.022 27.2765 26.051 27.2554 26.074C26.9677 26.3832 26.7144 26.7227 26.4999 27.0865L26.4988 27.0888C26.2936 27.4514 26.1276 27.8349 26.0038 28.2327C25.9926 28.2677 25.9709 28.2981 25.9603 28.3333H14.0397C14.0297 28.3003 14.0093 28.2717 13.9988 28.2388C13.7393 27.4213 13.3027 26.671 12.7202 26.0415C12.7082 26.0285 12.7009 26.0122 12.6888 25.9993L18.6442 15.6763ZM8.45052 32.5C7.78747 32.5 7.15159 32.2366 6.68275 31.7678C6.21391 31.2989 5.95052 30.663 5.95052 30C5.95052 29.3369 6.21391 28.7011 6.68275 28.2322C7.15159 27.7634 7.78747 27.5 8.45052 27.5C8.89296 27.4962 9.32764 27.6163 9.7054 27.8467C10.1809 28.1218 10.5523 28.5462 10.7619 29.054C10.9715 29.5619 11.0075 30.1247 10.8645 30.6551C10.7215 31.1855 10.4073 31.6539 9.9708 31.9875C9.53431 32.3211 8.99989 32.5012 8.45052 32.5ZM31.5495 32.5C30.9979 32.5012 30.4614 32.3196 30.024 31.9835C29.5866 31.6474 29.2729 31.1758 29.1321 30.6424C28.9913 30.1091 29.0312 29.5441 29.2457 29.0359C29.4602 28.5277 29.837 28.1049 30.3174 27.8337C30.6893 27.6105 31.1158 27.495 31.5495 27.5C32.2125 27.5 32.8484 27.7634 33.3172 28.2322C33.7861 28.7011 34.0495 29.3369 34.0495 30C34.0495 30.663 33.7861 31.2989 33.3172 31.7678C32.8484 32.2366 32.2125 32.5 31.5495 32.5Z" fill="white"/>
</svg>
