<svg width="40" height="40" viewBox="0 0 40 40" fill="none" xmlns="http://www.w3.org/2000/svg">
<path d="M11.6667 10.4167C11.3933 10.4177 11.1225 10.3637 10.8705 10.2577C10.6185 10.1518 10.3904 9.99609 10.2 9.79999L8.33332 7.94999L6.46666 9.79999C6.27571 9.99552 6.04759 10.1509 5.79571 10.257C5.54384 10.3631 5.27329 10.4177 4.99999 10.4177C4.72668 10.4177 4.45614 10.3631 4.20426 10.257C3.95239 10.1509 3.72427 9.99552 3.53332 9.79999C3.33779 9.60904 3.18241 9.38092 3.07632 9.12905C2.97024 8.87717 2.91559 8.60663 2.91559 8.33332C2.91559 8.06002 2.97024 7.78947 3.07632 7.5376C3.18241 7.28572 3.33779 7.0576 3.53332 6.86665L6.86665 3.53332C7.0576 3.33779 7.28572 3.18241 7.5376 3.07632C7.78947 2.97024 8.06002 2.91559 8.33332 2.91559C8.60663 2.91559 8.87717 2.97024 9.12905 3.07632C9.38092 3.18241 9.60904 3.33779 9.79999 3.53332L13.1333 6.86665C13.4221 7.15795 13.6184 7.52801 13.6978 7.93044C13.7771 8.33287 13.7359 8.74977 13.5793 9.12886C13.4226 9.50796 13.1576 9.83239 12.8174 10.0615C12.4771 10.2906 12.0768 10.4141 11.6667 10.4167Z" fill="black"/>
<path d="M8.33333 37.0833C8.05996 37.0844 7.78918 37.0304 7.53717 36.9244C7.28517 36.8185 7.05712 36.6628 6.86666 36.4667L3.53333 33.1333C3.24455 32.842 3.0482 32.472 2.96887 32.0695C2.88954 31.6671 2.93077 31.2502 3.08739 30.8711C3.24402 30.492 3.50906 30.1676 3.8493 29.9385C4.18953 29.7094 4.58983 29.5859 4.99999 29.5833C5.27336 29.5822 5.54414 29.6363 5.79614 29.7423C6.04815 29.8482 6.2762 30.0039 6.46666 30.2L8.33333 32.05L10.2 30.2C10.3926 30.0074 10.6213 29.8546 10.8729 29.7504C11.1246 29.6461 11.3943 29.5925 11.6667 29.5925C11.939 29.5925 12.2088 29.6461 12.4604 29.7504C12.7121 29.8546 12.9407 30.0074 13.1333 30.2C13.3259 30.3926 13.4787 30.6213 13.583 30.8729C13.6872 31.1246 13.7408 31.3943 13.7408 31.6667C13.7408 31.939 13.6872 32.2088 13.583 32.4604C13.4787 32.7121 13.3259 32.9407 13.1333 33.1333L9.79999 36.4667C9.60953 36.6628 9.38148 36.8185 9.12948 36.9244C8.87748 37.0304 8.6067 37.0844 8.33333 37.0833Z" fill="black"/>
<path d="M8.33333 37.0833C7.7808 37.0833 7.2509 36.8638 6.86019 36.4731C6.46949 36.0824 6.25 35.5525 6.25 35V4.99999C6.25 4.44746 6.46949 3.91755 6.86019 3.52685C7.2509 3.13615 7.7808 2.91666 8.33333 2.91666C8.88587 2.91666 9.41577 3.13615 9.80647 3.52685C10.1972 3.91755 10.4167 4.44746 10.4167 4.99999V35C10.4167 35.5525 10.1972 36.0824 9.80647 36.4731C9.41577 36.8638 8.88587 37.0833 8.33333 37.0833Z" fill="black"/>
<path d="M18.3333 10.4167C17.7808 10.4167 17.2509 10.1972 16.8602 9.80647C16.4695 9.41577 16.25 8.88587 16.25 8.33333C16.25 7.7808 16.4695 7.2509 16.8602 6.86019C17.2509 6.46949 17.7808 6.25 18.3333 6.25H35C35.5525 6.25 36.0824 6.46949 36.4731 6.86019C36.8638 7.2509 37.0833 7.7808 37.0833 8.33333C37.0833 8.88587 36.8638 9.41577 36.4731 9.80647C36.0824 10.1972 35.5525 10.4167 35 10.4167H18.3333Z" fill="black"/>
<path d="M18.3333 18.75C17.7808 18.75 17.2509 18.5305 16.8602 18.1398C16.4695 17.7491 16.25 17.2192 16.25 16.6666C16.25 16.1141 16.4695 15.5842 16.8602 15.1935C17.2509 14.8028 17.7808 14.5833 18.3333 14.5833H31.6667C32.2192 14.5833 32.7491 14.8028 33.1398 15.1935C33.5305 15.5842 33.75 16.1141 33.75 16.6666C33.75 17.2192 33.5305 17.7491 33.1398 18.1398C32.7491 18.5305 32.2192 18.75 31.6667 18.75H18.3333Z" fill="black"/>
<path d="M18.3333 27.0833C17.7808 27.0833 17.2509 26.8638 16.8602 26.4731C16.4695 26.0824 16.25 25.5525 16.25 25C16.25 24.4475 16.4695 23.9176 16.8602 23.5269C17.2509 23.1361 17.7808 22.9167 18.3333 22.9167H28.3333C28.8859 22.9167 29.4158 23.1361 29.8065 23.5269C30.1972 23.9176 30.4167 24.4475 30.4167 25C30.4167 25.5525 30.1972 26.0824 29.8065 26.4731C29.4158 26.8638 28.8859 27.0833 28.3333 27.0833H18.3333Z" fill="black"/>
<path d="M18.3333 35.4167C17.7808 35.4167 17.2509 35.1972 16.8602 34.8065C16.4695 34.4158 16.25 33.8859 16.25 33.3333C16.25 32.7808 16.4695 32.2509 16.8602 31.8602C17.2509 31.4695 17.7808 31.25 18.3333 31.25H25C25.5525 31.25 26.0824 31.4695 26.4731 31.8602C26.8638 32.2509 27.0833 32.7808 27.0833 33.3333C27.0833 33.8859 26.8638 34.4158 26.4731 34.8065C26.0824 35.1972 25.5525 35.4167 25 35.4167H18.3333Z" fill="black"/>
</svg>
