<svg width="100%" height="100%" viewBox="0 0 24 24" fill="none" xmlns="http://www.w3.org/2000/svg">
<path d="M18.9296 14.4993C18.6563 14.5005 18.384 14.5337 18.1184 14.5982L14.5404 8.39545C15.0097 7.89859 15.3231 7.27512 15.442 6.60208C15.5608 5.92904 15.4799 5.23592 15.2092 4.60837C14.9385 3.98081 14.4899 3.44632 13.9187 3.07092C13.3476 2.69553 12.679 2.49569 11.9955 2.49609C11.3121 2.4965 10.6437 2.69713 10.073 3.07319C9.50234 3.44926 9.05434 3.98428 8.78437 4.61216C8.51439 5.24003 8.43429 5.93325 8.55395 6.60615C8.67361 7.27905 8.98779 7.90214 9.45767 8.39845L5.8812 14.5986C5.21597 14.4366 4.51782 14.4732 3.8732 14.704C3.22858 14.9347 2.66579 15.3495 2.25452 15.8969C1.84325 16.4443 1.60157 17.1003 1.55938 17.7837C1.5172 18.467 1.67638 19.1478 2.01721 19.7416C2.35804 20.3354 2.86554 20.8162 3.47689 21.1245C4.08824 21.4328 4.77659 21.555 5.45669 21.476C6.1368 21.397 6.7788 21.1203 7.3032 20.68C7.82761 20.2398 8.21138 19.6555 8.40701 18.9993H15.5928C15.7796 19.6194 16.1351 20.1754 16.6197 20.6051C17.1042 21.0348 17.6987 21.3213 18.3367 21.4326C18.9747 21.5439 19.6311 21.4756 20.2325 21.2354C20.8339 20.9952 21.3567 20.5925 21.7425 20.0722C22.1282 19.552 22.3617 18.9348 22.4169 18.2895C22.4721 17.6442 22.3468 16.9963 22.0549 16.4182C21.7631 15.84 21.3163 15.3544 20.7644 15.0155C20.2125 14.6767 19.5772 14.498 18.9296 14.4993ZM11.9999 4.49933C12.2128 4.49996 12.423 4.54591 12.6167 4.63412C12.8104 4.72233 12.9831 4.85078 13.1233 5.01093C13.2635 5.17107 13.368 5.35924 13.4299 5.56291C13.4917 5.76658 13.5094 5.98108 13.4819 6.19214C13.4544 6.4032 13.3822 6.60598 13.2703 6.78699C13.1583 6.96799 13.009 7.12308 12.8324 7.24192C12.6559 7.36076 12.456 7.44063 12.2462 7.47622C12.0363 7.51181 11.8213 7.50231 11.6154 7.44833C11.4858 7.41393 11.3617 7.36124 11.247 7.29184C10.9617 7.12672 10.7388 6.87203 10.6131 6.5673C10.4873 6.26257 10.4657 5.92485 10.5515 5.60656C10.6373 5.28827 10.8258 5.00721 11.0877 4.807C11.3496 4.6068 11.6703 4.49865 11.9999 4.49933ZM11.1864 9.40509C11.209 9.4104 11.2335 9.4082 11.2563 9.41309C11.7482 9.52841 12.26 9.52806 12.7517 9.41209C12.7717 9.40776 12.7935 9.40977 12.8134 9.40509L16.3866 15.5989C16.3737 15.6126 16.3658 15.6299 16.3532 15.6437C16.1806 15.8293 16.0286 16.0329 15.8999 16.2512L15.8992 16.2526C15.7761 16.4702 15.6765 16.7003 15.6022 16.939C15.5955 16.96 15.5824 16.9782 15.5761 16.9993H8.42374C8.41774 16.9795 8.40549 16.9623 8.3992 16.9426C8.24348 16.4521 7.98155 16.002 7.63205 15.6242C7.62485 15.6165 7.62045 15.6066 7.61319 15.5989L11.1864 9.40509ZM5.07022 19.4993C4.67239 19.4993 4.29086 19.3413 4.00956 19.06C3.72825 18.7787 3.57022 18.3972 3.57022 17.9993C3.57022 17.6015 3.72825 17.22 4.00956 16.9387C4.29086 16.6574 4.67239 16.4993 5.07022 16.4993C5.33569 16.4971 5.59649 16.5691 5.82315 16.7073C6.10846 16.8724 6.33128 17.1271 6.45704 17.4318C6.58279 17.7365 6.60443 18.0741 6.51861 18.3924C6.43278 18.7107 6.24429 18.9917 5.98239 19.1918C5.72049 19.392 5.39984 19.5001 5.07022 19.4993ZM18.9296 19.4993C18.5986 19.5001 18.2767 19.3911 18.0143 19.1894C17.7519 18.9878 17.5637 18.7048 17.4792 18.3848C17.3947 18.0648 17.4186 17.7258 17.5473 17.4209C17.676 17.1159 17.9021 16.8623 18.1903 16.6995C18.4135 16.5656 18.6694 16.4963 18.9296 16.4993C19.3274 16.4993 19.709 16.6574 19.9903 16.9387C20.2716 17.22 20.4296 17.6015 20.4296 17.9993C20.4296 18.3972 20.2716 18.7787 19.9903 19.06C19.709 19.3413 19.3274 19.4993 18.9296 19.4993Z" fill="#247EFE"/>
</svg>
