<svg width="40" height="40" viewBox="0 0 40 40" fill="none" xmlns="http://www.w3.org/2000/svg">
<path d="M30.9 5.41666H9.09999C7.06666 5.41666 5.41666 7.06666 5.41666 9.09999C5.41666 9.98333 5.73332 10.8333 6.29999 11.5L14.9167 21.55C15.2333 21.9333 15.4167 22.4167 15.4167 22.9V32.3C15.4167 33.3167 15.9333 34.25 16.8 34.7833C17.2667 35.0667 17.8 35.2167 18.3333 35.2167C18.7833 35.2167 19.2167 35.1167 19.6333 34.9L22.9667 33.2333C23.9667 32.7333 24.5833 31.7333 24.5833 30.6167V22.8833C24.5833 22.3833 24.7667 21.9 25.0833 21.5333L33.7 11.4833C34.2667 10.8167 34.5833 9.96666 34.5833 9.08333C34.5833 7.04999 32.9333 5.39999 30.9 5.39999V5.41666ZM31.8 9.86666L23.1833 19.9167C22.4667 20.75 22.0833 21.8 22.0833 22.9V30.6333C22.0833 30.8 22 30.9333 21.85 31L18.5167 32.6667C18.3333 32.7667 18.1833 32.7 18.1167 32.65C18.05 32.6 17.9167 32.5 17.9167 32.3V22.9C17.9167 21.8 17.5333 20.75 16.8167 19.9167L8.19999 9.86666C8.01666 9.64999 7.91666 9.38333 7.91666 9.09999C7.91666 8.44999 8.44999 7.91666 9.09999 7.91666H30.9C31.55 7.91666 32.0833 8.44999 32.0833 9.09999C32.0833 9.38333 31.9833 9.64999 31.8 9.86666Z" fill="white"/>
</svg>
