<svg width="100%" height="100%" viewBox="0 0 24 24" fill="none" xmlns="http://www.w3.org/2000/svg">
<path d="M6.99991 6.25064C6.83589 6.25129 6.67342 6.21886 6.52222 6.15528C6.37101 6.09171 6.23418 5.9983 6.11991 5.88064L4.99991 4.77064L3.87991 5.88064C3.76534 5.99796 3.62847 6.09119 3.47734 6.15484C3.32622 6.21849 3.16389 6.25128 2.99991 6.25128C2.83593 6.25128 2.6736 6.21849 2.52247 6.15484C2.37135 6.09119 2.23448 5.99796 2.11991 5.88064C2.00259 5.76607 1.90936 5.6292 1.84571 5.47807C1.78206 5.32695 1.74927 5.16462 1.74927 5.00064C1.74927 4.83666 1.78206 4.67433 1.84571 4.52321C1.90936 4.37208 2.00259 4.23521 2.11991 4.12064L4.11991 2.12064C4.23448 2.00332 4.37135 1.91009 4.52247 1.84644C4.6736 1.78279 4.83593 1.75 4.99991 1.75C5.16389 1.75 5.32622 1.78279 5.47734 1.84644C5.62847 1.91009 5.76534 2.00332 5.87991 2.12064L7.87991 4.12064C8.05317 4.29542 8.17098 4.51745 8.21858 4.75891C8.26618 5.00037 8.24144 5.25051 8.14747 5.47796C8.05349 5.70542 7.89447 5.90008 7.69033 6.03753C7.48618 6.17498 7.24601 6.24912 6.99991 6.25064Z" fill="#247EFE"/>
<path d="M4.99984 22.25C4.83582 22.2507 4.67335 22.2182 4.52215 22.1547C4.37095 22.0911 4.23412 21.9977 4.11984 21.88L2.11984 19.88C1.94658 19.7052 1.82877 19.4832 1.78117 19.2417C1.73357 19.0003 1.75831 18.7501 1.85228 18.5227C1.94626 18.2952 2.10528 18.1006 2.30942 17.9631C2.51357 17.8257 2.75374 17.7515 2.99984 17.75C3.16386 17.7494 3.32633 17.7818 3.47753 17.8454C3.62874 17.9089 3.76557 18.0023 3.87984 18.12L4.99984 19.23L6.11984 18.12C6.23541 18.0044 6.3726 17.9128 6.52359 17.8502C6.67458 17.7877 6.83641 17.7555 6.99984 17.7555C7.16327 17.7555 7.32511 17.7877 7.4761 17.8502C7.62709 17.9128 7.76428 18.0044 7.87984 18.12C7.99541 18.2356 8.08708 18.3728 8.14962 18.5238C8.21216 18.6747 8.24435 18.8366 8.24435 19C8.24435 19.1634 8.21216 19.3253 8.14962 19.4763C8.08708 19.6273 7.99541 19.7644 7.87984 19.88L5.87984 21.88C5.76557 21.9977 5.62874 22.0911 5.47753 22.1547C5.32633 22.2182 5.16386 22.2507 4.99984 22.25Z" fill="#247EFE"/>
<path d="M5 22.25C4.66848 22.25 4.35054 22.1183 4.11612 21.8839C3.8817 21.6495 3.75 21.3315 3.75 21V3C3.75 2.66848 3.8817 2.35054 4.11612 2.11612C4.35054 1.8817 4.66848 1.75 5 1.75C5.33152 1.75 5.64946 1.8817 5.88388 2.11612C6.1183 2.35054 6.25 2.66848 6.25 3V21C6.25 21.3315 6.1183 21.6495 5.88388 21.8839C5.64946 22.1183 5.33152 22.25 5 22.25Z" fill="#247EFE"/>
<path d="M11 6.25C10.6685 6.25 10.3505 6.1183 10.1161 5.88388C9.8817 5.64946 9.75 5.33152 9.75 5C9.75 4.66848 9.8817 4.35054 10.1161 4.11612C10.3505 3.8817 10.6685 3.75 11 3.75H21C21.3315 3.75 21.6495 3.8817 21.8839 4.11612C22.1183 4.35054 22.25 4.66848 22.25 5C22.25 5.33152 22.1183 5.64946 21.8839 5.88388C21.6495 6.1183 21.3315 6.25 21 6.25H11Z" fill="#247EFE"/>
<path d="M11 11.25C10.6685 11.25 10.3505 11.1183 10.1161 10.8839C9.8817 10.6495 9.75 10.3315 9.75 10C9.75 9.66848 9.8817 9.35054 10.1161 9.11612C10.3505 8.8817 10.6685 8.75 11 8.75H19C19.3315 8.75 19.6495 8.8817 19.8839 9.11612C20.1183 9.35054 20.25 9.66848 20.25 10C20.25 10.3315 20.1183 10.6495 19.8839 10.8839C19.6495 11.1183 19.3315 11.25 19 11.25H11Z" fill="#247EFE"/>
<path d="M11 16.25C10.6685 16.25 10.3505 16.1183 10.1161 15.8839C9.8817 15.6495 9.75 15.3315 9.75 15C9.75 14.6685 9.8817 14.3505 10.1161 14.1161C10.3505 13.8817 10.6685 13.75 11 13.75H17C17.3315 13.75 17.6495 13.8817 17.8839 14.1161C18.1183 14.3505 18.25 14.6685 18.25 15C18.25 15.3315 18.1183 15.6495 17.8839 15.8839C17.6495 16.1183 17.3315 16.25 17 16.25H11Z" fill="#247EFE"/>
<path d="M11 21.25C10.6685 21.25 10.3505 21.1183 10.1161 20.8839C9.8817 20.6495 9.75 20.3315 9.75 20C9.75 19.6685 9.8817 19.3505 10.1161 19.1161C10.3505 18.8817 10.6685 18.75 11 18.75H15C15.3315 18.75 15.6495 18.8817 15.8839 19.1161C16.1183 19.3505 16.25 19.6685 16.25 20C16.25 20.3315 16.1183 20.6495 15.8839 20.8839C15.6495 21.1183 15.3315 21.25 15 21.25H11Z" fill="#247EFE"/>
</svg>
