<svg width="100%" height="100%" viewBox="0 0 16 15" fill="none" xmlns="http://www.w3.org/2000/svg">
<path d="M14.1666 15H1.83337C0.822021 15 0 14.1594 0 13.1251V1.87505C0 0.840706 0.822021 0 1.83337 0H14.1666C15.178 0 16 0.840706 16 1.87505V13.1251C16 14.1594 15.178 15 14.1666 15ZM1.83337 1.02273C1.37402 1.02273 1 1.40526 1 1.87505V13.1251C1 13.5949 1.37402 13.9773 1.83337 13.9773H14.1666C14.626 13.9773 15 13.5949 15 13.1251V1.87505C15 1.40526 14.626 1.02273 14.1666 1.02273H1.83337Z" fill="#247EFE"/>
<path d="M15.5 5H0.5C0.223999 5 0 4.776 0 4.5C0 4.224 0.223999 4 0.5 4H15.5C15.776 4 16 4.224 16 4.5C16 4.776 15.776 5 15.5 5Z" fill="#247EFE"/>
<path d="M8 15C7.724 15 7.5 14.769 7.5 14.4844V4.51563C7.5 4.231 7.724 4 8 4C8.276 4 8.5 4.231 8.5 4.51563V14.4844C8.5 14.769 8.276 15 8 15Z" fill="#247EFE"/>
</svg>
