<svg width="100%" height="100%" viewBox="0 0 24 24" fill="none" xmlns="http://www.w3.org/2000/svg">
<path d="M22 13.7945C22 15.9444 21.3018 17.985 19.9808 19.6963C19.7202 20.0341 19.2301 20.0996 18.8864 19.8449C18.5424 19.5898 18.4745 19.1097 18.7346 18.7726C19.8487 17.3295 20.4375 15.6081 20.4375 13.7945C20.4375 9.22487 16.6608 5.5311 12 5.5311C7.336 5.5311 3.5625 9.22772 3.5625 13.7945C3.5625 15.6081 4.15134 17.3295 5.26523 18.7726C5.52554 19.1097 5.45764 19.5898 5.11356 19.8449C4.76932 20.1 4.27951 20.0335 4.01904 19.6963C2.69824 17.985 2 15.9444 2 13.7945C2 8.37828 6.47571 4 12 4C17.5273 4 22 8.38127 22 13.7945ZM16.9501 9.18405C17.2551 9.48295 17.2551 9.9677 16.9501 10.2666L14.4036 12.762C14.6132 13.1407 14.7325 13.5743 14.7325 14.0345C14.7325 15.5111 13.5067 16.7122 12 16.7122C10.4932 16.7122 9.26746 15.5111 9.26746 14.0345C9.26746 12.5582 10.4932 11.3569 12 11.3569C12.4698 11.3569 12.9122 11.4738 13.2987 11.6793L15.8452 9.18391C16.1504 8.88501 16.6449 8.88501 16.9501 9.18405ZM13.17 14.0347C13.17 13.4025 12.6451 12.8881 12 12.8881C11.3549 12.8881 10.83 13.4025 10.83 14.0347C10.83 14.6669 11.3549 15.1812 12 15.1812C12.6451 15.1812 13.17 14.6669 13.17 14.0347Z" fill="#247EFE"/>
</svg>
