<svg width="100%" height="100%" viewBox="0 0 16 17" fill="none" xmlns="http://www.w3.org/2000/svg">
<path d="M3 13.3L6.794 3.5H8.334L12.1 13.3H10.49L8.25 7.392C8.222 7.32667 8.166 7.168 8.082 6.916C8.00733 6.664 7.91867 6.384 7.816 6.076C7.71333 5.768 7.62 5.488 7.536 5.236C7.452 4.97467 7.396 4.80667 7.368 4.732L7.69 4.718C7.634 4.87667 7.564 5.07733 7.48 5.32C7.40533 5.56267 7.32133 5.81933 7.228 6.09C7.144 6.36067 7.06 6.61733 6.976 6.86C6.892 7.09333 6.822 7.28933 6.766 7.448L4.54 13.3H3ZM4.68 10.864L5.24 9.408H9.692L10.336 10.864H4.68Z" fill="currentColor"/>
</svg>
