<svg width="32" height="32" viewBox="0 0 32 32" fill="none" xmlns="http://www.w3.org/2000/svg">
<rect width="32" height="32" rx="5" transform="matrix(-1 0 0 1 32 0)" fill="#3F8CFF"/>
<path d="M19.0111 21.4177V12.951C19.0111 12.6177 18.9111 12.2927 18.7278 12.0177L16.4528 8.63437C16.0944 8.09271 15.2028 7.70937 14.4444 7.99271C13.6278 8.26771 13.0861 9.18437 13.2611 10.001L13.6944 12.726C13.7278 12.976 13.6611 13.201 13.5194 13.376C13.3778 13.5344 13.1694 13.6344 12.9444 13.6344H9.51945C8.86111 13.6344 8.29445 13.901 7.96111 14.3677C7.64445 14.8177 7.58611 15.401 7.79445 15.9927L9.84445 22.2344C10.1028 23.2677 11.2278 24.1094 12.3444 24.1094H15.5944C16.1528 24.1094 16.9361 23.9177 17.2944 23.5594L18.3611 22.7344C18.7694 22.4177 19.0111 21.9344 19.0111 21.4177Z" fill="white"/>
<path d="M21.6604 11.3263H22.5187C23.8104 11.3263 24.3354 11.8263 24.3354 13.0596V21.4346C24.3354 22.668 23.8104 23.168 22.5187 23.168H21.6604C20.3688 23.168 19.8438 22.668 19.8438 21.4346V13.0513C19.8438 11.8263 20.3688 11.3263 21.6604 11.3263Z" fill="white"/>
</svg>
