<svg width="32" height="32" viewBox="0 0 32 32" fill="none" xmlns="http://www.w3.org/2000/svg">
<rect x="0.5" y="-0.5" width="31" height="31" rx="4.5" transform="matrix(1 0 0 -1 0 31)" stroke="#8390A3"/>
<path d="M12.2334 10.7084L14.8167 8.70844C15.1501 8.37511 15.9001 8.20844 16.4001 8.20844H19.5667C20.5667 8.20844 21.6501 8.95844 21.9001 9.95844L23.9001 16.0418C24.3167 17.2084 23.5667 18.2084 22.3167 18.2084H18.9834C18.4834 18.2084 18.0667 18.6251 18.1501 19.2084L18.5667 21.8751C18.7334 22.6251 18.2334 23.4584 17.4834 23.7084C16.8167 23.9584 15.9834 23.6251 15.6501 23.1251L12.2334 18.0418" stroke="#8390A3" stroke-width="1.2" stroke-miterlimit="10"/>
<path d="M7.9834 10.7083V18.8749C7.9834 20.0416 8.4834 20.4583 9.65007 20.4583H10.4834C11.6501 20.4583 12.1501 20.0416 12.1501 18.8749V10.7083C12.1501 9.54158 11.6501 9.12492 10.4834 9.12492H9.65007C8.4834 9.12492 7.9834 9.54158 7.9834 10.7083Z" stroke="#8390A3" stroke-width="1.2" stroke-linecap="round" stroke-linejoin="round"/>
</svg>
