<svg width="32" height="32" viewBox="0 0 32 32" fill="none" xmlns="http://www.w3.org/2000/svg">
<rect x="-0.5" y="0.5" width="31" height="31" rx="4.5" transform="matrix(-1 0 0 1 31 0)" stroke="#8390A3"/>
<path d="M16.0379 8.91337L16.0378 8.91338L16.0358 8.91024C15.9266 8.74528 15.7106 8.57407 15.432 8.47559C15.1577 8.37865 14.8682 8.36814 14.6194 8.46108L14.6118 8.46395L14.604 8.46656C14.0151 8.66487 13.6311 9.34149 13.75 9.89628L13.7528 9.90933L13.7549 9.92252L14.1882 12.6475L14.1884 12.6475L14.1901 12.66C14.2411 13.0429 14.1382 13.4063 13.9081 13.6906L13.9003 13.7002L13.8921 13.7094C13.6598 13.9691 13.3179 14.1344 12.9444 14.1344H9.51945C8.99591 14.1344 8.59378 14.3433 8.36901 14.6569C8.16112 14.9534 8.10247 15.362 8.26606 15.8266L8.26617 15.8266L8.26948 15.8367L10.3195 22.0784L10.3251 22.0955L10.3295 22.1131C10.5282 22.9078 11.4403 23.6094 12.3444 23.6094H15.5944C15.8229 23.6094 16.1102 23.5692 16.3764 23.4897C16.6529 23.4071 16.8467 23.3 16.9409 23.2058L16.9634 23.1833L16.9885 23.1639L18.0547 22.3393C18.0548 22.3392 18.0548 22.3392 18.0549 22.3391C18.3435 22.1152 18.5111 21.7765 18.5111 21.4177V12.951C18.5111 12.7179 18.4412 12.4895 18.3123 12.2958C18.3121 12.2956 18.3119 12.2953 18.3118 12.2951L16.0379 8.91337Z" stroke="#8390A3"/>
<path d="M22.5187 11.8263H21.6604C21.0609 11.8263 20.7659 11.9458 20.6121 12.0919C20.4646 12.232 20.3438 12.4961 20.3438 13.0513V21.4346C20.3438 21.9949 20.465 22.2611 20.6128 22.402C20.7664 22.5485 21.0608 22.668 21.6604 22.668H22.5187C23.1184 22.668 23.4128 22.5485 23.5664 22.402C23.7141 22.2611 23.8354 21.9949 23.8354 21.4346V13.0596C23.8354 12.4994 23.7141 12.2332 23.5664 12.0923C23.4128 11.9458 23.1184 11.8263 22.5187 11.8263Z" stroke="#8390A3"/>
</svg>
