<svg width="36" height="36" viewBox="0 0 36 36" fill="none" xmlns="http://www.w3.org/2000/svg">
<path d="M26.5918 14.4513C25.9862 13.6232 25.0063 13.0851 23.9017 13.0851C23.485 13.0851 23.0858 13.1619 22.7182 13.3022C22.466 13.3973 22.228 13.5369 22.0095 13.6879C21.8179 13.8201 19.9972 15.4015 19.9972 15.4015L13.9097 20.6245L3.6001 29.5586L16.1728 9.12585C16.943 7.825 18.2769 6.80469 19.8346 6.80469C21.1024 6.80469 22.228 7.41094 22.9381 8.35033L23.367 9.06718L24.7292 11.3411L26.5918 14.4513Z" fill="#AAAAAA"/>
<path d="M29.9451 28.7646C28.8291 29.2764 24.4855 29.5374 23.012 29.4936C22.3767 29.4747 21.7685 29.4147 21.1899 29.3135C16.9063 28.569 14.2291 25.6005 13.9121 20.625H20.8601C21.0395 21.4808 21.2573 22.2758 21.5156 23.0075C22.3376 25.3476 23.5623 27.0456 25.2064 28.0336C25.3581 28.1246 25.5132 28.2096 25.6724 28.2885C26.3285 28.6156 27.0467 28.8374 27.8263 28.9514C27.8351 28.9527 27.8432 28.9541 27.8519 28.9554C28.0664 28.9925 28.3031 29.0323 28.5276 29.0323C29.028 29.0323 29.5055 28.9379 29.9445 28.7646H29.9451Z" fill="#AAAAAA"/>
<path d="M32.3897 25.1506C32.3897 26.79 31.3715 28.1913 29.933 28.7571C29.9324 28.7571 29.9324 28.7571 29.9324 28.7571H29.9317C29.4927 28.9304 29.0152 29.0249 28.5148 29.0249C28.2903 29.0249 28.0536 28.9851 27.8391 28.948C27.8304 28.9466 27.8223 28.9453 27.8135 28.9439C27.0339 28.83 26.3157 28.6081 25.6596 28.281C25.7445 28.1468 25.8221 28.0072 25.8787 27.8582C26.0507 27.4023 26.0682 26.6875 25.9819 26.2316C25.8774 25.676 25.6373 25.1641 25.3467 24.6421L22.2561 19.3113L20.5607 16.3845L19.9868 15.3946C19.9868 15.3946 21.8076 13.8132 21.9991 13.681C22.2176 13.53 22.4557 13.3904 22.7079 13.2953C23.0754 13.155 23.4746 13.0781 23.8914 13.0781C24.996 13.0781 25.9759 13.6163 26.5814 14.4444L26.897 14.9704L31.5589 22.7533L31.8435 23.2287C32.1679 23.7702 32.3655 24.3825 32.387 25.0137C32.3891 25.0589 32.3897 25.1048 32.3897 25.1506Z" fill="#AAAAAA" fill-opacity="0.5"/>
</svg>
