<svg width="60" height="60" viewBox="0 0 60 60" fill="none" xmlns="http://www.w3.org/2000/svg">
<rect width="60" height="60" rx="30" fill="#247EFE"/>
<path d="M40.7396 25.5583C39.9826 24.5231 38.7578 23.8505 37.3771 23.8505C36.8561 23.8505 36.3571 23.9466 35.8977 24.1219C35.5824 24.2407 35.2848 24.4152 35.0117 24.6041C34.7723 24.7693 32.4963 26.746 32.4963 26.746L24.887 33.2747L12 44.4424L27.7159 18.9015C28.6786 17.2754 30.3459 16 32.2932 16C33.8779 16 35.2848 16.7578 36.1725 17.9321L36.7086 18.8281L38.4114 21.6706L40.7396 25.5583Z" fill="white"/>
<path d="M44.9314 43.4518C43.5363 44.0916 38.1069 44.4179 36.265 44.3631C35.4709 44.3395 34.7106 44.2644 33.9873 44.138C28.6329 43.2074 25.2863 39.4967 24.8901 33.2773H33.5751C33.7993 34.3471 34.0716 35.3409 34.3945 36.2555C35.422 39.1806 36.9529 41.3031 39.008 42.5381C39.1976 42.6519 39.3915 42.7581 39.5905 42.8567C40.4107 43.2655 41.3084 43.5429 42.2829 43.6853C42.2938 43.687 42.3039 43.6887 42.3149 43.6904C42.583 43.7368 42.8788 43.7865 43.1595 43.7865C43.785 43.7865 44.3818 43.6685 44.9306 43.4518H44.9314Z" fill="white"/>
<path d="M47.9871 38.9383C47.9871 40.9875 46.7142 42.7392 44.9162 43.4464C44.9153 43.4464 44.9153 43.4464 44.9153 43.4464H44.9145C44.3657 43.6631 43.7689 43.7811 43.1434 43.7811C42.8627 43.7811 42.5668 43.7313 42.2988 43.685C42.2878 43.6833 42.2777 43.6816 42.2668 43.6799C41.2923 43.5374 40.3945 43.2601 39.5744 42.8513C39.6806 42.6835 39.7775 42.509 39.8483 42.3227C40.0633 41.7529 40.0852 40.8594 39.9773 40.2895C39.8466 39.5949 39.5465 38.9551 39.1832 38.3027L35.3199 31.6391L33.2008 27.9807L32.4834 26.7432C32.4834 26.7432 34.7594 24.7665 34.9988 24.6013C35.2719 24.4124 35.5695 24.2379 35.8847 24.1191C36.3441 23.9438 36.8432 23.8477 37.3641 23.8477C38.7449 23.8477 39.9697 24.5203 40.7267 25.5555L41.1212 26.213L46.9485 35.9416L47.3043 36.5358C47.7097 37.2127 47.9567 37.9781 47.9837 38.7672C47.9862 38.8236 47.9871 38.881 47.9871 38.9383Z" fill="white" fill-opacity="0.5"/>
</svg>
