<svg width="28" height="28" viewBox="0 0 28 28" fill="none" xmlns="http://www.w3.org/2000/svg">
<path d="M22.353 10.5475C21.7643 9.74239 20.8116 9.21919 19.7377 9.21919C19.3325 9.21919 18.9444 9.29394 18.5871 9.43031C18.3419 9.52275 18.1104 9.65847 17.898 9.80533C17.7118 9.93383 15.9416 11.4713 15.9416 11.4713L10.0232 16.5492L0 25.2352L12.2235 5.36997C12.9722 4.10525 14.2691 3.11328 15.7836 3.11328C17.0162 3.11328 18.1104 3.7027 18.8008 4.61599L19.2178 5.31293L20.5422 7.52373L22.353 10.5475Z" fill="#AAAAAA"/>
<path d="M25.6136 24.4643C24.5285 24.9619 20.3056 25.2156 18.873 25.173C18.2554 25.1547 17.664 25.0963 17.1015 24.998C12.9369 24.2741 10.334 21.388 10.0259 16.5508H16.7809C16.9553 17.3828 17.167 18.1558 17.4181 18.8671C18.2174 21.1422 19.408 22.7931 21.0064 23.7536C21.1539 23.8421 21.3047 23.9247 21.4595 24.0014C22.0974 24.3194 22.7956 24.5351 23.5536 24.6459C23.5621 24.6472 23.57 24.6485 23.5785 24.6498C23.787 24.6859 24.0171 24.7246 24.2354 24.7246C24.7219 24.7246 25.1861 24.6328 25.6129 24.4643H25.6136Z" fill="#AAAAAA"/>
<path d="M27.99 20.952C27.99 22.5458 27 23.9082 25.6016 24.4583C25.6009 24.4583 25.6009 24.4583 25.6009 24.4583H25.6003C25.1734 24.6268 24.7093 24.7186 24.2228 24.7186C24.0045 24.7186 23.7743 24.6799 23.5658 24.6439C23.5573 24.6426 23.5494 24.6412 23.5409 24.6399C22.783 24.5291 22.0848 24.3134 21.4468 23.9954C21.5294 23.865 21.6048 23.7293 21.6599 23.5844C21.8271 23.1412 21.8441 22.4462 21.7602 22.003C21.6586 21.4627 21.4252 20.9651 21.1426 20.4576L18.1378 15.2749L16.4896 12.4294L15.9316 11.4669C15.9316 11.4669 17.7019 9.92948 17.8881 9.80098C18.1005 9.65412 18.3319 9.5184 18.5771 9.42596C18.9344 9.28959 19.3226 9.21484 19.7278 9.21484C20.8017 9.21484 21.7543 9.73804 22.3431 10.5432L22.6499 11.0546L27.1823 18.6212L27.459 19.0834C27.7743 19.6099 27.9664 20.2052 27.9874 20.8189C27.9894 20.8628 27.99 20.9074 27.99 20.952Z" fill="#AAAAAA" fill-opacity="0.5"/>
</svg>
