<svg width="24" height="24" viewBox="0 0 24 24" version="1.1" xmlns="http://www.w3.org/2000/svg" xmlns:xlink="http://www.w3.org/1999/xlink">

    <g id="brand">
        <g id="brand-logo" fill-rule="nonzero">
            <path d="M22.56,0.448757396 C22.291141,0.264862634 21.989274,0.134664414 21.6710059,0.0653254438 C21.3445654,-0.00649788805 21.0079262,-0.0194825433 20.6769231,0.0269822485 C20.3300022,0.0754129884 19.9938469,0.182502461 19.6828402,0.343668639 L18.2314793,1.14461538 L16.7772781,1.94414201 L15.3216568,2.74366864 L13.8674556,3.55029586 C13.552367,3.73463914 13.2149409,3.87781851 12.863432,3.97633136 C12.5231945,4.07499884 12.1710465,4.12660261 11.8168047,4.12970414 C11.4632295,4.13403046 11.1106909,4.09056025 10.7687574,4.00047337 C10.415941,3.90703678 10.0769412,3.76761712 9.76047337,3.58579882 L8.35029586,2.81893491 L6.94011834,2.05207101 L5.52994083,1.28804734 L4.1183432,0.521183432 C3.5954303,0.187383077 2.96989974,0.0528007573 2.35597633,0.142011834 C1.78939168,0.23010826 1.26400983,0.491558907 0.852071006,0.890414201 C0.436758958,1.28408448 0.154336874,1.79730844 0.0440236686,2.35881657 C-0.0693288891,2.9676411 0.0421942615,3.59691426 0.357869822,4.12970414 L0.852071006,5.03573964 L1.94130178,7.02390533 L3.03053254,9.01207101 L3.52615385,9.91810651 C3.71030815,10.2297756 3.85350089,10.563892 3.95218935,10.9121893 C4.04573238,11.2527393 4.09348974,11.6042335 4.09420118,11.9573964 C4.09355639,12.3114979 4.04580009,12.6639394 3.95218935,13.0054438 C3.86445886,13.3649376 3.72930969,13.7111678 3.55029586,14.0350296 L2.77633136,15.4792899 L2.00094675,16.9192899 L1.22556213,18.3578698 L0.450177515,19.7978698 C0.319905851,20.0339045 0.219717449,20.2853297 0.151952663,20.5462722 C0.0880344943,20.7928227 0.059347411,21.0471815 0.0667455621,21.3017751 C0.0762621476,21.5518685 0.124158517,21.7990137 0.208757396,22.0345562 C0.294110593,22.2814547 0.417750283,22.5133989 0.575147929,22.7218935 C0.766848587,22.9853458 1.00508154,23.2115468 1.27810651,23.3893491 C1.54945243,23.5696344 1.85035527,23.7008588 2.16710059,23.7770414 C2.49210946,23.8567385 2.82864522,23.8783729 3.16118343,23.8409467 C3.50811112,23.8010683 3.84492598,23.6985803 4.15526627,23.5384615 L5.66485207,22.7105325 L7.17301775,21.8840237 L8.68118343,21.0560947 L10.1893491,20.2281657 C9.73574931,19.9024104 9.31654069,19.5312609 8.93822485,19.1204734 C8.55901408,18.7076286 8.21106995,18.2671209 7.89727811,17.8026036 C7.58059172,17.3368047 7.29088757,16.8511243 7.02248521,16.3569231 C6.78248521,15.9166864 6.55952663,15.4707692 6.34508876,15.0276923 C6.72426036,15.7377515 7.5408284,16.4918343 8.6016568,17.2487574 C9.89200426,18.1366711 11.236643,18.9429801 12.6276923,19.6629586 C14.0904142,20.4411834 15.5914793,21.1768047 16.8880473,21.8272189 C18.1846154,22.4776331 19.283787,23.0414201 19.9356213,23.471716 C20.4618732,23.7831643 21.0872553,23.8817217 21.683787,23.7472189 C22.2369784,23.6096401 22.733435,23.3028299 23.1039053,22.8695858 C23.4917995,22.4300254 23.7438763,21.8873945 23.8295858,21.3074556 C23.9189199,20.694439 23.7924123,20.0694308 23.471716,19.5394083 L22.5798817,17.9261538 L20.6272189,14.375858 L18.6745562,10.8255621 L17.7926627,9.23076923 C17.6037271,8.91269175 17.3984831,8.60458872 17.1777515,8.30769231 C16.9584678,8.01635599 16.7213262,7.73890031 16.4676923,7.47692308 C16.2156473,7.21607297 15.9461495,6.97267084 15.6610651,6.74840237 C15.371195,6.52018837 15.0645265,6.31416034 14.7436686,6.13207101 C15.2421302,6.35928994 15.7491124,6.59502959 16.2461538,6.84923077 C16.7469491,7.10151918 17.2342388,7.37976729 17.7060355,7.68284024 C18.1772686,7.98478217 18.6236558,8.32384647 19.0409467,8.69680473 C19.4619658,9.07595096 19.8405209,9.49974216 20.1699408,9.96071006 L20.9723077,8.49230769 L21.7746746,7.02390533 L22.5798817,5.55266272 L23.3822485,4.08426036 C23.5160151,3.86351779 23.616504,3.62425856 23.6804734,3.37420118 C23.744268,3.12617795 23.7729499,2.87043091 23.7656805,2.61443787 C23.7560653,2.35602939 23.7082082,2.10047237 23.6236686,1.85609467 C23.537799,1.60595511 23.4126854,1.37106749 23.2530178,1.16023669 C23.0711291,0.87974555 22.8356133,0.63795583 22.56,0.448757396 Z M3.95076923,21.0177515 C3.97151235,21.3179209 3.86259633,21.6125839 3.65161064,21.8270996 C3.44062495,22.0416153 3.14780951,22.1554051 2.84733728,22.139645 C2.23322278,22.144743 1.73125186,21.6510376 1.72615385,21.0369231 C1.72105583,20.4228086 2.21476124,19.9208377 2.82887574,19.9157396 C3.12890588,19.8945669 3.42359995,20.0031426 3.63817368,20.2139138 C3.85274742,20.424685 3.96657454,20.7173908 3.95076923,21.0177515 Z M1.75100592,2.88426036 C1.7302628,2.58409096 1.83917882,2.28942793 2.05016451,2.07491223 C2.2611502,1.86039653 2.55396564,1.74660673 2.85443787,1.76236686 C3.15460727,1.74162374 3.4492703,1.85053976 3.66378599,2.06152545 C3.87830169,2.27251114 3.99209149,2.56532658 3.97633136,2.86579882 C3.99707448,3.16596822 3.88815846,3.46063125 3.67717277,3.67514694 C3.46618708,3.88966264 3.17337164,4.00345244 2.87289941,3.98769231 C2.57273001,4.00843543 2.27806698,3.89951941 2.06355128,3.68853372 C1.84903559,3.47754803 1.73524578,3.18473259 1.75100592,2.88426036 L1.75100592,2.88426036 Z M22.0984615,20.9836686 C22.1030458,21.4342128 21.83563,21.8431048 21.4210268,22.0194999 C21.0064236,22.1958951 20.5263771,22.1050149 20.2049423,21.7892764 C19.8835076,21.473538 19.7840594,20.995193 19.9530138,20.5775024 C20.1219683,20.1598118 20.5260139,19.8851283 20.976568,19.8816568 C21.2765982,19.860484 21.5712923,19.9690598 21.785866,20.179831 C22.0004397,20.3906021 22.1142668,20.6833079 22.0984615,20.9836686 Z M14.5718343,11.5299408 C14.243787,10.9931361 13.7027219,10.7829586 13.0537278,10.7900592 C12.1672753,10.8197291 11.3833336,11.373619 11.0592574,12.1992418 C10.7351812,13.0248645 10.9330252,13.9641283 11.5626036,14.5888757 C10.8591043,14.4993019 10.2208115,14.1316287 9.79036747,13.5680219 C9.35992344,13.0044151 9.17320993,12.2918568 9.27195266,11.5895858 C9.48071006,10.1822485 10.8795266,9.0887574 12.2854438,9.28615385 C13.475503,9.48781065 14.4539645,10.3413018 14.5689941,11.5299408 L14.5718343,11.5299408 Z M22.1779882,2.79053254 C22.1626037,3.39025145 21.6748206,3.86994954 21.0749283,3.87530914 C20.4750361,3.88066874 19.97876,3.4097625 19.9526627,2.8104142 C19.9680472,2.21069529 20.4558303,1.7309972 21.0557226,1.7256376 C21.6556148,1.720278 22.1518909,2.19118424 22.1779882,2.79053254 Z" id="Shape" fill="#FF694B"></path>
        </g>
    </g>
</svg>