<svg width="16" height="16" viewBox="0 0 16 16" fill="none" xmlns="http://www.w3.org/2000/svg">
<g id="Group">
<path id="Vector" d="M0.68352 4.89041C0.986113 4.89041 1.2313 4.64515 1.2313 4.34263V2.00705L4.75935 5.53438C4.86635 5.6413 5.00651 5.69477 5.14667 5.69477C5.2869 5.69477 5.42713 5.6413 5.53406 5.5343C5.74798 5.32038 5.74798 4.97353 5.53398 4.75967L2.00578 1.23227H4.34187C4.64439 1.23227 4.88965 0.987016 4.88965 0.684497C4.88965 0.381977 4.64447 0.136719 4.34187 0.136719H0.68352C0.380928 0.136719 0.135742 0.381977 0.135742 0.684497V4.3427C0.135742 4.64515 0.380928 4.89041 0.68352 4.89041Z" fill="#8390A3"/>
<path id="Vector_2" d="M15.3165 11.1129C15.0139 11.1129 14.7687 11.3582 14.7687 11.6607V13.9963L11.132 10.3597C10.918 10.1457 10.5713 10.1457 10.3573 10.3597C10.1434 10.5736 10.1434 10.9204 10.3573 11.1343L13.9939 14.7709H11.6584C11.3558 14.7709 11.1106 15.0161 11.1106 15.3187C11.1106 15.6212 11.3558 15.8664 11.6584 15.8664H15.3166C15.6192 15.8664 15.8643 15.6212 15.8643 15.3187V11.6607C15.8643 11.3582 15.619 11.1129 15.3165 11.1129Z" fill="#8390A3"/>
<path id="Vector_3" d="M4.86796 10.3597L1.23166 13.9963V11.6607C1.23166 11.3582 0.986479 11.1129 0.683886 11.1129C0.381294 11.1129 0.136108 11.3582 0.136108 11.6607V15.3188C0.136108 15.6213 0.381294 15.8666 0.683886 15.8666H4.34187C4.64439 15.8666 4.88965 15.6213 4.88965 15.3188C4.88965 15.0163 4.64447 14.771 4.34187 14.771H2.0063L5.64266 11.1343C5.85659 10.9204 5.85659 10.5735 5.64259 10.3596C5.42881 10.1457 5.08196 10.1457 4.86796 10.3597Z" fill="#8390A3"/>
<path id="Vector_4" d="M15.3165 0.136719H11.6584C11.3558 0.136719 11.1106 0.381977 11.1106 0.684497C11.1106 0.987016 11.3558 1.23227 11.6584 1.23227H13.994L10.4665 4.76004C10.2525 4.97396 10.2525 5.32082 10.4665 5.53474C10.5735 5.64167 10.7137 5.69513 10.8539 5.69513C10.994 5.69513 11.1342 5.64159 11.2412 5.53467L14.7688 2.00691V4.34263C14.7688 4.64515 15.014 4.89041 15.3166 4.89041C15.6192 4.89041 15.8643 4.64515 15.8643 4.34263V0.684497C15.8643 0.381904 15.619 0.136719 15.3165 0.136719Z" fill="#8390A3"/>
</g>
</svg>
