<svg width="24" height="24" viewBox="0 0 24 24" fill="none" xmlns="http://www.w3.org/2000/svg">
    <path
        d="M18 13.5C16.8065 13.5 15.6619 13.9741 14.818 14.818C13.9741 15.6619 13.5 16.8065 13.5 18C13.5 19.1935 13.9741 20.3381 14.818 21.182C15.6619 22.0259 16.8065 22.5 18 22.5C19.1935 22.5 20.3381 22.0259 21.182 21.182C22.0259 20.3381 22.5 19.1935 22.5 18C22.5 16.8065 22.0259 15.6619 21.182 14.818C20.3381 13.9741 19.1935 13.5 18 13.5ZM19.965 21L18 19.5L16.05 21L16.8 18.705L15 17.46H17.205L18 15L18.81 17.46H21L19.2 18.705L19.965 21Z"
        fill="#000000" />
    <path fill-rule="evenodd" clip-rule="evenodd"
        d="M16.7552 12.1276C15.7919 12.3282 14.8931 12.7639 14.1388 13.396C13.3846 14.028 12.7983 14.8367 12.4322 15.7501H9.61373V19.0516C9.61373 19.1731 9.65573 19.2766 9.74873 19.3696C9.78988 19.4128 9.83948 19.447 9.89444 19.4703C9.94941 19.4935 10.0086 19.5052 10.0682 19.5046H12.1877C12.3212 20.0266 12.5222 20.5216 12.7817 20.9776C12.6827 20.9926 12.5807 21.0001 12.4772 21.0001H10.0682C9.81146 21.0022 9.55685 20.953 9.31935 20.8554C9.08186 20.7577 8.86626 20.6137 8.68523 20.4316C8.32009 20.0651 8.11512 19.5689 8.11523 19.0516V16.6516C8.11523 15.9331 7.97723 15.2701 7.70423 14.6581C7.42714 14.0315 7.03194 13.4641 6.54023 12.9871C5.90612 12.3699 5.39416 11.6386 5.03123 10.8316C4.67364 10.0183 4.49265 9.13842 4.50023 8.25005C4.49593 7.05255 4.81518 5.87611 5.42423 4.84505C5.71973 4.34105 6.07223 3.88505 6.48173 3.47405C6.89138 3.06727 7.35047 2.7135 7.84823 2.42105C8.35523 2.12705 8.89823 1.89905 9.47423 1.74005C10.0605 1.57843 10.6661 1.49768 11.2742 1.50005C12.4741 1.49648 13.653 1.81451 14.6882 2.42105C15.6957 3.0044 16.5342 3.83974 17.1212 4.84505C17.7299 5.87629 18.0491 7.0526 18.0452 8.25005C18.0452 9.17555 17.8697 10.0366 17.5157 10.8316C17.3113 11.2902 17.0553 11.7249 16.7552 12.1276Z"
        fill="#000000" />
    <circle cx="18" cy="6" r="5" fill="#FFCE73" />
    <path
        d="M18.0026 6.66927C18.3708 6.66927 18.6693 6.37079 18.6693 6.0026C18.6693 5.63441 18.3708 5.33594 18.0026 5.33594C17.6344 5.33594 17.3359 5.63441 17.3359 6.0026C17.3359 6.37079 17.6344 6.66927 18.0026 6.66927Z"
        fill="#082247" />
    <path
        d="M21.3146 5.88498C20.7776 4.52982 19.4589 3.64759 18.0013 3.66833C16.5437 3.64759 15.225 4.52982 14.688 5.88498C14.6613 5.96048 14.6613 6.04284 14.688 6.11832C15.225 7.47348 16.5437 8.3557 18.0013 8.33499C19.4589 8.3557 20.7776 7.47348 21.3146 6.11832C21.3413 6.04282 21.3414 5.96048 21.3146 5.88498ZM18.002 7.33499H18.0013C17.2649 7.33499 16.668 6.73803 16.668 6.00166C16.668 5.26527 17.2649 4.66833 18.0013 4.66833C18.7377 4.66833 19.3346 5.26527 19.3346 6.00166C19.3348 6.73783 18.7382 7.33479 18.002 7.33499Z"
        fill="#082247" />
</svg>