<svg width="24" height="24" viewBox="0 0 24 24" fill="none" xmlns="http://www.w3.org/2000/svg">
    <rect x="3.5" y="4.5" width="16" height="16" rx="1.5" stroke="black" />
    <circle cx="7.53229" cy="9.6651" r="1.76667" stroke="black" />
    <circle cx="15.4659" cy="9.6651" r="1.76667" stroke="black" />
    <circle cx="13.2003" cy="15.3331" r="1.76667" stroke="black" />
    <path d="M7.5332 5V8.4" stroke="black" />
    <path d="M7.5332 20.9974V17.3307C7.5332 16.2262 8.42863 15.3307 9.5332 15.3307H11.4999M9.2332 9.66406H13.7665"
        stroke="black" />
    <circle cx="18" cy="6" r="5" fill="#FFCE73" />
    <path
        d="M18.0026 6.66927C18.3708 6.66927 18.6693 6.37079 18.6693 6.0026C18.6693 5.63441 18.3708 5.33594 18.0026 5.33594C17.6344 5.33594 17.3359 5.63441 17.3359 6.0026C17.3359 6.37079 17.6344 6.66927 18.0026 6.66927Z"
        fill="#082247" />
    <path
        d="M21.3146 5.88498C20.7776 4.52982 19.4589 3.64759 18.0013 3.66833C16.5437 3.64759 15.225 4.52982 14.688 5.88498C14.6613 5.96048 14.6613 6.04284 14.688 6.11832C15.225 7.47348 16.5437 8.3557 18.0013 8.33499C19.4589 8.3557 20.7776 7.47348 21.3146 6.11832C21.3413 6.04282 21.3414 5.96048 21.3146 5.88498ZM18.002 7.33499H18.0013C17.2649 7.33499 16.668 6.73803 16.668 6.00166C16.668 5.26527 17.2649 4.66833 18.0013 4.66833C18.7377 4.66833 19.3346 5.26527 19.3346 6.00166C19.3348 6.73783 18.7382 7.33479 18.002 7.33499Z"
        fill="#082247" />
</svg>