<?xml version="1.0" encoding="UTF-8" standalone="no" ?>
<!DOCTYPE svg PUBLIC "-//W3C//DTD SVG 1.1//EN" "http://www.w3.org/Graphics/SVG/1.1/DTD/svg11.dtd">
<svg xmlns="http://www.w3.org/2000/svg" xmlns:xlink="http://www.w3.org/1999/xlink" version="1.1" width="32" height="32" viewBox="0 0 32 32" xml:space="preserve">
<desc>Created with Fabric.js 3.6.6</desc>
<defs>
</defs>
<g transform="matrix(0.06 0 0 0.06 16.2 15.8)"  >
<g style=""   >
		<g transform="matrix(1.33 0 0 1.33 -0.56 63.06)"  >
<path style="stroke: none; stroke-width: 1; stroke-dasharray: none; stroke-linecap: butt; stroke-dashoffset: 0; stroke-linejoin: miter; stroke-miterlimit: 4; fill: rgb(66,66,66); fill-rule: nonzero; opacity: 1;"  transform=" translate(-350.01, -330.68)" d="m 300.14 341.1 c 10.402 5.1836 20.383 9.7266 30.234 14.031 l -17.82 36.918 c -2.1094 4.3047 -5.9297 7.4844 -10.535 8.7812 h -0.054687 l -82.961 23.172 c -6.2227 1.75 -10.57 0.74609 -14.039 -1.4258 c -3.4648 -2.1406 -6.0547 -5.8008 -7.2227 -9.9492 c -1.1367 -4.1484 -0.83984 -8.5859 0.96875 -12.219 c 1.8477 -3.6289 5.1289 -6.7383 11.316 -8.457 l 72.719 -20.352 c 1.9492 -0.55469 3.5664 -1.8867 4.4375 -3.7344 z m -25.496 -152.64 l 81.211 0.19922 c 1.6875 0 3.3047 0.35547 4.8594 0.94141 l 25.406 10.18 c 2.1406 0.83984 3.957 2.2344 5.1523 3.6289 l 36.98 42.977 c 1.9844 2.332 5.25 3.1094 8.0703 1.9414 l 47.246 -19.762 c 5.0586 -2.1094 8.6875 -1.7227 11.641 -0.39062 c 2.9805 1.293 5.375 3.8828 6.6719 7.0234 c 1.3008 3.1094 1.3945 6.6445 0.26563 9.6875 c -1.1367 3.0195 -3.4102 5.8672 -8.4609 7.9688 l -60.762 25.379 h -0.03125 c -5.2812 2.1953 -11.305 0.77734 -15.062 -3.5664 l -23.988 -27.801 c -3.3086 -3.8281 -9.4336 -3.0547 -11.668 1.4883 l -27.609 56.848 c -1.7227 3.5586 -0.19922 7.8398 3.4023 9.4883 l 45.664 20.938 c 4.4375 2.0391 7.7422 5.9297 9.0352 10.629 v 0.03125 l 29.691 105.29 c 1.6484 5.8984 0.67969 10.012 -1.4609 13.422 c -2.1719 3.3672 -5.8672 5.9531 -10.078 7.125 c -4.1797 1.1953 -8.7188 0.94141 -12.312 -0.81641 c -3.6016 -1.75 -6.5781 -4.7969 -8.2695 -10.695 l -26.633 -94.758 c -0.55469 -1.9727 -1.9492 -3.6289 -3.8008 -4.5039 l -88.375 -40.637 c -8.4883 -4.6367 -11.566 -14.715 -6.9688 -22.98 l 40.477 -72.297 c 2.6328 -4.7031 -0.71484 -10.473 -6.0898 -10.504 l -35.648 -0.070312 c -1.9414 0 -3.7578 0.77734 -5.082 2.1719 l -37.18 38.629 c -3.6602 3.7891 -7 4.8281 -10.203 4.7617 c -3.2109 -0.070313 -6.4219 -1.4883 -8.9102 -3.8594 c -2.4648 -2.3633 -4.0898 -5.5703 -4.2812 -8.7812 c -0.19922 -3.1797 0.77734 -6.5781 4.4062 -10.371 l 43.199 -44.883 c 2.8477 -2.9258 6.4453 -4.0664 9.4961 -4.0664 z m 0 -14.09 c -7.4219 0 -14.516 3.043 -19.637 8.3945 l -43.23 44.883 c -6.0312 6.2539 -8.7188 13.938 -8.2695 21.031 c 0.42188 7.0977 3.7344 13.414 8.5312 18.051 c 4.8281 4.6367 11.273 7.7148 18.375 7.8398 c 7.125 0.16797 14.711 -2.8438 20.707 -9.1328 l 35.062 -36.461 l 20.613 0.070313 l -34.613 61.801 c -8.4609 15.078 -2.4961 34.098 12.543 42.262 c 0.96875 0.54688 1.9102 1.0391 2.8828 1.5625 l -11.73 24.172 l -69.672 19.508 c -9.4648 2.6641 -16.469 8.5547 -20.059 15.688 c -3.6016 7.0938 -3.9883 15.133 -1.9844 22.395 c 2.0469 7.293 6.5508 13.938 13.32 18.148 c 6.7695 4.207 15.781 5.6328 25.281 2.9805 l 83.031 -23.141 c 8.5195 -2.3633 15.586 -8.2617 19.438 -16.203 l 18.117 -37.5 c 8.9805 3.8906 18.051 7.7852 27.547 12.09 l 25.805 91.617 c 2.6211 9.332 8.5547 16.148 15.648 19.582 c 7.0977 3.4648 15.078 3.7266 22.301 1.7188 c 7.2227 -2.0391 13.871 -6.4531 18.113 -13.098 c 4.2812 -6.6719 5.8047 -15.555 3.1797 -24.859 l -29.648 -105.25 v -0.070313 c -2.4336 -8.6562 -8.5547 -15.848 -16.727 -19.605 l -39.145 -17.949 l 19.762 -40.711 l 16.98 19.738 c 7.7148 8.918 20.352 11.898 31.211 7.3242 v 0.03125 l 60.762 -25.406 c 8.1094 -3.3789 13.746 -9.332 16.234 -16.012 c 2.5312 -6.7148 2.0703 -13.871 -0.48047 -20.09 c -2.5938 -6.1914 -7.3906 -11.566 -13.938 -14.516 c -6.5156 -2.918 -14.711 -3.043 -22.816 0.32422 l -42.516 17.766 l -33.645 -39.148 c -3.0781 -3.5664 -7.0234 -6.0898 -10.598 -7.5156 l -25.406 -10.18 c -3.4102 -1.3633 -7.0703 -1.9102 -10.109 -1.9102 z" stroke-linecap="round" />
</g>
		<g transform="matrix(1.33 0 0 1.33 71.14 -202.83)"  >
<path style="stroke: none; stroke-width: 1; stroke-dasharray: none; stroke-linecap: butt; stroke-dashoffset: 0; stroke-linejoin: miter; stroke-miterlimit: 4; fill: rgb(66,66,66); fill-rule: evenodd; opacity: 1;"  transform=" translate(-403.49, -124.25)" d="m 389.48 88.973 c 9.0117 -3.5898 19.383 -3.6602 29.039 0.49219 c 19.344 8.332 28.07 30.496 19.77 49.809 c -8.332 19.312 -30.496 28.125 -49.871 19.805 c -19.258 -8.332 -28.07 -30.562 -19.738 -49.809 c 4.1836 -9.6641 11.801 -16.734 20.801 -20.297 z m -5.1797 -12.992 c -12.414 4.9297 -22.902 14.516 -28.578 27.676 c -11.344 26.281 0.81641 57.039 27.098 68.344 c 26.352 11.344 57.07 -0.81641 68.445 -27.121 c 11.344 -26.312 -0.81641 -57.07 -27.199 -68.418 c -13.129 -5.6719 -27.387 -5.4102 -39.766 -0.48047 z" stroke-linecap="round" />
</g>
</g>
</g>
</svg>