<svg width="100%" height="100%" viewBox="0 0 16 16" fill="none" xmlns="http://www.w3.org/2000/svg">
    <path
        d="M13.5445 3.32188L10.532 0.46875C10.2102 0.165625 9.79141 0 9.35078 0H3.61328C2.66641 0 1.89453 0.771875 1.89453 1.71875V14.2812C1.89453 15.2281 2.66641 16 3.61328 16H12.3633C13.3102 16 14.082 15.2281 14.082 14.2812V4.56875C14.082 4.1 13.8852 3.64375 13.5445 3.32188ZM12.6352 3.75H10.3008C10.2133 3.75 10.1445 3.68125 10.1445 3.59375V1.39375L12.6352 3.75ZM12.3633 15.0625H3.61328C3.18203 15.0625 2.83203 14.7125 2.83203 14.2812V1.71875C2.83203 1.2875 3.18203 0.9375 3.61328 0.9375H9.20703V3.59375C9.20703 4.19688 9.69766 4.6875 10.3008 4.6875H13.1445V14.2812C13.1445 14.7125 12.7945 15.0625 12.3633 15.0625Z"
        fill="#424242" />
    <path
        d="M11.332 6.25H4.45703C4.19766 6.25 3.98828 6.45937 3.98828 6.71875C3.98828 6.97812 4.19766 7.1875 4.45703 7.1875H11.332C11.5914 7.1875 11.8008 6.97812 11.8008 6.71875C11.8008 6.45937 11.5914 6.25 11.332 6.25Z"
        fill="#424242" />
    <path
        d="M11.332 8.75H4.45703C4.19766 8.75 3.98828 8.95937 3.98828 9.21875C3.98828 9.47812 4.19766 9.6875 4.45703 9.6875H11.332C11.5914 9.6875 11.8008 9.47812 11.8008 9.21875C11.8008 8.95937 11.5914 8.75 11.332 8.75Z"
        fill="#424242" />
    <path
        d="M6.72891 11.25H4.45703C4.19766 11.25 3.98828 11.4594 3.98828 11.7188C3.98828 11.9781 4.19766 12.1875 4.45703 12.1875H6.72891C6.98828 12.1875 7.19766 11.9781 7.19766 11.7188C7.19766 11.4594 6.98828 11.25 6.72891 11.25Z"
        fill="#424242" />
</svg>