<svg width="100%" height="100%" viewBox="0 0 16 16" fill="none" xmlns="http://www.w3.org/2000/svg">
    <path
        d="M13.674 3.5H11.527L11.277 2.75C11.1565 2.38583 10.9242 2.06897 10.6131 1.84453C10.302 1.62009 9.92808 1.49953 9.5445 1.5H6.4555C6.07202 1.49971 5.69821 1.62035 5.38726 1.84477C5.0763 2.06919 4.84403 2.38596 4.7235 2.75L4.473 3.5H2.326C1.84188 3.50053 1.37773 3.69308 1.03541 4.03541C0.693081 4.37774 0.500529 4.84188 0.5 5.326V12.676C0.501058 13.1598 0.693843 13.6234 1.03611 13.9653C1.37838 14.3072 1.84222 14.4995 2.326 14.5H13.676C14.1598 14.4989 14.6234 14.3062 14.9653 13.9639C15.3072 13.6216 15.4995 13.1578 15.5 12.674V5.324C15.4989 4.84023 15.3062 4.3766 14.9639 4.0347C14.6216 3.69281 14.1578 3.50053 13.674 3.5ZM14.5 12.674C14.4997 12.893 14.4126 13.1029 14.2578 13.2578C14.1029 13.4126 13.893 13.4997 13.674 13.5H2.326C2.10701 13.4997 1.89707 13.4126 1.74222 13.2578C1.58737 13.1029 1.50026 12.893 1.5 12.674V5.324C1.50079 5.10536 1.58814 4.89593 1.74293 4.74152C1.89772 4.5871 2.10736 4.50026 2.326 4.5H4.8335C4.9384 4.49992 5.04061 4.46685 5.12568 4.40548C5.21074 4.3441 5.27435 4.25752 5.3075 4.158L5.672 3.0645C5.72673 2.90003 5.83189 2.75697 5.97253 2.65564C6.11317 2.55431 6.28216 2.49985 6.4555 2.5H9.5445C9.71792 2.49981 9.88699 2.55431 10.0277 2.65575C10.1683 2.75718 10.2734 2.90039 10.328 3.065L10.6925 4.158C10.7256 4.25752 10.7893 4.3441 10.8743 4.40548C10.9594 4.46685 11.0616 4.49992 11.1665 4.5H13.674C13.893 4.50027 14.1029 4.58738 14.2578 4.74222C14.4126 4.89707 14.4997 5.10701 14.5 5.326V12.674Z"
        fill="#424242" />
    <path
        d="M8 5C7.25832 5 6.5333 5.21993 5.91661 5.63199C5.29993 6.04404 4.81928 6.62971 4.53545 7.31494C4.25162 8.00016 4.17736 8.75416 4.32206 9.48159C4.46675 10.209 4.8239 10.8772 5.34835 11.4017C5.8728 11.9261 6.54098 12.2833 7.26841 12.4279C7.99584 12.5726 8.74984 12.4984 9.43506 12.2145C10.1203 11.9307 10.706 11.4501 11.118 10.8334C11.5301 10.2167 11.75 9.49168 11.75 8.75C11.7489 7.75576 11.3535 6.80255 10.6505 6.09952C9.94745 5.39649 8.99424 5.00106 8 5ZM8 11.5C7.4561 11.5 6.92442 11.3387 6.47218 11.0365C6.01995 10.7344 5.66747 10.3049 5.45933 9.80238C5.25119 9.29988 5.19673 8.74695 5.30284 8.2135C5.40895 7.68005 5.67086 7.19005 6.05546 6.80546C6.44005 6.42086 6.93006 6.15895 7.4635 6.05284C7.99695 5.94673 8.54988 6.00119 9.05238 6.20933C9.55488 6.41747 9.98437 6.76995 10.2865 7.22218C10.5887 7.67442 10.75 8.2061 10.75 8.75C10.7492 9.4791 10.4592 10.1781 9.94367 10.6937C9.42811 11.2092 8.7291 11.4992 8 11.5Z"
        fill="#424242" />
    <path
        d="M13 6.5C13.2761 6.5 13.5 6.27614 13.5 6C13.5 5.72386 13.2761 5.5 13 5.5C12.7239 5.5 12.5 5.72386 12.5 6C12.5 6.27614 12.7239 6.5 13 6.5Z"
        fill="#424242" />
</svg>