<svg width="24" height="24" viewBox="0 0 24 24" fill="none" xmlns="http://www.w3.org/2000/svg">
    <path
        d="M18.0759 9.04183C17.6659 8.32762 17.2466 7.61341 16.8646 6.88955L15.7372 4.93995L15.3831 4.32225C14.7868 3.52118 13.8644 3 12.8115 3C11.5257 3 10.4169 3.87829 9.78334 4.98821L0 21.666L7.91053 14.8424L12.9047 10.393L14.3023 12.9024L16.8553 17.4676C17.0976 17.9115 17.2932 18.3555 17.3771 18.8284C17.4516 19.2145 17.433 19.8322 17.2932 20.2183C17.256 20.3148 17.2094 20.4016 17.1535 20.4885C15.9049 19.755 14.9639 18.4617 14.3023 16.6762C14.0973 16.1164 13.9203 15.5083 13.7712 14.8424L8.58139 14.9775C8.9075 18.8188 10.9667 21.0676 14.1812 21.5598C14.6191 21.6274 15.0663 21.666 15.5415 21.666C15.6254 21.666 15.7093 21.666 15.8117 21.666C17.0976 21.637 19.9394 21.3571 20.7034 20.9711C20.6848 20.9807 20.6661 20.9807 20.6475 20.9904C21.8308 20.5078 22.6694 19.3014 22.6694 17.9019C22.6694 17.8633 22.6694 17.8247 22.6694 17.7861C22.6508 17.2456 22.4924 16.7244 22.2222 16.2611L21.9892 15.8558C21.9054 15.7014 21.8122 15.5566 21.7283 15.4022C21.514 15.0258 21.2904 14.6493 21.0761 14.2729C20.7873 13.7807 20.5078 13.2788 20.2189 12.7866C19.9301 12.2847 19.6319 11.7732 19.3431 11.2713C18.9424 10.5185 18.5045 9.785 18.0759 9.04183ZM15.8117 20.7973C15.7186 20.7973 15.6347 20.7973 15.5695 20.7973C15.1409 20.7973 14.7216 20.7587 14.321 20.7008C11.6934 20.2955 10.0629 18.6161 9.55972 15.8268L13.1376 15.7303C13.2588 16.1743 13.3892 16.5893 13.529 16.985C14.1439 18.6547 14.9918 19.9287 16.0633 20.778C15.9795 20.7877 15.8956 20.7973 15.8117 20.7973ZM7.3049 14.1089L3.35429 17.6606L10.5846 5.48043C11.0039 4.74692 11.8052 3.96515 12.8115 3.96515C13.5196 3.96515 14.1719 4.2933 14.6098 4.87239L14.9359 5.43217L16.0633 7.38178L16.082 7.42038C16.0726 7.41073 15.9795 7.42038 15.9608 7.42038C15.9236 7.42038 15.877 7.43003 15.8397 7.43003C15.7558 7.43968 15.6813 7.44934 15.5974 7.45899C15.439 7.48794 15.2807 7.5169 15.1316 7.56515C15.0011 7.60376 14.88 7.65202 14.7589 7.70993C14.6377 7.75818 14.5259 7.80644 14.4141 7.874C14.3023 7.93191 14.1998 8.00912 14.088 8.07668C13.9296 8.1925 12.4202 9.54371 12.4202 9.54371C12.3829 9.57266 12.3643 9.60162 12.327 9.63057L7.3049 14.1089ZM19.6692 21.2027C19.6785 21.2027 19.6971 21.2027 19.7064 21.2027C19.6878 21.2027 19.6785 21.2027 19.6692 21.2027ZM20.1537 21.1448C20.3214 21.1062 20.4798 21.0579 20.6289 21C20.4705 21.0676 20.3121 21.1158 20.1537 21.1448ZM20.3587 20.0735L20.3121 20.0928C20.0512 20.1989 19.7717 20.2569 19.4828 20.2569C19.371 20.2569 19.2126 20.2279 19.0356 20.199C18.784 20.1603 18.5418 20.1024 18.3088 20.0349C18.3927 19.5426 18.3741 19.0118 18.3088 18.6547C18.1877 18.0081 17.9268 17.4579 17.6752 16.985L15.1223 12.4199L13.7153 9.91046L13.6221 9.75604C14.0414 9.37963 14.5166 8.96462 14.6098 8.89706C14.6843 8.83915 14.7775 8.79089 14.8614 8.73298C14.88 8.72333 14.8986 8.71368 14.9173 8.70403C14.9639 8.67507 15.0104 8.65577 15.0663 8.63647C15.262 8.56891 15.4577 8.5303 15.6627 8.5303C16.231 8.5303 16.7714 8.8102 17.1162 9.27347L17.3491 9.67883L21.2066 16.348L21.4395 16.7534C21.6352 17.0912 21.747 17.4579 21.7563 17.8343V17.9115C21.7563 18.867 21.2159 19.7067 20.3587 20.0735Z"
        fill="#c5c5c5" />
</svg>