<svg xmlns="http://www.w3.org/2000/svg" width="18" height="18" viewBox="0 0 18 18" fill="none">
  <g transform="translate(1 1)">
    <path fill-rule="evenodd" clip-rule="evenodd" d="M7.99935 2.66699C8.36754 2.66699 8.66602 2.9323 8.66602 3.25958L8.66602 12.7411C8.66602 13.0683 8.36754 13.3337 7.99935 13.3337C7.63116 13.3337 7.33268 13.0683 7.33268 12.7411L7.33268 3.25958C7.33268 2.9323 7.63116 2.66699 7.99935 2.66699Z" fill="#247EFE"/>
    <path fill-rule="evenodd" clip-rule="evenodd" d="M13.334 8.00033C13.334 8.36852 13.0687 8.66699 12.7414 8.66699L3.25991 8.66699C2.93263 8.66699 2.66732 8.36851 2.66732 8.00032C2.66732 7.63214 2.93263 7.33366 3.25991 7.33366L12.7414 7.33366C13.0687 7.33366 13.334 7.63214 13.334 8.00033Z" fill="#247EFE"/>
  </g>
    <circle cx="9" cy="9" r="8" stroke="#247EFE" stroke-width="2" fill="none"/>

</svg>
