<svg xmlns="http://www.w3.org/2000/svg" width="40" height="40" viewBox="0 0 40 40" fill="none">
  <rect width="40" height="40" rx="20" fill="#004FBF"/>
  <path d="M25.5634 14.7905C25.1008 14.1579 24.3523 13.7468 23.5085 13.7468C23.1901 13.7468 22.8851 13.8055 22.6044 13.9127C22.4117 13.9853 22.2299 14.092 22.063 14.2073C21.9167 14.3083 20.5258 15.5163 20.5258 15.5163L15.8755 19.5062L8 26.331L17.6043 10.7224C18.1926 9.72864 19.2116 8.94922 20.4016 8.94922C21.3701 8.94922 22.2299 9.41234 22.7723 10.1299L23.1 10.6775L24.1406 12.4146L25.5634 14.7905Z" fill="white"/>
  <path d="M28.1227 25.7257C27.2701 26.1167 23.952 26.316 22.8264 26.2825C22.3412 26.2681 21.8765 26.2223 21.4345 26.145C18.1623 25.5763 16.1171 23.3086 15.875 19.5078H21.1826C21.3196 20.1615 21.486 20.7689 21.6833 21.3278C22.3113 23.1154 23.2468 24.4126 24.5027 25.1672C24.6186 25.2368 24.7371 25.3017 24.8587 25.362C25.3599 25.6118 25.9086 25.7813 26.5041 25.8684C26.5108 25.8694 26.517 25.8704 26.5237 25.8715C26.6875 25.8998 26.8683 25.9302 27.0398 25.9302C27.4221 25.9302 27.7868 25.8581 28.1222 25.7257H28.1227Z" fill="white"/>
  <path d="M29.9981 22.9683C29.9981 24.2206 29.2202 25.2911 28.1214 25.7233C28.1209 25.7233 28.1209 25.7233 28.1209 25.7233H28.1203C27.785 25.8557 27.4203 25.9278 27.038 25.9278C26.8665 25.9278 26.6857 25.8974 26.5218 25.8691C26.5151 25.8681 26.509 25.867 26.5023 25.866C25.9068 25.779 25.3581 25.6095 24.8569 25.3596C24.9218 25.2571 24.981 25.1505 25.0243 25.0366C25.1557 24.6884 25.1691 24.1423 25.1031 23.7941C25.0233 23.3696 24.8399 22.9786 24.6178 22.5799L22.2569 18.5076L20.9618 16.2719L20.5234 15.5156C20.5234 15.5156 21.9143 14.3076 22.0606 14.2066C22.2276 14.0912 22.4094 13.9846 22.6021 13.912C22.8828 13.8048 23.1878 13.7461 23.5062 13.7461C24.35 13.7461 25.0985 14.1572 25.5611 14.7898L25.8022 15.1916L29.3634 21.1369L29.5808 21.5001C29.8286 21.9138 29.9795 22.3815 29.996 22.8637C29.9976 22.8982 29.9981 22.9333 29.9981 22.9683Z" fill="white"/>
</svg>