<svg width="60" height="60" viewBox="0 0 60 60" fill="none" xmlns="http://www.w3.org/2000/svg">
<rect width="60" height="60" rx="30" fill="#247EFE"/>
<path d="M38.5918 26.4513C37.9862 25.6232 37.0063 25.0851 35.9017 25.0851C35.485 25.0851 35.0858 25.1619 34.7182 25.3022C34.466 25.3973 34.228 25.5369 34.0095 25.6879C33.8179 25.8201 31.9972 27.4015 31.9972 27.4015L25.9097 32.6245L15.6001 41.5586L28.1728 21.1259C28.943 19.825 30.2769 18.8047 31.8346 18.8047C33.1024 18.8047 34.228 19.4109 34.9381 20.3503L35.367 21.0672L36.7292 23.3411L38.5918 26.4513Z" fill="white"/>
<path d="M41.9451 40.7646C40.8291 41.2764 36.4855 41.5374 35.012 41.4936C34.3767 41.4747 33.7685 41.4147 33.1899 41.3135C28.9063 40.569 26.2291 37.6005 25.9121 32.625H32.8601C33.0395 33.4808 33.2573 34.2758 33.5156 35.0075C34.3376 37.3476 35.5623 39.0456 37.2064 40.0336C37.3581 40.1246 37.5132 40.2096 37.6724 40.2885C38.3285 40.6156 39.0467 40.8374 39.8263 40.9514C39.8351 40.9527 39.8432 40.9541 39.8519 40.9554C40.0664 40.9925 40.3031 41.0323 40.5276 41.0323C41.028 41.0323 41.5055 40.9379 41.9445 40.7646H41.9451Z" fill="white"/>
<path d="M44.3897 37.1506C44.3897 38.79 43.3715 40.1913 41.933 40.7571C41.9324 40.7571 41.9324 40.7571 41.9324 40.7571H41.9317C41.4927 40.9304 41.0152 41.0249 40.5148 41.0249C40.2903 41.0249 40.0536 40.9851 39.8391 40.948C39.8304 40.9466 39.8223 40.9453 39.8135 40.9439C39.0339 40.83 38.3157 40.6081 37.6596 40.281C37.7445 40.1468 37.8221 40.0072 37.8787 39.8582C38.0507 39.4023 38.0682 38.6875 37.9819 38.2316C37.8774 37.676 37.6373 37.1641 37.3467 36.6421L34.2561 31.3113L32.5607 28.3845L31.9868 27.3946C31.9868 27.3946 33.8076 25.8132 33.9991 25.681C34.2176 25.53 34.4557 25.3904 34.7079 25.2953C35.0754 25.155 35.4746 25.0781 35.8914 25.0781C36.996 25.0781 37.9759 25.6163 38.5814 26.4444L38.897 26.9704L43.5589 34.7533L43.8435 35.2287C44.1679 35.7702 44.3655 36.3825 44.387 37.0137C44.3891 37.0589 44.3897 37.1048 44.3897 37.1506Z" fill="white" fill-opacity="0.5"/>
</svg>
