<svg width="16" height="16" viewBox="0 0 16 16" fill="none" xmlns="http://www.w3.org/2000/svg">
<path d="M15.0898 6.34827L2.76564 0.138232C2.24645 -0.123415 1.65988 -0.00831506 1.2349 0.438463C0.809917 0.885313 0.632167 1.57381 0.771073 2.23525L1.86803 7.4592H7.2389C7.48604 7.4592 7.68644 7.70251 7.68644 8.00267C7.68644 8.30279 7.48607 8.54615 7.2389 8.54615H1.86803L0.771073 13.7701C0.632167 14.4315 0.809887 15.12 1.2349 15.5668C1.66075 16.0145 2.24737 16.1282 2.76567 15.8671L15.0898 9.65708C15.651 9.37434 15.9995 8.74041 15.9995 8.00267C15.9995 7.26494 15.651 6.63096 15.0898 6.34827Z" fill="#8390A3"/>
</svg>
