<svg width="80" height="80" viewBox="0 0 80 80" fill="none" xmlns="http://www.w3.org/2000/svg">
<g id="blog 2">
<path id="Vector" fill-rule="evenodd" clip-rule="evenodd" d="M51.38 56.12L42.895 59.13C42.3175 59.335 41.675 59.19 41.2425 58.7575C40.81 58.325 40.665 57.6825 40.87 57.105L43.88 48.62C43.8975 48.5725 43.9225 48.53 43.96 48.495L66.4075 26.045C67.515 24.9375 69.3125 24.9375 70.42 26.045L73.955 29.58C75.0625 30.6875 75.0625 32.485 73.955 33.5925L51.505 56.04C51.47 56.0775 51.4275 56.1025 51.38 56.12ZM60 54.6175V62.5C60 64.49 59.21 66.3975 57.8025 67.8025C56.3975 69.21 54.49 70 52.5 70H12.5C10.51 70 8.6025 69.21 7.1975 67.8025C5.79 66.3975 5 64.49 5 62.5V27.5H57.8825L40.4225 44.96C39.8625 45.52 39.4325 46.2 39.1675 46.95L36.1575 55.4325C35.3075 57.8275 35.9125 60.495 37.7075 62.2925C39.505 64.0875 42.1725 64.6925 44.5675 63.8425L53.05 60.8325C53.8 60.5675 60 54.6175 60 54.6175ZM17.5 57.5H25.4225C26.8025 57.5 27.9225 56.38 27.9225 55C27.9225 53.62 26.8025 52.5 25.4225 52.5H17.5C16.12 52.5 15 53.62 15 55C15 56.38 16.12 57.5 17.5 57.5ZM17.5 47.5H30.4225C31.8025 47.5 32.9225 46.38 32.9225 45C32.9225 43.62 31.8025 42.5 30.4225 42.5H17.5C16.12 42.5 15 43.62 15 45C15 46.38 16.12 47.5 17.5 47.5ZM17.5 37.5H40.4225C41.8025 37.5 42.9225 36.38 42.9225 35C42.9225 33.62 41.8025 32.5 40.4225 32.5H17.5C16.12 32.5 15 33.62 15 35C15 36.38 16.12 37.5 17.5 37.5ZM5 22.5V17.5C5 15.51 5.79 13.6025 7.1975 12.1975C8.6025 10.79 10.51 10 12.5 10H52.5C54.49 10 56.3975 10.79 57.8025 12.1975C59.21 13.6025 60 15.51 60 17.5V22.5H5Z" fill="#E8E8E8"/>
</g>
</svg>
