<svg width="14" height="14" viewBox="0 0 14 14" fill="none" xmlns="http://www.w3.org/2000/svg">
<g id="Tick Square">
<path id="Tick Square_2" fill-rule="evenodd" clip-rule="evenodd" d="M4.11337 0.333252H9.89337C12.1534 0.333252 13.6667 1.91992 13.6667 4.27992V9.72725C13.6667 12.0799 12.1534 13.6666 9.89337 13.6666H4.11337C1.85337 13.6666 0.333374 12.0799 0.333374 9.72725V4.27992C0.333374 1.91992 1.85337 0.333252 4.11337 0.333252ZM6.62004 8.99325L9.78671 5.82659C10.0134 5.59992 10.0134 5.23325 9.78671 4.99992C9.56004 4.77325 9.18671 4.77325 8.96004 4.99992L6.20671 7.75325L5.04004 6.58659C4.81337 6.35992 4.44004 6.35992 4.21337 6.58659C3.98671 6.81325 3.98671 7.17992 4.21337 7.41325L5.80004 8.99325C5.91337 9.10659 6.06004 9.15992 6.20671 9.15992C6.36004 9.15992 6.50671 9.10659 6.62004 8.99325Z" fill="#E8E8E8"/>
</g>
</svg>
