<svg width="10" height="13" viewBox="0 0 10 13" fill="none" xmlns="http://www.w3.org/2000/svg">
<path fill-rule="evenodd" clip-rule="evenodd" d="M1.36792 8.406C-1.36412 5.54335 0.739005 0.682248 4.69995 0.708615C8.6593 0.680818 10.7646 5.54394 8.032 8.40595C7.62135 8.84315 7.3952 9.39735 7.3952 9.96635C7.3952 10.2929 7.20335 10.5754 6.92645 10.7073V11.6538C6.92645 12.2353 6.45335 12.7085 5.8718 12.7085H3.52806C2.94651 12.7085 2.47338 12.2353 2.47338 11.6538V10.7073C2.19649 10.5754 2.00464 10.2929 2.00464 9.96635C2.00464 9.39735 1.77849 8.84315 1.36792 8.406ZM5.8718 12.0054C6.06565 12.0054 6.22335 11.8476 6.22335 11.6538V10.7866H3.1765V11.6538C3.1765 11.8476 3.33421 12.0054 3.52806 12.0054H5.8718ZM3.34806 6.7395C3.11955 6.968 3.11955 7.33975 3.34806 7.56825C3.4622 7.6824 3.61243 7.7398 3.76245 7.7398C4.08565 7.7398 4.34835 7.47705 4.34835 7.15385V3.4039C4.34835 3.0807 4.0854 2.81821 3.7622 2.81821C3.6122 2.81821 3.4622 2.87539 3.34806 2.98953C3.11955 3.21804 3.11955 3.58976 3.34806 3.81827C3.4854 3.95562 3.4854 4.17804 3.34806 4.31538C3.21072 4.45272 2.98806 4.45272 2.85096 4.31538C2.74479 4.20921 2.66135 4.08897 2.59994 3.96077C2.21515 4.16393 2.11526 4.71773 2.41816 5.04439C2.53767 5.17789 2.53758 5.38002 2.41807 5.51349C2.11524 5.8401 2.21506 6.39375 2.59994 6.597C2.66135 6.4688 2.74479 6.34855 2.85096 6.2424C2.98806 6.10505 3.21072 6.10505 3.34806 6.2424C3.4854 6.37975 3.4854 6.60215 3.34806 6.7395ZM6.6921 9.96635C6.6921 9.2178 6.98595 8.4927 7.5195 7.9246C9.83165 5.50243 8.05025 1.38895 4.7 1.41176C1.34952 1.38837 -0.431475 5.5028 1.88035 7.9246C2.4139 8.49265 2.70775 9.2178 2.70775 9.96635C2.70775 10.0309 2.76032 10.0835 2.82494 10.0835H4.34835L5.0515 10.0835L6.5749 10.0835C6.6395 10.0835 6.6921 10.0309 6.6921 9.96635ZM4.69995 7.9585L5.0515 8.30145C5.8284 8.7167 6.82515 8.1789 6.91685 7.31205C7.7316 7.05175 8.1246 6.0258 7.6755 5.27888C8.12465 4.53184 7.73145 3.50597 6.91685 3.2457C6.7915 2.17274 5.4322 1.72823 4.69995 2.52055C3.9673 1.7279 2.60812 2.17328 2.48299 3.2457C1.66827 3.50602 1.27525 4.53196 1.72433 5.27888C1.27518 6.02595 1.66841 7.0518 2.48299 7.31205C2.57475 8.1791 3.57158 8.7166 4.34835 8.30145L4.69995 7.9585ZM6.0518 4.31538C5.91445 4.17804 5.91445 3.95562 6.0518 3.81827C6.2803 3.58976 6.2803 3.21804 6.0518 2.98953C5.93765 2.87539 5.7874 2.81797 5.63745 2.81797C5.31425 2.81797 5.0515 3.0807 5.0515 3.4039V7.15385C5.0515 7.47705 5.31445 7.73955 5.63765 7.73955C5.78765 7.73955 5.93765 7.6824 6.0518 7.56825C6.2803 7.33975 6.2803 6.968 6.0518 6.7395C5.91445 6.60215 5.91445 6.37975 6.0518 6.2424C6.18915 6.10505 6.4118 6.10505 6.5489 6.2424C6.6551 6.34855 6.7385 6.4688 6.79995 6.597C7.1847 6.39385 7.2846 5.84005 6.9817 5.51337C6.8622 5.37988 6.86225 5.17775 6.9818 5.04428C7.2846 4.71766 7.1848 4.164 6.7999 3.96077C6.7385 4.08897 6.65505 4.20921 6.5489 4.31538C6.4118 4.45272 6.18915 4.45272 6.0518 4.31538Z" fill="white"/>
</svg>
