<svg width="80" height="80" viewBox="0 0 80 80" fill="none" xmlns="http://www.w3.org/2000/svg">
<g id="Contact">
<g id="Group 1000008718">
<g id="Group">
<g id="Group_2">
<path id="Vector" d="M48.8164 7H9.50391C5.90493 7 3 9.90493 3 13.5039V39.5195C3 43.1182 5.90493 46.0234 9.50391 46.0234H11.6719V52.5273C11.6719 54.0936 13.2937 55.2279 14.8805 54.4352C14.9238 54.3918 15.0107 54.3918 15.0541 54.3483C26.9802 46.3507 24.3074 48.1339 26.9779 46.3702C27.3246 46.1534 27.7148 46.0234 28.1484 46.0234H48.8164C52.4154 46.0234 55.3203 43.1182 55.3203 39.5195V13.5039C55.3203 9.90493 52.4154 7 48.8164 7ZM31.4727 33.0156H13.8398C10.982 33.0156 10.9703 28.6797 13.8398 28.6797H31.4727C34.3305 28.6797 34.3422 33.0156 31.4727 33.0156ZM44.4805 24.3438H13.8398C10.982 24.3438 10.9703 20.0078 13.8398 20.0078H44.4805C47.3383 20.0078 47.35 24.3438 44.4805 24.3438Z" fill="#E8E8E8"/>
</g>
</g>
<g id="Group_3">
<g id="Group_4">
<path id="Vector_2" d="M70.4961 24.3438H59.6562V39.5195C59.6562 45.5031 54.8 50.3594 48.8164 50.3594H28.7988L24.6797 53.091V56.8633C24.6797 60.462 27.5846 63.3672 31.1836 63.3672H52.5018L64.9459 71.692C66.6445 72.6351 68.3281 71.4883 68.3281 69.8711V63.3672H70.4961C74.0951 63.3672 77 60.462 77 56.8633V30.8477C77 27.2488 74.0951 24.3438 70.4961 24.3438Z" fill="#E8E8E8"/>
</g>
</g>
</g>
</g>
</svg>
