<svg width="10" height="10" viewBox="0 0 10 10" fill="none" xmlns="http://www.w3.org/2000/svg">
<g id="copy 1" clip-path="url(#clip0_17749_3332)">
<path id="Vector" d="M6.69373 9.79919H1.69377C1.08696 9.79919 0.59375 9.30598 0.59375 8.69917V3.29917C0.59375 2.69236 1.08696 2.19922 1.69377 2.19922H1.89373C2.05933 2.19922 2.19373 2.33362 2.19373 2.49922C2.19373 2.66482 2.05933 2.79922 1.89373 2.79922H1.69377C1.41816 2.79922 1.19375 3.02356 1.19375 3.29917V8.69917C1.19375 8.97478 1.41816 9.19919 1.69377 9.19919H6.69373C6.96934 9.19919 7.19375 8.97478 7.19375 8.69917V8.49922C7.19375 8.33362 7.32815 8.19922 7.49375 8.19922C7.65935 8.19922 7.79375 8.33362 7.79375 8.49922V8.69917C7.79375 9.30598 7.30054 9.79919 6.69373 9.79919Z" fill="#E7E8EA"/>
<path id="Vector_2" d="M8.29392 7.39922H4.09392C3.48711 7.39922 2.9939 6.90601 2.9939 6.29919V1.29924C2.9939 0.692432 3.48711 0.199219 4.09392 0.199219H8.29392C8.90073 0.199219 9.39387 0.692432 9.39387 1.29924V6.29919C9.39387 6.90601 8.90073 7.39922 8.29392 7.39922ZM4.09392 0.799219C3.81831 0.799219 3.5939 1.02363 3.5939 1.29924V6.29919C3.5939 6.5748 3.81831 6.79922 4.09392 6.79922H8.29392C8.56953 6.79922 8.79387 6.5748 8.79387 6.29919V1.29924C8.79387 1.02363 8.56953 0.799219 8.29392 0.799219H4.09392Z" fill="#E7E8EA"/>
</g>
<defs>
<clipPath id="clip0_17749_3332">
<rect width="9.6" height="9.6" fill="white" transform="translate(0.200195 0.199219)"/>
</clipPath>
</defs>
</svg>
