<svg xmlns="http://www.w3.org/2000/svg" width="20" height="20" viewBox="0 0 20 20" fill="none">
  <path d="M9.96214 17.0866L9.96215 17.0866L9.96423 17.0898C10.0734 17.2547 10.2894 17.4259 10.568 17.5244C10.8423 17.6214 11.1318 17.6319 11.3806 17.5389L11.3882 17.536L11.396 17.5334C11.9849 17.3351 12.3689 16.6585 12.25 16.1037L12.2472 16.0907L12.2451 16.0775L11.8118 13.3525L11.8116 13.3525L11.8099 13.34C11.7589 12.9571 11.8618 12.5937 12.0919 12.3094L12.0997 12.2998L12.1079 12.2906C12.3402 12.0309 12.6821 11.8656 13.0556 11.8656H16.4806C17.0041 11.8656 17.4062 11.6567 17.631 11.3431C17.8389 11.0466 17.8975 10.638 17.7339 10.1734L17.7338 10.1734L17.7305 10.1633L15.6805 3.92164L15.6749 3.90445L15.6705 3.88689C15.4718 3.09216 14.5597 2.39062 13.6556 2.39062H10.4056C10.1771 2.39062 9.88983 2.43084 9.62364 2.51034C9.34714 2.59292 9.15331 2.69998 9.05911 2.79418L9.03662 2.81667L9.01145 2.83613L7.9453 3.66074C7.94524 3.66078 7.94518 3.66083 7.94512 3.66087C7.65645 3.88482 7.48889 4.22346 7.48889 4.58229V13.049C7.48889 13.2821 7.55883 13.5105 7.68775 13.7042C7.68791 13.7044 7.68808 13.7047 7.68825 13.7049L9.96214 17.0866Z" stroke="#7A899E"/>
  <path d="M3.48125 14.1737H4.33958C4.93913 14.1737 5.23409 14.0542 5.38788 13.9081C5.53536 13.768 5.65625 13.5039 5.65625 12.9487V4.56536C5.65625 4.00512 5.53497 3.73895 5.38721 3.59802C5.23359 3.45152 4.93918 3.33203 4.33958 3.33203H3.48125C2.88165 3.33203 2.58724 3.45152 2.43363 3.59802C2.28587 3.73895 2.16458 4.00512 2.16458 4.56536V12.9404C2.16458 13.5006 2.28587 13.7668 2.43363 13.9077C2.58724 14.0542 2.88165 14.1737 3.48125 14.1737Z" stroke="#7A899E"/>
</svg>