<svg width="81" height="80" viewBox="0 0 81 80" fill="none" xmlns="http://www.w3.org/2000/svg">
<g id="google-docs 2">
<path id="Vector" d="M17.0625 80H63.9375C67.8147 80 70.9688 76.8459 70.9688 72.9688V23.4375H54.5625C50.6853 23.4375 47.5312 20.2834 47.5312 16.4062V0H17.0625C13.1853 0 10.0312 3.15406 10.0312 7.03125V72.9688C10.0312 76.8459 13.1853 80 17.0625 80ZM26.4375 32.9688H54.5625C55.858 32.9688 56.9062 34.017 56.9062 35.3125C56.9062 36.608 55.858 37.6562 54.5625 37.6562H26.4375C25.142 37.6562 24.0938 36.608 24.0938 35.3125C24.0938 34.017 25.142 32.9688 26.4375 32.9688ZM26.4375 42.3438H54.5625C55.858 42.3438 56.9062 43.392 56.9062 44.6875C56.9062 45.983 55.858 47.0312 54.5625 47.0312H26.4375C25.142 47.0312 24.0938 45.983 24.0938 44.6875C24.0938 43.392 25.142 42.3438 26.4375 42.3438ZM26.4375 51.7188H54.5625C55.858 51.7188 56.9062 52.767 56.9062 54.0625C56.9062 55.358 55.858 56.4062 54.5625 56.4062H26.4375C25.142 56.4062 24.0938 55.358 24.0938 54.0625C24.0938 52.767 25.142 51.7188 26.4375 51.7188ZM26.4375 61.0938H45.1875C46.483 61.0938 47.5312 62.142 47.5312 63.4375C47.5312 64.733 46.483 65.7812 45.1875 65.7812H26.4375C25.142 65.7812 24.0938 64.733 24.0938 63.4375C24.0938 62.142 25.142 61.0938 26.4375 61.0938Z" fill="#E8E8E8"/>
<path id="Vector_2" d="M54.5625 18.7498H69.5955L52.2188 1.37305V16.406C52.2188 17.6991 53.2694 18.7498 54.5625 18.7498Z" fill="#E8E8E8"/>
</g>
</svg>
