<svg width="137" height="113" viewBox="0 0 137 113" fill="none" xmlns="http://www.w3.org/2000/svg">
<path d="M105.328 21.7422H20.1898C18.3167 21.7422 16.6707 23.3882 16.6707 25.2612V83.8366C16.6707 85.7096 18.3167 85.0285 20.1898 85.0285H105.101C106.974 85.0285 108.62 85.7096 108.62 83.8366V25.2612C108.847 23.3882 107.201 21.7422 105.328 21.7422Z" fill="#D5DDEA"/>
<path d="M119.575 81.7422V83.6152C119.575 85.7153 117.702 87.5884 115.602 87.5884H9.97313C7.87305 87.5884 6 85.7153 6 83.6152V81.7422H119.575Z" fill="#D5DDEA"/>
<path d="M73.6568 81.7422V82.4233C73.6568 83.6152 72.7486 84.7504 71.3297 84.7504H54.0182C52.8262 84.7504 51.691 83.8423 51.691 82.4233V81.7422H73.6568Z" fill="#E9EFF8"/>
<g filter="url(#filter0_d_20543_119073)">
<path d="M98.6876 29.4019V75.8308C98.5741 77.7606 97.0416 79.3498 95.055 79.3498H26.2631C24.2197 79.3498 22.6305 77.7606 22.6305 75.8308V29.4019C22.6305 27.4721 24.2197 25.8828 26.2631 25.8828H95.1118C97.1551 25.8828 98.6876 27.4721 98.6876 29.4019Z" fill="url(#paint0_linear_20543_119073)"/>
</g>
<path d="M26.774 31.2161C27.4551 31.2161 28.0227 30.6486 28.0227 29.9674C28.0227 29.2863 27.4551 28.7188 26.774 28.7188C26.0929 28.7188 25.5253 29.2863 25.5253 29.9674C25.5253 30.6486 26.0929 31.2161 26.774 31.2161Z" fill="#D6DCE8"/>
<path d="M30.4632 31.2161C31.1443 31.2161 31.7119 30.6486 31.7119 29.9674C31.7119 29.2863 31.1443 28.7188 30.4632 28.7188C29.7821 28.7188 29.2145 29.2863 29.2145 29.9674C29.2145 30.6486 29.7821 31.2161 30.4632 31.2161Z" fill="#D6DCE8"/>
<path d="M34.2661 31.2161C34.9472 31.2161 35.5148 30.6486 35.5148 29.9674C35.5148 29.2863 34.9472 28.7188 34.2661 28.7188C33.585 28.7188 33.0174 29.2863 33.0174 29.9674C33.0174 30.6486 33.585 31.2161 34.2661 31.2161Z" fill="#F1F3F9"/>
<g filter="url(#filter1_d_20543_119073)">
<path d="M106.52 21.6362V68.0651C106.52 68.1219 106.52 68.2354 106.52 68.2922C106.35 70.1652 104.817 71.5842 102.944 71.5842H34.0957C32.0524 71.5842 30.4631 69.995 30.4631 68.0651V21.6362C30.4631 19.7064 32.0524 18.1172 34.0957 18.1172H102.944C104.988 18.1172 106.52 19.6497 106.52 21.6362Z" fill="url(#paint1_linear_20543_119073)"/>
</g>
<path d="M34.6066 23.4505C35.2877 23.4505 35.8553 22.8829 35.8553 22.2018C35.8553 21.5207 35.2877 20.9531 34.6066 20.9531C33.9255 20.9531 33.3579 21.5207 33.3579 22.2018C33.3579 22.8829 33.9255 23.4505 34.6066 23.4505Z" fill="#D6DCE8"/>
<path d="M38.2959 23.4505C38.977 23.4505 39.5446 22.8829 39.5446 22.2018C39.5446 21.5207 38.977 20.9531 38.2959 20.9531C37.6148 20.9531 37.0472 21.5207 37.0472 22.2018C37.0472 22.8829 37.6148 23.4505 38.2959 23.4505Z" fill="#D6DCE8"/>
<path d="M42.0988 23.4505C42.7799 23.4505 43.3475 22.8829 43.3475 22.2018C43.3475 21.5207 42.7799 20.9531 42.0988 20.9531C41.4177 20.9531 40.8501 21.5207 40.8501 22.2018C40.8501 22.8829 41.4177 23.4505 42.0988 23.4505Z" fill="#F1F3F9"/>
<g filter="url(#filter2_d_20543_119073)">
<path d="M114.58 61.362C114.466 63.2918 112.934 64.8811 110.947 64.8811H42.1555C40.1121 64.8811 38.5229 63.2918 38.5229 61.362V14.9331C38.5229 13.0033 40.1121 11.4141 42.1555 11.4141H111.004C113.048 11.4141 114.637 13.0033 114.637 14.9331V61.362H114.58Z" fill="url(#paint2_linear_20543_119073)"/>
</g>
<path d="M42.6664 16.8042C43.3475 16.8042 43.9151 16.2366 43.9151 15.5555C43.9151 14.8743 43.3475 14.25 42.6664 14.25C41.9853 14.25 41.4177 14.8176 41.4177 15.4987C41.4177 16.1798 41.9853 16.8042 42.6664 16.8042Z" fill="#AAB2C5"/>
<path d="M46.3556 16.8042C47.0367 16.8042 47.6043 16.2366 47.6043 15.5555C47.6043 14.8743 47.0367 14.25 46.3556 14.25C45.6745 14.25 45.1069 14.8176 45.1069 15.4987C45.1069 16.1798 45.6745 16.8042 46.3556 16.8042Z" fill="#AAB2C5"/>
<path d="M50.1584 16.8042C50.8395 16.8042 51.4071 16.2366 51.4071 15.5555C51.4071 14.8743 50.8395 14.25 50.1584 14.25C49.4773 14.25 48.9097 14.8176 48.9097 15.4987C48.9097 16.1798 49.4205 16.8042 50.1584 16.8042Z" fill="#AAB2C5"/>
<path d="M71.454 32.3556C71.454 33.6782 70.3819 34.7504 69.0593 34.7504C67.7368 34.7504 66.6646 33.6782 66.6646 32.3556C66.6646 31.0331 67.7368 29.9609 69.0593 29.9609C70.3819 29.9609 71.454 31.0331 71.454 32.3556Z" fill="#AAB2C5" stroke="white"/>
<path d="M85.3033 32.3556C85.3033 33.6782 84.2311 34.7504 82.9086 34.7504C81.586 34.7504 80.5139 33.6782 80.5139 32.3556C80.5139 31.0331 81.586 29.9609 82.9086 29.9609C84.2311 29.9609 85.3033 31.0331 85.3033 32.3556Z" fill="#AAB2C5" stroke="white"/>
<path d="M82.0571 47.2254H69.9107C67.9809 47.2254 66.9024 45.0686 68.0376 43.4793C68.889 42.2874 69.9674 41.3225 71.2161 40.5846C72.6351 39.79 74.2811 39.3359 75.9839 39.3359C78.0272 39.3359 79.9003 39.9603 81.4895 41.0387C82.4544 41.7198 83.3058 42.5144 83.9869 43.4793C85.0653 45.0686 83.9869 47.2254 82.0571 47.2254Z" fill="#D6DCE8" stroke="#D6DCE8" stroke-width="1.7035" stroke-miterlimit="10"/>
<path d="M80.2408 47.2238H71.7837C71.7269 47.1103 71.7269 46.9967 71.7837 46.8832C72.408 45.1237 74.054 43.875 76.0406 43.875C78.0272 43.875 79.6732 45.1237 80.2975 46.8832C80.2975 46.9967 80.2975 47.1103 80.2408 47.2238Z" fill="#AAB2C5"/>
<path d="M81.4895 41.609V42.0631C81.4895 42.4036 81.2058 42.6307 80.922 42.6307H71.8405C71.5 42.6307 71.2729 42.3469 71.2729 42.0631V41.1549C72.6919 40.3603 74.3379 39.9062 76.0407 39.9062C78.0272 39.9063 79.9003 40.5306 81.4895 41.609Z" fill="white"/>
<path d="M54.8128 31.5065C54.8128 32.6436 53.9299 33.5533 52.8262 33.5533C51.7226 33.5533 50.8397 32.6436 50.8397 31.5065C50.8397 30.6424 52.0316 28.0498 52.5614 26.9127C52.6496 26.6853 52.9587 26.6853 53.0911 26.9127C53.6209 28.0043 54.8128 30.5969 54.8128 31.5065Z" fill="#D6DCE8"/>
<path d="M125.251 20.8903C126.159 21.7417 126.272 23.1606 125.421 24.1255C124.57 25.0337 123.151 25.1472 122.186 24.2958C121.448 23.6715 120.199 20.72 119.688 19.4145C119.575 19.1875 119.802 18.9037 120.086 18.9605C121.448 19.301 124.513 20.2092 125.251 20.8903Z" fill="#D6DCE8"/>
<path d="M124.91 30.9448C125.591 32.0232 125.308 33.3854 124.229 34.0665C123.151 34.7476 121.788 34.4638 121.107 33.3854C120.597 32.5908 120.142 29.4123 119.972 27.9933C119.915 27.7095 120.256 27.5392 120.483 27.6527C121.675 28.3906 124.399 30.0934 124.91 30.9448Z" fill="#D6DCE8"/>
<path d="M50.272 36.6159C50.272 37.753 49.3891 38.6626 48.2855 38.6626C47.1818 38.6626 46.2989 37.753 46.2989 36.6159C46.2989 35.7517 47.4908 33.1592 48.0206 32.0221C48.1089 31.7947 48.4179 31.7947 48.5503 32.0221C49.0801 33.1592 50.272 35.7517 50.272 36.6159Z" fill="#D6DCE8"/>
<defs>
<filter id="filter0_d_20543_119073" x="0.630493" y="14.8828" width="120.057" height="97.4688" filterUnits="userSpaceOnUse" color-interpolation-filters="sRGB">
<feFlood flood-opacity="0" result="BackgroundImageFix"/>
<feColorMatrix in="SourceAlpha" type="matrix" values="0 0 0 0 0 0 0 0 0 0 0 0 0 0 0 0 0 0 127 0" result="hardAlpha"/>
<feOffset dy="11"/>
<feGaussianBlur stdDeviation="11"/>
<feColorMatrix type="matrix" values="0 0 0 0 0.397708 0 0 0 0 0.47749 0 0 0 0 0.575 0 0 0 0.27 0"/>
<feBlend mode="normal" in2="BackgroundImageFix" result="effect1_dropShadow_20543_119073"/>
<feBlend mode="normal" in="SourceGraphic" in2="effect1_dropShadow_20543_119073" result="shape"/>
</filter>
<filter id="filter1_d_20543_119073" x="8.46313" y="7.11719" width="120.057" height="97.4688" filterUnits="userSpaceOnUse" color-interpolation-filters="sRGB">
<feFlood flood-opacity="0" result="BackgroundImageFix"/>
<feColorMatrix in="SourceAlpha" type="matrix" values="0 0 0 0 0 0 0 0 0 0 0 0 0 0 0 0 0 0 127 0" result="hardAlpha"/>
<feOffset dy="11"/>
<feGaussianBlur stdDeviation="11"/>
<feColorMatrix type="matrix" values="0 0 0 0 0.397708 0 0 0 0 0.47749 0 0 0 0 0.575 0 0 0 0.27 0"/>
<feBlend mode="normal" in2="BackgroundImageFix" result="effect1_dropShadow_20543_119073"/>
<feBlend mode="normal" in="SourceGraphic" in2="effect1_dropShadow_20543_119073" result="shape"/>
</filter>
<filter id="filter2_d_20543_119073" x="16.5229" y="0.414062" width="120.114" height="97.4688" filterUnits="userSpaceOnUse" color-interpolation-filters="sRGB">
<feFlood flood-opacity="0" result="BackgroundImageFix"/>
<feColorMatrix in="SourceAlpha" type="matrix" values="0 0 0 0 0 0 0 0 0 0 0 0 0 0 0 0 0 0 127 0" result="hardAlpha"/>
<feOffset dy="11"/>
<feGaussianBlur stdDeviation="11"/>
<feColorMatrix type="matrix" values="0 0 0 0 0.397708 0 0 0 0 0.47749 0 0 0 0 0.575 0 0 0 0.27 0"/>
<feBlend mode="normal" in2="BackgroundImageFix" result="effect1_dropShadow_20543_119073"/>
<feBlend mode="normal" in="SourceGraphic" in2="effect1_dropShadow_20543_119073" result="shape"/>
</filter>
<linearGradient id="paint0_linear_20543_119073" x1="60.6343" y1="24.6461" x2="60.6343" y2="79.9262" gradientUnits="userSpaceOnUse">
<stop stop-color="#FDFEFF"/>
<stop offset="0.9964" stop-color="#ECF0F5"/>
</linearGradient>
<linearGradient id="paint1_linear_20543_119073" x1="68.4669" y1="16.8804" x2="68.4669" y2="72.1606" gradientUnits="userSpaceOnUse">
<stop stop-color="#FDFEFF"/>
<stop offset="0.9964" stop-color="#ECF0F5"/>
</linearGradient>
<linearGradient id="paint2_linear_20543_119073" x1="76.555" y1="10.1773" x2="76.555" y2="65.4575" gradientUnits="userSpaceOnUse">
<stop stop-color="#FDFEFF"/>
<stop offset="0.9964" stop-color="#ECF0F5"/>
</linearGradient>
</defs>
</svg>
