<svg width="12" height="12" viewBox="0 0 12 12" fill="none" xmlns="http://www.w3.org/2000/svg">
<circle cx="6" cy="6" r="6" fill="#FFCE73"/>
<path d="M6.0013 6.83073C6.46154 6.83073 6.83464 6.45763 6.83464 5.9974C6.83464 5.53716 6.46154 5.16406 6.0013 5.16406C5.54106 5.16406 5.16797 5.53716 5.16797 5.9974C5.16797 6.45763 5.54106 6.83073 6.0013 6.83073Z" fill="#082247"/>
<path d="M10.1423 5.8533C9.47099 4.15934 7.82261 3.05656 6.00066 3.08248C4.17871 3.05656 2.53033 4.15934 1.85899 5.8533C1.82565 5.94767 1.82565 6.05062 1.85899 6.14497C2.53033 7.83892 4.17871 8.9417 6.00066 8.91581C7.82261 8.9417 9.47099 7.83892 10.1423 6.14497C10.1757 6.05059 10.1757 5.94767 10.1423 5.8533ZM6.00157 7.66581H6.00066C5.08017 7.66581 4.33399 6.91961 4.33399 5.99914C4.33399 5.07866 5.08017 4.33248 6.00066 4.33248C6.92114 4.33248 7.66732 5.07866 7.66732 5.99914C7.66758 6.91935 6.92181 7.66556 6.00157 7.66581Z" fill="#082247"/>
</svg>
