<svg width="16" height="16" viewBox="0 0 16 16" fill="none" xmlns="http://www.w3.org/2000/svg">
<g clip-path="url(#clip0_16220_33722)">
<path d="M10.015 7.03984C10.015 6.79134 9.81354 6.58984 9.56504 6.58984H4.61504C4.36654 6.58984 4.16504 6.79134 4.16504 7.03984C4.16504 7.28834 4.36654 7.48984 4.61504 7.48984H9.56504C9.81354 7.48984 10.015 7.28834 10.015 7.03984Z" fill="#8390A3"/>
<path d="M4.61431 8.86328C4.36581 8.86328 4.16431 9.06478 4.16431 9.31328C4.16431 9.56178 4.36581 9.76328 4.61431 9.76328H7.23881C7.48731 9.76328 7.68881 9.56178 7.68881 9.31328C7.68881 9.06478 7.48731 8.86328 7.23881 8.86328H4.61431Z" fill="#8390A3"/>
<path d="M12.98 7.06591C12.7315 7.06591 12.53 7.26741 12.53 7.51591V11.1554C12.53 11.8364 11.976 12.3904 11.295 12.3904H8.28505C8.18755 12.3904 8.09255 12.4219 8.01455 12.4809L5.41555 14.4354C5.34955 14.4849 5.28755 14.4644 5.25655 14.4474C5.22505 14.4314 5.17305 14.3919 5.17505 14.3114L5.22505 12.8564C5.22905 12.7344 5.18355 12.6159 5.09905 12.5284C5.01455 12.4404 4.89755 12.3909 4.77555 12.3909H2.68505C2.00405 12.3909 1.45005 11.8374 1.45005 11.1559V5.20591C1.45005 4.52241 2.00405 3.96641 2.68505 3.96641H8.23005C8.47855 3.96641 8.68005 3.76491 8.68005 3.51641C8.68005 3.26791 8.47855 3.06641 8.23005 3.06641H2.68505C1.50805 3.06641 0.550049 4.02641 0.550049 5.20641V11.1559C0.550049 12.3329 1.50805 13.2914 2.68505 13.2914H4.30955L4.27555 14.2824C4.26355 14.6894 4.48005 15.0594 4.84155 15.2469C4.99605 15.3274 5.16255 15.3669 5.32755 15.3669C5.54905 15.3669 5.76855 15.2954 5.95555 15.1559L8.43505 13.2914H11.2945C12.4715 13.2914 13.4295 12.3334 13.4295 11.1559V7.51641C13.43 7.26741 13.2285 7.06591 12.98 7.06591Z" fill="#8390A3"/>
<path d="M15.4121 2.77872C15.3306 2.52872 15.1301 2.34172 14.8756 2.27872L13.7256 1.99222L13.0976 0.987219C12.8191 0.540219 12.0921 0.541219 11.8141 0.987219L11.1861 1.99222L10.0361 2.27872C9.78162 2.34172 9.58062 2.52872 9.49962 2.77872C9.41862 3.02872 9.47062 3.29822 9.63962 3.49972L10.4016 4.40672L10.3186 5.58872C10.3001 5.85072 10.4161 6.09922 10.6286 6.25372C10.7606 6.34972 10.9156 6.39922 11.0726 6.39922C11.1681 6.39922 11.2646 6.38072 11.3571 6.34322L12.4561 5.89922L13.5546 6.34322C13.7981 6.44222 14.0701 6.40822 14.2831 6.25422C14.4956 6.09972 14.6116 5.85122 14.5936 5.58872L14.5106 4.40672L15.2726 3.49922C15.4411 3.29822 15.4936 3.02872 15.4121 2.77872ZM13.7041 3.96722C13.6291 4.05672 13.5916 4.17172 13.6001 4.28872L13.6801 5.42372L12.6251 4.99722C12.5711 4.97522 12.5136 4.96422 12.4566 4.96422C12.3996 4.96422 12.3421 4.97522 12.2881 4.99722L11.2336 5.42372L11.3131 4.28872C11.3211 4.17222 11.2836 4.05672 11.2091 3.96722L10.4776 3.09622L11.5816 2.82072C11.6946 2.79222 11.7926 2.72172 11.8541 2.62272L12.4571 1.65822L13.0601 2.62272C13.1221 2.72172 13.2196 2.79272 13.3326 2.82072L14.4366 3.09622L13.7041 3.96722Z" fill="#8390A3"/>
</g>
<defs>
<clipPath id="clip0_16220_33722">
<rect width="16" height="16" fill="white"/>
</clipPath>
</defs>
</svg>
