<svg width="80" height="80" viewBox="0 0 80 80" fill="none" xmlns="http://www.w3.org/2000/svg">
<g id="github 1">
<path id="Vector" d="M39.5 8C20.9913 8 6 22.74 6 40.9193C6 55.4667 15.5977 67.8031 28.9056 72.1525C30.5806 72.4624 31.1948 71.4434 31.1948 70.5696C31.1948 69.7879 31.1669 67.7165 31.1529 64.9723C21.8343 66.9572 19.869 60.5559 19.869 60.5559C18.3448 56.7564 16.1421 55.7403 16.1421 55.7403C13.1076 53.6996 16.3766 53.7414 16.3766 53.7414C19.7406 53.9704 21.5077 57.1333 21.5077 57.1333C24.4948 62.1667 29.3495 60.7122 31.2646 59.8719C31.5661 57.7419 32.4287 56.293 33.3863 55.4695C25.9465 54.6459 18.127 51.8152 18.127 39.2024C18.127 35.6096 19.4251 32.6727 21.5747 30.3696C21.1978 29.5377 20.0672 26.1905 21.8678 21.6568C21.8678 21.6568 24.6735 20.7747 31.0803 25.032C33.7603 24.3005 36.6078 23.9376 39.4553 23.9209C42.3028 23.9376 45.1503 24.3005 47.8303 25.032C54.1953 20.7747 57.001 21.6568 57.001 21.6568C58.8016 26.1905 57.671 29.5377 57.336 30.3696C59.4716 32.6727 60.7697 35.6096 60.7697 39.2024C60.7697 51.8487 52.9391 54.632 45.4853 55.4416C46.6578 56.4298 47.7466 58.4482 47.7466 61.533C47.7466 65.9382 47.7047 69.4781 47.7047 70.5473C47.7047 71.4099 48.291 72.44 50.0078 72.1106C63.4106 67.7891 73 55.4444 73 40.9193C73 22.74 58.0004 8 39.5 8Z" fill="#E8E8E8"/>
</g>
</svg>
