<svg width="20" height="20" viewBox="0 0 20 20" fill="none" xmlns="http://www.w3.org/2000/svg">
<path d="M10.0379 2.91337L10.0378 2.91338L10.0358 2.91024C9.92664 2.74528 9.71062 2.57407 9.43199 2.47559C9.15772 2.37865 8.8682 2.36814 8.61944 2.46108L8.61177 2.46395L8.60401 2.46656C8.01509 2.66487 7.63113 3.34149 7.75001 3.89628L7.75281 3.90933L7.75491 3.92252L8.18824 6.64752L8.1884 6.64749L8.19006 6.65996C8.24112 7.0429 8.13825 7.40631 7.90807 7.69064L7.9003 7.70024L7.89207 7.70944C7.65977 7.96907 7.3179 8.13437 6.94445 8.13437H3.51945C2.99591 8.13437 2.59378 8.34329 2.36901 8.65689C2.16112 8.95336 2.10247 9.36205 2.26606 9.82665L2.26617 9.82661L2.26948 9.83669L4.31948 16.0784L4.32513 16.0955L4.32952 16.1131C4.5282 16.9078 5.44028 17.6094 6.34445 17.6094H9.59445C9.82291 17.6094 10.1102 17.5692 10.3764 17.4897C10.6529 17.4071 10.8467 17.3 10.9409 17.2058L10.9634 17.1833L10.9885 17.1639L12.0547 16.3393C12.0548 16.3392 12.0548 16.3392 12.0549 16.3391C12.3435 16.1152 12.5111 15.7765 12.5111 15.4177V6.95104C12.5111 6.7179 12.4412 6.4895 12.3123 6.29581C12.3121 6.29556 12.3119 6.29531 12.3118 6.29506L10.0379 2.91337Z" stroke="#7A899E"/>
<path d="M16.5187 5.8263H15.6604C15.0609 5.8263 14.7659 5.94576 14.6121 6.09189C14.4646 6.23202 14.3438 6.49607 14.3438 7.0513V15.4346C14.3438 15.9949 14.465 16.2611 14.6128 16.402C14.7664 16.5485 15.0608 16.668 15.6604 16.668H16.5187C17.1184 16.668 17.4128 16.5485 17.5664 16.402C17.7141 16.2611 17.8354 15.9949 17.8354 15.4346V7.05964C17.8354 6.49939 17.7141 6.23322 17.5664 6.09229C17.4128 5.94579 17.1184 5.8263 16.5187 5.8263Z" stroke="#7A899E"/>
</svg>
