<svg width="18" height="5" viewBox="0 0 18 5" fill="none" xmlns="http://www.w3.org/2000/svg">
<g id="Group 1000008492">
<g id="Group">
<g id="Group_2">
<path id="Vector" d="M2.17189 4.01565C3.27647 4.01565 4.1719 3.12022 4.1719 2.01564C4.1719 0.911062 3.27647 0.015625 2.17189 0.015625C1.06731 0.015625 0.171875 0.911062 0.171875 2.01564C0.171875 3.12022 1.06731 4.01565 2.17189 4.01565Z" fill="#8390A3"/>
</g>
</g>
<g id="Group_3">
<g id="Group_4">
<path id="Vector_2" d="M8.98439 4.01565C10.089 4.01565 10.9844 3.12022 10.9844 2.01564C10.9844 0.911062 10.089 0.015625 8.98439 0.015625C7.87981 0.015625 6.98438 0.911062 6.98438 2.01564C6.98438 3.12022 7.87981 4.01565 8.98439 4.01565Z" fill="#8390A3"/>
</g>
</g>
<g id="Group_5">
<g id="Group_6">
<path id="Vector_3" d="M15.7969 4.01565C16.9015 4.01565 17.7969 3.12022 17.7969 2.01564C17.7969 0.911062 16.9015 0.015625 15.7969 0.015625C14.6923 0.015625 13.7969 0.911062 13.7969 2.01564C13.7969 3.12022 14.6923 4.01565 15.7969 4.01565Z" fill="#8390A3"/>
</g>
</g>
</g>
</svg>
