<svg width="80" height="80" viewBox="0 0 80 80" fill="none" xmlns="http://www.w3.org/2000/svg">
<path d="M24.6967 14.957H55.3052C56.0432 14.957 56.751 15.2502 57.2728 15.772C57.7947 16.2939 58.0878 17.0016 58.0878 17.7396V23.3048H21.9141V17.7396C21.9141 17.0016 22.2072 16.2939 22.7291 15.772C23.2509 15.2502 23.9587 14.957 24.6967 14.957Z" fill="#424750"/>
<path d="M21.5996 23.2031H57.7734V62.1595C57.7734 62.8975 57.4802 63.6052 56.9584 64.1271C56.4365 64.6489 55.7288 64.9421 54.9908 64.9421H24.3822C23.6442 64.9421 22.9365 64.6489 22.4146 64.1271C21.8928 63.6052 21.5996 62.8975 21.5996 62.1595V23.2031Z" fill="#8390A3"/>
<path d="M8 31.6523H21.913V62.2609H10.7826C10.0446 62.2609 9.33684 61.9678 8.815 61.4459C8.29317 60.9241 8 60.2163 8 59.4783V31.6523Z" fill="#424750"/>
<path d="M10.7826 26.0898H21.913V31.655H8V28.8724C8 28.1345 8.29317 27.4267 8.815 26.9048C9.33684 26.383 10.0446 26.0898 10.7826 26.0898Z" fill="#8390A3"/>
<path d="M69.2174 62.2617H58.087V31.6531H72V59.4791C72 60.2171 71.7068 60.9249 71.185 61.4467C70.6632 61.9686 69.9554 62.2617 69.2174 62.2617Z" fill="#424750"/>
<path d="M72 31.6523H58.087V26.0871H69.2174C69.9554 26.0871 70.6632 26.3803 71.185 26.9022C71.7068 27.424 72 28.1318 72 28.8697V31.6523Z" fill="#8390A3"/>
<path d="M21.9129 40.0013H13.5651C13.1961 40.0013 12.8422 39.8548 12.5813 39.5938C12.3204 39.3329 12.1738 38.979 12.1738 38.61C12.1738 38.2411 12.3204 37.8872 12.5813 37.6263C12.8422 37.3653 13.1961 37.2188 13.5651 37.2188H21.9129V40.0013Z" fill="white"/>
<path d="M21.9129 46.9584H13.5651C13.1961 46.9584 12.8422 46.8118 12.5813 46.5509C12.3204 46.29 12.1738 45.9361 12.1738 45.5671C12.1738 45.1981 12.3204 44.8442 12.5813 44.5833C12.8422 44.3224 13.1961 44.1758 13.5651 44.1758H21.9129V46.9584Z" fill="white"/>
<path d="M21.9129 53.9154H13.5651C13.1961 53.9154 12.8422 53.7688 12.5813 53.5079C12.3204 53.247 12.1738 52.8931 12.1738 52.5241C12.1738 52.1551 12.3204 51.8012 12.5813 51.5403C12.8422 51.2794 13.1961 51.1328 13.5651 51.1328H21.9129V53.9154Z" fill="white"/>
<path d="M58.0859 40.0013H66.4337C66.8027 40.0013 67.1566 39.8548 67.4175 39.5938C67.6784 39.3329 67.825 38.979 67.825 38.61C67.825 38.2411 67.6784 37.8872 67.4175 37.6263C67.1566 37.3653 66.8027 37.2188 66.4337 37.2188H58.0859V40.0013Z" fill="white"/>
<path d="M58.0859 46.9584H66.4337C66.8027 46.9584 67.1566 46.8118 67.4175 46.5509C67.6784 46.29 67.825 45.9361 67.825 45.5671C67.825 45.1981 67.6784 44.8442 67.4175 44.5833C67.1566 44.3224 66.8027 44.1758 66.4337 44.1758H58.0859V46.9584Z" fill="white"/>
<path d="M58.0859 53.9154H66.4337C66.8027 53.9154 67.1566 53.7688 67.4175 53.5079C67.6784 53.247 67.825 52.8931 67.825 52.5241C67.825 52.1551 67.6784 51.8012 67.4175 51.5403C67.1566 51.2794 66.8027 51.1328 66.4337 51.1328H58.0859V53.9154Z" fill="white"/>
<path d="M26.0866 20.5248C26.855 20.5248 27.4779 19.9019 27.4779 19.1335C27.4779 18.3651 26.855 17.7422 26.0866 17.7422C25.3182 17.7422 24.6953 18.3651 24.6953 19.1335C24.6953 19.9019 25.3182 20.5248 26.0866 20.5248Z" fill="#F0F7FC"/>
<path d="M31.653 20.5248C32.4214 20.5248 33.0443 19.9019 33.0443 19.1335C33.0443 18.3651 32.4214 17.7422 31.653 17.7422C30.8846 17.7422 30.2617 18.3651 30.2617 19.1335C30.2617 19.9019 30.8846 20.5248 31.653 20.5248Z" fill="#F0F7FC"/>
<path d="M37.2175 20.5248C37.9859 20.5248 38.6088 19.9019 38.6088 19.1335C38.6088 18.3651 37.9859 17.7422 37.2175 17.7422C36.4491 17.7422 35.8262 18.3651 35.8262 19.1335C35.8262 19.9019 36.4491 20.5248 37.2175 20.5248Z" fill="#F0F7FC"/>
<path d="M47.3506 51.3482C47.3506 51.9557 47.1174 52.5205 46.694 52.9386C46.2617 53.3655 45.6644 53.6052 45.0536 53.5981C44.447 53.5904 43.9057 53.3595 43.4881 52.9304L40.0757 49.4236L36.6633 52.9304C36.2486 53.3565 35.7086 53.5873 35.1015 53.598C35.0882 53.5983 35.0748 53.5984 35.0615 53.5984C34.4627 53.5984 33.8796 53.3618 33.456 52.9456C33.0335 52.5305 32.8008 51.9678 32.8008 51.3613V37.3984C32.8008 35.7442 34.1466 34.3984 35.8007 34.3984H44.3506C46.0048 34.3984 47.3506 35.7442 47.3506 37.3984C47.3506 37.8126 47.0148 38.1484 46.6006 38.1484C46.1864 38.1484 45.8506 37.8126 45.8506 37.3984C45.8506 36.5713 45.1777 35.8984 44.3506 35.8984H35.8007C34.9737 35.8984 34.3008 36.5713 34.3008 37.3984V51.3613C34.3008 51.568 34.3703 51.7411 34.5073 51.8757C34.6529 52.0188 34.864 52.102 35.0751 52.0983C35.2838 52.0946 35.4517 52.0247 35.5883 51.8843L39.5382 47.8252C39.6794 47.6801 39.8733 47.5982 40.0757 47.5982C40.2781 47.5982 40.472 47.6801 40.6132 47.8252L44.5631 51.8843C44.7007 52.0257 44.8673 52.0957 45.0726 52.0983C45.2828 52.1014 45.4935 52.0161 45.6401 51.8713C45.7798 51.7333 45.8506 51.5574 45.8506 51.3483C45.8506 50.934 46.1864 50.5983 46.6006 50.5983C47.0148 50.5983 47.3506 50.934 47.3506 51.3482ZM51.663 44.2983C51.663 47.0897 49.392 49.3607 46.6006 49.3607C43.8092 49.3607 41.5382 47.0897 41.5382 44.2983C41.5382 41.5069 43.8092 39.2359 46.6006 39.2359C49.392 39.2359 51.663 41.5069 51.663 44.2983ZM50.1631 44.2983C50.1631 42.334 48.5649 40.7359 46.6006 40.7359C44.6363 40.7359 43.0381 42.334 43.0381 44.2983C43.0381 46.2626 44.6363 47.8608 46.6006 47.8608C48.5649 47.8608 50.1631 46.2626 50.1631 44.2983Z" fill="#1E1E1E"/>
<path fill-rule="evenodd" clip-rule="evenodd" d="M48.2602 42.9379C48.4476 43.1254 48.4476 43.4293 48.2602 43.6168L45.8598 46.0172C45.6723 46.2046 45.3684 46.2046 45.1809 46.0172C44.9935 45.8297 44.9935 45.5258 45.1809 45.3384L47.5814 42.9379C47.7688 42.7505 48.0727 42.7505 48.2602 42.9379Z" fill="#1E1E1E"/>
<path fill-rule="evenodd" clip-rule="evenodd" d="M48.2613 46.0161C48.0738 46.2035 47.7699 46.2035 47.5825 46.0161L45.182 43.6156C44.9946 43.4282 44.9946 43.1243 45.182 42.9368C45.3695 42.7494 45.6734 42.7494 45.8609 42.9368L48.2613 45.3372C48.4487 45.5247 48.4487 45.8286 48.2613 46.0161Z" fill="#1E1E1E"/>
</svg>
