<svg width="48" height="48" viewBox="0 0 48 48" fill="none" xmlns="http://www.w3.org/2000/svg">
<path d="M38.0884 32.8483L39.7714 44.0279C39.8405 44.4875 39.782 44.9574 39.6024 45.3862C39.4228 45.8149 39.129 46.1861 38.7529 46.4593C38.3768 46.7325 37.9329 46.8972 37.4696 46.9355C37.0063 46.9737 36.5414 46.884 36.1256 46.6761L26.0119 41.6203C25.3871 41.308 24.6981 41.1454 23.9996 41.1454C23.3011 41.1454 22.6121 41.308 21.9874 41.6203L11.8736 46.6768C11.4577 46.8848 10.9928 46.9745 10.5294 46.9363C10.066 46.898 9.62208 46.7332 9.24595 46.4599C8.86981 46.1866 8.57595 45.8153 8.39642 45.3864C8.21689 44.9575 8.15858 44.4876 8.22785 44.0279L9.9101 32.8476C10.0137 32.1573 9.95529 31.4523 9.73947 30.7884C9.52365 30.1246 9.15635 29.52 8.6666 29.0226L0.731601 20.9623C0.40546 20.6311 0.176535 20.2166 0.0697898 19.7642C-0.0369552 19.3117 -0.017422 18.8387 0.126259 18.3966C0.269941 17.9544 0.532254 17.5603 0.884594 17.257C1.23693 16.9538 1.66577 16.7531 2.12435 16.6768L13.2821 14.8243C13.9713 14.7098 14.6245 14.4364 15.1897 14.0257C15.7549 13.6149 16.2168 13.0782 16.5386 12.4581L21.7496 2.42535C21.9644 2.01435 22.2877 1.67003 22.6843 1.42978C23.081 1.18952 23.5359 1.0625 23.9996 1.0625C24.4633 1.0625 24.9182 1.18952 25.3149 1.42978C25.7115 1.67003 26.0348 2.01435 26.2496 2.42535L31.4569 12.4581C31.7787 13.0782 32.2405 13.6149 32.8058 14.0257C33.371 14.4364 34.0241 14.7098 34.7134 14.8243L45.8711 16.6768C46.3297 16.7531 46.7585 16.9538 47.1109 17.257C47.4632 17.5603 47.7255 17.9544 47.8692 18.3966C48.0129 18.8387 48.0324 19.3117 47.9257 19.7642C47.8189 20.2166 47.59 20.6311 47.2639 20.9623L39.3319 29.0218C38.8419 29.5194 38.4745 30.1242 38.2586 30.7884C38.0428 31.4525 37.9845 32.1578 38.0884 32.8483Z" fill="#FFCE73"/>
<path d="M25 17.8333C25 16.8208 24.3284 16 23.5 16C22.6716 16 22 16.8208 22 17.8333V25.1667C22 26.1792 22.6716 27 23.5 27C24.3284 27 25 26.1792 25 25.1667V17.8333Z" fill="#E49500"/>
<path d="M23.5 33C24.3284 33 25 32.3284 25 31.5C25 30.6716 24.3284 30 23.5 30C22.6716 30 22 30.6716 22 31.5C22 32.3284 22.6716 33 23.5 33Z" fill="#E49500"/>
</svg>
