<svg width="61" height="52" viewBox="0 0 61 52" fill="none" xmlns="http://www.w3.org/2000/svg">
<path d="M60.2826 27.0198L56.6879 42.8402C56.5955 43.2653 56.2166 43.561 55.7915 43.561C55.3572 43.561 54.9876 43.2653 54.8859 42.8402L51.2912 27.0198C50.977 25.6429 51.3004 24.2198 52.1876 23.1201C53.0654 22.0112 54.3777 21.3828 55.7915 21.3828C57.1961 21.3828 58.5176 22.0112 59.3955 23.1201C60.2733 24.2198 60.5968 25.6429 60.2826 27.0198Z" fill="#8390A3"/>
<path d="M55.7912 51.8771C57.8327 51.8771 59.4876 50.2222 59.4876 48.1807C59.4876 46.1393 57.8327 44.4844 55.7912 44.4844C53.7498 44.4844 52.0948 46.1393 52.0948 48.1807C52.0948 50.2222 53.7498 51.8771 55.7912 51.8771Z" fill="#8390A3"/>
<path d="M53.01 0.125H4.95736C2.40688 0.125 0.336914 2.19496 0.336914 4.74545V39.8609C0.336914 42.4114 2.40688 44.4813 4.95736 44.4813H51.6609C52.0767 44.0193 52.5665 43.6312 53.1117 43.3262C53.1024 43.3077 53.0932 43.2892 53.084 43.2615L49.4892 27.4226C49.0457 25.4913 49.5077 23.4952 50.746 21.952C51.9658 20.418 53.8047 19.5309 55.7915 19.5309C56.4199 19.5309 57.0391 19.6233 57.6212 19.7896V18.6438C57.6212 18.6253 57.6305 18.616 57.6305 18.6068V4.74545C57.6305 2.19496 55.5513 0.125 53.01 0.125ZM42.7619 20.0761C43.113 20.418 43.3071 20.8893 43.3071 21.3791C43.3071 21.8688 43.113 22.3401 42.7619 22.682C42.4107 23.0332 41.9487 23.2272 41.4589 23.2272C40.9599 23.2272 40.4979 23.0332 40.1467 22.682L38.6866 21.222L37.2173 22.682C36.5243 23.3843 35.3045 23.3843 34.6022 22.682C34.2603 22.3401 34.0662 21.8688 34.0662 21.3791C34.0662 20.8893 34.2603 20.418 34.6022 20.0761L36.0715 18.6068L34.6022 17.1375C33.8814 16.4167 33.8814 15.2524 34.6022 14.5316C35.323 13.8108 36.4965 13.8108 37.2173 14.5316L38.6866 15.9916L40.1467 14.5316C40.8675 13.8108 42.0411 13.8108 42.7619 14.5316C43.4827 15.2524 43.4827 16.4167 42.7619 17.1375L41.3018 18.6068L42.7619 20.0761ZM15.1223 3.82136C15.6306 3.82136 16.0464 4.2372 16.0464 4.74545C16.0464 5.2537 15.6306 5.66954 15.1223 5.66954C14.6049 5.66954 14.1983 5.2537 14.1983 4.74545C14.1983 4.2372 14.6049 3.82136 15.1223 3.82136ZM10.5019 3.82136C11.0102 3.82136 11.426 4.2372 11.426 4.74545C11.426 5.2537 11.0102 5.66954 10.5019 5.66954C9.98441 5.66954 9.57781 5.2537 9.57781 4.74545C9.57781 4.2372 9.98441 3.82136 10.5019 3.82136ZM5.88145 3.82136C6.3897 3.82136 6.80554 4.2372 6.80554 4.74545C6.80554 5.2537 6.3897 5.66954 5.88145 5.66954C5.36396 5.66954 4.95736 5.2537 4.95736 4.74545C4.95736 4.2372 5.36396 3.82136 5.88145 3.82136ZM2.18509 9.3659V7.51772H36.3764C36.8847 7.51772 37.3005 7.93356 37.3005 8.44181C37.3005 8.95006 36.8847 9.3659 36.3764 9.3659H2.18509ZM15.1963 17.1375C14.4755 16.4167 14.4755 15.2524 15.1963 14.5316C15.9171 13.8108 17.0907 13.8108 17.8115 14.5316L19.2808 15.9916L20.7408 14.5316C21.4616 13.8108 22.6352 13.8108 23.356 14.5316C24.0768 15.2524 24.0768 16.4167 23.356 17.1375L21.8959 18.6068L23.356 20.0761C23.7071 20.418 23.9012 20.8893 23.9012 21.3791C23.9012 21.8688 23.7071 22.3401 23.356 22.682C23.0048 23.0332 22.5428 23.2272 22.053 23.2272C21.554 23.2272 21.092 23.0332 20.7408 22.682L19.2808 21.222L17.8115 22.682C17.1184 23.3843 15.8986 23.3843 15.1963 22.682C14.8544 22.3401 14.6603 21.8688 14.6603 21.3791C14.6603 20.8893 14.8544 20.418 15.1963 20.0761L16.6656 18.6068L15.1963 17.1375ZM47.1513 36.2662C46.8094 36.7836 46.2365 37.0886 45.6173 37.0886C45.2477 37.0886 44.8965 36.9777 44.5916 36.7744C35.1104 30.4536 22.857 30.4536 13.3758 36.7744C13.0616 36.9869 12.7012 37.0794 12.3501 37.0794C11.7494 37.0794 11.158 36.7929 10.8069 36.2662C10.5389 35.8503 10.4372 35.3605 10.5389 34.88C10.6313 34.3903 10.9085 33.9744 11.3243 33.7064C22.053 26.554 35.9144 26.554 46.6431 33.7064C47.0497 33.9744 47.3269 34.3903 47.4285 34.88C47.5209 35.3605 47.4285 35.8503 47.1513 36.2662ZM49.3137 9.3659H40.0728C39.5645 9.3659 39.1487 8.95006 39.1487 8.44181C39.1487 7.93356 39.5645 7.51772 40.0728 7.51772H49.3137C49.8219 7.51772 50.2378 7.93356 50.2378 8.44181C50.2378 8.95006 49.8219 9.3659 49.3137 9.3659ZM55.7823 9.3659H53.01C52.5018 9.3659 52.0859 8.95006 52.0859 8.44181C52.0859 7.93356 52.5018 7.51772 53.01 7.51772H55.7823V9.3659Z" fill="#8390A3"/>
</svg>
