<svg width="48" height="48" viewBox="0 0 48 48" fill="none" xmlns="http://www.w3.org/2000/svg">
    <path fill-rule="evenodd" clip-rule="evenodd"
        d="M44.4981 44.6963V7.18875C44.4981 5.70844 43.5091 4.44656 42.16 4.03125V40.8084C42.16 43.4766 39.9756 45.6609 37.3075 45.6609H12.1891C12.6063 47.0109 13.8653 47.9991 15.3484 47.9991H41.1953C43.0103 47.9991 44.4981 46.5141 44.4981 44.6963ZM11.4597 44.1122H37.3066C39.1244 44.1122 40.6103 42.6262 40.6094 40.8075V3.30281C40.6094 1.48594 39.1244 0 37.3066 0H11.4597C9.64469 0 8.15688 1.48594 8.15688 3.30375V7.61625H11.0087C12.5819 7.61625 13.8625 8.89688 13.8625 10.47C13.8625 12.0413 12.5819 13.3219 11.0087 13.3219H8.15688V15.3422H11.0087C12.5819 15.3422 13.8625 16.6238 13.8625 18.1941C13.8625 19.7672 12.5819 21.0478 11.0087 21.0478H8.15688V23.0672H11.0087C12.5819 23.0672 13.8625 24.3459 13.8625 25.9191C13.8625 27.4903 12.5819 28.7709 11.0087 28.7709H8.15688V30.7903H11.0087C12.5819 30.7903 13.8625 32.0709 13.8625 33.6441C13.8625 35.2153 12.5819 36.4959 11.0087 36.4959H8.15688V40.8094C8.15688 42.6262 9.64469 44.1122 11.4597 44.1122ZM11.0078 11.7731H5.305C4.58781 11.7731 4 11.1853 4 10.4709C4 9.75281 4.58781 9.16594 5.305 9.16594H11.0078C11.7259 9.16594 12.3128 9.75375 12.3128 10.4709C12.3128 11.1863 11.725 11.7731 11.0078 11.7731ZM11.0078 19.4981H5.305C4.58781 19.4981 4 18.9112 4 18.1931C4 17.4759 4.58781 16.8909 5.305 16.8909H11.0078C11.7259 16.8909 12.3128 17.4759 12.3128 18.1931C12.3128 18.9112 11.725 19.4981 11.0078 19.4981ZM11.0078 27.2231H5.305C4.58781 27.2231 4 26.6362 4 25.9181C4 25.2 4.58781 24.6131 5.305 24.6131H11.0078C11.7259 24.6131 12.3128 25.2009 12.3128 25.9181C12.3128 26.6362 11.725 27.2231 11.0078 27.2231ZM11.0078 32.3391C11.7259 32.3391 12.3128 32.9269 12.3128 33.6441C12.3128 34.3612 11.7259 34.9463 11.0078 34.9463H5.305C4.58688 34.9463 4 34.3612 4 33.6441C4 32.9259 4.58781 32.3391 5.305 32.3391H11.0078Z"
        fill="#FFCE73" />
    <path
        d="M27 16.8333C27 15.8208 26.3284 15 25.5 15C24.6716 15 24 15.8208 24 16.8333V24.1667C24 25.1792 24.6716 26 25.5 26C26.3284 26 27 25.1792 27 24.1667V16.8333Z"
        fill="#E49500" />
    <path
        d="M25.5 32C26.3284 32 27 31.3284 27 30.5C27 29.6716 26.3284 29 25.5 29C24.6716 29 24 29.6716 24 30.5C24 31.3284 24.6716 32 25.5 32Z"
        fill="#E49500" />
</svg>