<svg width="16" height="16" viewBox="0 0 16 16" fill="none" xmlns="http://www.w3.org/2000/svg">
    <g clip-path="url(#clip0_16445_5766)">
        <path
            d="M7.99998 0C3.58172 0 0 3.58172 0 7.99998C0 12.4183 3.58172 16 7.99998 16C12.4183 16 16 12.4183 16 7.99998C15.9953 3.58369 12.4163 0.00472098 7.99998 0ZM11.3691 8.25488C11.3137 8.36598 11.2237 8.45604 11.1125 8.51142V8.51427L6.54113 10.8C6.25881 10.9411 5.91562 10.8266 5.77453 10.5443C5.73442 10.464 5.71376 10.3754 5.71426 10.2857V5.71429C5.71413 5.39869 5.96983 5.14275 6.28543 5.14259C6.37419 5.14255 6.46175 5.16318 6.54113 5.20285L11.1125 7.48858C11.395 7.62934 11.5099 7.97243 11.3691 8.25488Z"
            fill="white" />
    </g>
    <defs>
        <clipPath id="clip0_16445_5766">
            <rect width="16" height="16" fill="white" />
        </clipPath>
    </defs>
</svg>