<svg width="16" height="16" viewBox="0 0 16 16" fill="none" xmlns="http://www.w3.org/2000/svg">
<g clip-path="url(#clip0_3863_159633)">
<path d="M14 0.5H2C1.60231 0.500437 1.22103 0.658612 0.939822 0.939822C0.658612 1.22103 0.500437 1.60231 0.5 2V7C0.5 7.13261 0.552678 7.25979 0.646447 7.35355C0.740215 7.44732 0.867392 7.5 1 7.5C1.13261 7.5 1.25979 7.44732 1.35355 7.35355C1.44732 7.25979 1.5 7.13261 1.5 7V2C1.50017 1.86744 1.55291 1.74037 1.64664 1.64664C1.74037 1.55291 1.86744 1.50017 2 1.5H14C14.1326 1.50017 14.2596 1.55291 14.3534 1.64664C14.4471 1.74037 14.4998 1.86744 14.5 2V14C14.4998 14.1326 14.4471 14.2596 14.3534 14.3534C14.2596 14.4471 14.1326 14.4998 14 14.5H9C8.86739 14.5 8.74021 14.5527 8.64645 14.6464C8.55268 14.7402 8.5 14.8674 8.5 15C8.5 15.1326 8.55268 15.2598 8.64645 15.3536C8.74021 15.4473 8.86739 15.5 9 15.5H14C14.3977 15.4996 14.779 15.3414 15.0602 15.0602C15.3414 14.779 15.4996 14.3977 15.5 14V2C15.4996 1.60231 15.3414 1.22103 15.0602 0.939822C14.779 0.658612 14.3977 0.500437 14 0.5Z" fill="white"/>
<path d="M2 15.5H6C6.39769 15.4996 6.77897 15.3414 7.06018 15.0602C7.34139 14.779 7.49956 14.3977 7.5 14V10C7.49956 9.60231 7.34139 9.22103 7.06018 8.93982C6.77897 8.65861 6.39769 8.50044 6 8.5H2C1.60231 8.50044 1.22103 8.65861 0.939822 8.93982C0.658612 9.22103 0.500437 9.60231 0.5 10V14C0.500437 14.3977 0.658612 14.779 0.939822 15.0602C1.22103 15.3414 1.60231 15.4996 2 15.5ZM1.5 10C1.50017 9.86744 1.55291 9.74037 1.64664 9.64664C1.74037 9.55291 1.86744 9.50017 2 9.5H6C6.13256 9.50017 6.25963 9.55291 6.35336 9.64664C6.44709 9.74037 6.49983 9.86744 6.5 10V14C6.49983 14.1326 6.44709 14.2596 6.35336 14.3534C6.25963 14.4471 6.13256 14.4998 6 14.5H2C1.86744 14.4998 1.74037 14.4471 1.64664 14.3534C1.55291 14.2596 1.50017 14.1326 1.5 14V10Z" fill="white"/>
<path d="M8.14639 7.8535C8.24182 7.94404 8.36835 7.99451 8.49989 7.99451C8.63144 7.99451 8.75797 7.94404 8.85339 7.8535L11.9999 4.70705V6C11.9999 6.13261 12.0526 6.25979 12.1463 6.35355C12.2401 6.44732 12.3673 6.5 12.4999 6.5C12.6325 6.5 12.7597 6.44732 12.8534 6.35355C12.9472 6.25979 12.9999 6.13261 12.9999 6V3.5C12.9978 3.36803 12.9445 3.24205 12.8512 3.14873C12.7578 3.0554 12.6319 3.00206 12.4999 3H9.99989C9.86728 3 9.74011 3.05268 9.64634 3.14645C9.55257 3.24021 9.49989 3.36739 9.49989 3.5C9.49989 3.63261 9.55257 3.75979 9.64634 3.85355C9.74011 3.94732 9.86728 4 9.99989 4H11.2928L8.14639 7.1465C8.05266 7.24026 8 7.36742 8 7.5C8 7.63258 8.05266 7.75974 8.14639 7.8535Z" fill="white"/>
</g>
<defs>
<clipPath id="clip0_3863_159633">
<rect width="16" height="16" fill="white"/>
</clipPath>
</defs>
</svg>
