<svg xmlns="http://www.w3.org/2000/svg" width="20" height="20" viewBox="0 0 20 20" fill="none">
  <path d="M10 1.66406C7.81531 1.66434 5.719 2.52682 4.16667 4.06406V2.4974C4.16667 2.27638 4.07887 2.06442 3.92259 1.90814C3.76631 1.75186 3.55435 1.66406 3.33333 1.66406C3.11232 1.66406 2.90036 1.75186 2.74408 1.90814C2.5878 2.06442 2.5 2.27638 2.5 2.4974V6.66406C2.5 6.88508 2.5878 7.09704 2.74408 7.25332C2.90036 7.4096 3.11232 7.4974 3.33333 7.4974H7.5C7.72101 7.4974 7.93297 7.4096 8.08926 7.25332C8.24554 7.09704 8.33333 6.88508 8.33333 6.66406C8.33333 6.44305 8.24554 6.23109 8.08926 6.07481C7.93297 5.91853 7.72101 5.83073 7.5 5.83073H4.81317C5.66844 4.76979 6.82875 3.99693 8.13734 3.61658C9.44594 3.23623 10.8397 3.26671 12.1305 3.70391C13.4212 4.14111 14.5466 4.96395 15.3547 6.06127C16.1627 7.15859 16.6145 8.47751 16.6489 9.83982C16.6834 11.2021 16.2989 12.5422 15.5473 13.679C14.7957 14.8157 13.7133 15.6944 12.4463 16.1963C11.1794 16.6981 9.78889 16.799 8.46275 16.4853C7.1366 16.1716 5.93871 15.4583 5.03092 14.442C4.95825 14.3593 4.86992 14.2918 4.77103 14.2434C4.67213 14.1951 4.56464 14.1668 4.45475 14.1602C4.34486 14.1536 4.23476 14.1689 4.1308 14.2051C4.02684 14.2413 3.93109 14.2978 3.84907 14.3712C3.76705 14.4446 3.7004 14.5336 3.65296 14.6329C3.60551 14.7323 3.57822 14.84 3.57266 14.9499C3.5671 15.0599 3.58337 15.1699 3.62055 15.2735C3.65772 15.3771 3.71506 15.4723 3.78925 15.5536C4.71604 16.5896 5.88724 17.3773 7.19622 17.8449C8.5052 18.3126 9.91037 18.4454 11.2838 18.2312C12.6572 18.0171 13.9552 17.4628 15.0597 16.6188C16.1642 15.7748 17.04 14.668 17.6074 13.3991C18.1748 12.1301 18.4157 10.7394 18.3084 9.35358C18.201 7.96772 17.7486 6.63074 16.9925 5.46437C16.2364 4.298 15.2005 3.33929 13.9792 2.67554C12.7579 2.01179 11.39 1.66407 10 1.66406Z" fill="currentColor"/>
</svg>