<svg width="16" height="16" viewBox="0 0 16 16" fill="none" xmlns="http://www.w3.org/2000/svg">
<path d="M10.2328 6.66541C8.1744 6.23389 6.56549 4.62499 6.13404 2.56652C6.08104 2.31383 5.85816 2.13281 5.5999 2.13281C5.34164 2.13281 5.11877 2.31383 5.0658 2.56655C4.63432 4.62499 3.02541 6.23386 0.966978 6.66531C0.714255 6.71828 0.533203 6.94118 0.533203 7.19941C0.533203 7.45764 0.714222 7.68055 0.966978 7.73351C3.02538 8.16503 4.63422 9.7739 5.0657 11.8324C5.11867 12.0851 5.34154 12.2661 5.5998 12.2661C5.85803 12.2661 6.08094 12.0851 6.1339 11.8324C6.56542 9.77394 8.17436 8.16507 10.2328 7.73365C10.4855 7.68068 10.6666 7.45781 10.6666 7.19955C10.6665 6.94128 10.4855 6.71838 10.2328 6.66541ZM5.59984 10.0705C4.98083 8.82795 3.97136 7.81845 2.72888 7.19945C3.9714 6.58044 4.9809 5.57097 5.5999 4.32845C6.21891 5.57101 7.22837 6.58047 8.47086 7.19951C7.22834 7.81852 6.21884 8.82795 5.59984 10.0705Z" fill="white"/>
<path d="M15.2234 10.1378C13.9882 9.87884 13.0228 8.91341 12.7639 7.67825C12.714 7.44012 12.504 7.26953 12.2607 7.26953C12.0173 7.26953 11.8073 7.44006 11.7574 7.67822C11.4985 8.91341 10.5331 9.87881 9.29788 10.1377C9.05975 10.1876 8.88916 10.3977 8.88916 10.641C8.88916 10.8843 9.05972 11.0943 9.29788 11.1442C10.533 11.4032 11.4984 12.3686 11.7573 13.6037C11.8073 13.8419 12.0173 14.0125 12.2606 14.0125C12.5039 14.0125 12.7139 13.8419 12.7638 13.6037C13.0228 12.3686 13.9882 11.4032 15.2234 11.1443C15.4615 11.0943 15.6321 10.8843 15.6321 10.641C15.6321 10.3977 15.4615 10.1877 15.2234 10.1378ZM12.2607 12.1025C11.9027 11.5019 11.3998 10.999 10.7992 10.641C11.3998 10.283 11.9027 9.78016 12.2607 9.1795C12.6187 9.78016 13.1215 10.2831 13.7222 10.641C13.1216 10.999 12.6186 11.5019 12.2607 12.1025Z" fill="white"/>
</svg>
