<svg width="81" height="80" viewBox="0 0 81 80" fill="none" xmlns="http://www.w3.org/2000/svg">
<g id="slack (1) 2" clip-path="url(#clip0_17412_92369)">
<g id="Group">
<path id="Vector" d="M50.6278 36.9353C55.1993 36.9353 58.9185 33.2159 58.9185 28.6442V8.29078C58.9185 3.71922 55.1993 0 50.6278 0C46.056 0 42.3367 3.71922 42.3367 8.29078V28.6444C42.3368 33.2159 46.0562 36.9353 50.6278 36.9353Z" fill="#E8E8E8"/>
<path id="Vector_2" d="M66.2621 36.9354H72.2094C76.781 36.9354 80.5002 33.216 80.5002 28.6443C80.5002 24.0727 76.781 20.3535 72.2094 20.3535C67.6377 20.3535 63.9183 24.0727 63.9183 28.6443V34.5916C63.9183 35.886 64.9677 36.9354 66.2621 36.9354Z" fill="#E8E8E8"/>
<path id="Vector_3" d="M8.79078 38.1637H29.1442C33.7158 38.1637 37.435 34.4444 37.435 29.8727C37.435 25.3013 33.7158 21.582 29.1442 21.582H8.79078C4.21922 21.5822 0.5 25.3014 0.5 29.8728C0.5 34.4444 4.21922 38.1637 8.79078 38.1637Z" fill="#E8E8E8"/>
<path id="Vector_4" d="M29.1441 16.5816H35.0911C36.3855 16.5816 37.4348 15.5322 37.4348 14.2378V8.29078C37.4348 3.71922 33.7156 0 29.1441 0C24.5725 0 20.8533 3.71922 20.8533 8.29078C20.8533 12.8623 24.5725 16.5816 29.1441 16.5816Z" fill="#E8E8E8"/>
<path id="Vector_5" d="M30.3722 43.0645C25.8006 43.0645 22.0814 46.7838 22.0814 51.3555V71.7088C22.0814 76.2805 25.8006 79.9999 30.3722 79.9999C34.9441 79.9999 38.6635 76.2805 38.6635 71.7088V51.3555C38.6635 46.7838 34.9439 43.0645 30.3722 43.0645Z" fill="#E8E8E8"/>
<path id="Vector_6" d="M14.738 43.0645H8.79078C4.21922 43.0645 0.5 46.7838 0.5 51.3555C0.5 55.9271 4.21922 59.6463 8.79078 59.6463C13.3625 59.6463 17.0819 55.9271 17.0819 51.3555V45.4082C17.0817 44.1138 16.0323 43.0645 14.738 43.0645Z" fill="#E8E8E8"/>
<path id="Vector_7" d="M72.2092 41.8359H51.856C47.2844 41.8359 43.5652 45.5553 43.5652 50.127C43.5652 54.6984 47.2844 58.4177 51.856 58.4177H72.2094C76.781 58.4177 80.5002 54.6984 80.5002 50.127C80.5 45.5553 76.7808 41.8359 72.2092 41.8359Z" fill="#E8E8E8"/>
<path id="Vector_8" d="M51.856 63.418H45.9089C44.6146 63.418 43.5652 64.4673 43.5652 65.7617V71.7089C43.5652 76.2806 47.2844 80 51.856 80C56.4277 80 60.1471 76.2806 60.1471 71.7089C60.1469 67.1373 56.4277 63.418 51.856 63.418Z" fill="#E8E8E8"/>
</g>
</g>
<defs>
<clipPath id="clip0_17412_92369">
<rect width="80" height="80" fill="white" transform="translate(0.5)"/>
</clipPath>
</defs>
</svg>
