<svg width="24" height="24" viewBox="0 0 24 24" fill="none" xmlns="http://www.w3.org/2000/svg">
<path d="M16.1168 8.2875C16.2855 8.775 16.3699 9.28594 16.3699 9.80625C16.3699 10.0125 16.2059 10.1766 15.9996 10.1766C15.7934 10.1766 15.6293 10.0125 15.6293 9.80625C15.6293 9.37031 15.559 8.93906 15.4184 8.53125C15.0293 7.40156 14.1574 6.52031 13.0277 6.11719C12.8355 6.04688 12.7324 5.83594 12.8027 5.64375C12.873 5.45156 13.084 5.34844 13.2762 5.41875C14.6168 5.89687 15.6527 6.94219 16.1168 8.2875ZM17.7996 10.1531C17.7105 11.8031 16.9699 13.3172 15.7137 14.4094C14.7434 15.2531 14.1715 16.4625 14.1105 17.7609C15.3199 17.6906 15.9715 19.2141 15.0949 20.0297C15.948 20.8172 15.3574 22.3125 14.1809 22.2984H13.7871C13.8246 23.1938 13.1074 23.9531 12.2074 23.9531H9.40898C8.50898 23.9578 7.7918 23.1938 7.8293 22.2984H7.43555C6.25898 22.3125 5.66836 20.8172 6.52148 20.0297C5.77148 19.3594 6.13242 18.0234 7.10742 17.8078C6.91523 17.6016 6.76055 17.3578 6.65742 17.0859C4.89023 17.2172 3.54961 15.3984 4.13086 13.7531C1.9043 12.7453 1.9043 9.47812 4.13086 8.47031C3.54961 6.82969 4.89023 5.01094 6.65742 5.1375C7.50117 2.90156 10.8059 3.47344 10.834 5.87813V16.3453C10.834 16.8891 10.6324 17.3813 10.2996 17.7609H11.3402V4.56563C11.3309 4.09219 11.7715 3.67969 12.2449 3.73125C15.4559 3.96094 18.034 6.9375 17.7996 10.1531ZM7.96055 15.1781C8.03555 15.3703 7.93711 15.5813 7.74492 15.6562C7.64648 15.6938 7.56211 15.7453 7.49648 15.8156C7.21523 16.0969 7.29023 16.5609 7.29961 16.6172C7.65117 18.2859 10.0699 18.0562 10.1027 16.35V5.88281C10.0934 4.36875 8.02617 3.93281 7.40742 5.30156C7.9043 5.4 9.37617 6.65625 8.32148 6.89062C7.96523 6.88125 7.89492 6.4125 7.60898 6.25312C6.22148 5.15156 4.24336 6.66094 4.84805 8.26406C5.54648 8.16094 6.27305 8.44687 6.72305 8.98594C6.8543 9.14062 6.83555 9.375 6.67617 9.50625C6.52148 9.6375 6.28711 9.61875 6.15586 9.45938C6.05742 9.34219 5.8418 9.13125 5.49961 9.03281C5.1668 8.93437 4.87617 8.99531 4.73555 9.0375C2.82305 9.6 2.66836 12.3188 4.48711 13.1016C4.73555 12.7031 6.19805 11.5875 6.45586 12.3656C6.50742 12.5625 6.38555 12.7641 6.18867 12.8156C4.08398 13.3359 4.37461 16.2937 6.54492 16.35C6.5543 16.0406 6.63867 15.6234 6.97148 15.2906C7.21055 15.0422 7.76367 14.7187 7.96055 15.1781ZM13.0512 22.2984H8.57461C8.53711 22.7859 8.92148 23.2125 9.41367 23.2125H12.2121C12.7043 23.2172 13.084 22.7859 13.0512 22.2984ZM14.7621 20.9813C14.7621 20.6625 14.5043 20.4 14.1809 20.4H7.44492C7.12617 20.4 6.86367 20.6578 6.86367 20.9813C6.86367 21.3 7.12148 21.5625 7.44492 21.5625H14.1855C14.4996 21.5578 14.7621 21.3 14.7621 20.9813ZM7.44492 18.5016C6.68086 18.5203 6.68086 19.6406 7.44492 19.6594H14.1855C14.5043 19.6594 14.7668 19.4016 14.7668 19.0781C14.7668 18.7594 14.509 18.4969 14.1855 18.4969H7.44492V18.5016ZM12.1793 4.46719C12.1137 4.47188 12.0855 4.49531 12.0762 4.56563V17.7609H13.3605C13.4262 16.2469 14.0965 14.8313 15.2262 13.8516C18.7934 10.8 16.834 4.84688 12.1793 4.46719ZM16.9418 5.15156L18.6527 3.44063C18.9902 3.09375 18.4793 2.57812 18.1277 2.91563L16.4168 4.62656C16.0793 4.97812 16.5949 5.48906 16.9418 5.15156ZM21.1605 9.49219H18.7418C18.2543 9.50156 18.2543 10.2234 18.7418 10.2328H21.1605C21.648 10.2234 21.648 9.50156 21.1605 9.49219ZM16.9418 14.5687C16.5949 14.2312 16.0793 14.7422 16.4168 15.0938L18.1277 16.8047C18.4793 17.1422 18.9902 16.6312 18.6527 16.2797L16.9418 14.5687ZM12.0809 2.83125V0.4125C12.0715 -0.075 11.3496 -0.075 11.3402 0.4125V2.83125C11.3496 3.31875 12.0715 3.31875 12.0809 2.83125Z" fill="currentColor"/>
</svg>
