<svg width="24" height="24" viewBox="0 0 24 24" fill="none" xmlns="http://www.w3.org/2000/svg">
<rect width="24" height="24" rx="12" fill="#374C6A"/>
<path fill-rule="evenodd" clip-rule="evenodd" d="M11.9258 12.4153H11.9472C13.8992 12.4153 15.4865 10.8279 15.4865 8.87594C15.4865 6.92394 13.8992 5.33594 11.9472 5.33594C9.99452 5.33594 8.40652 6.92394 8.40652 8.87394C8.39985 10.8206 9.97785 12.4093 11.9258 12.4153ZM9.35852 8.87594C9.35852 7.4486 10.5198 6.28794 11.9472 6.28794C13.3738 6.28794 14.5345 7.4486 14.5345 8.87594C14.5345 10.3026 13.3738 11.4639 11.9472 11.4639H11.9278C10.5065 11.4586 9.35385 10.2986 9.35852 8.87594Z" fill="#E8E8E8"/>
<path fill-rule="evenodd" clip-rule="evenodd" d="M6.6665 16.1182C6.6665 18.5828 10.6412 18.5828 11.9472 18.5828C14.2132 18.5828 17.2265 18.3288 17.2265 16.1315C17.2265 13.6668 13.2532 13.6668 11.9472 13.6668C9.6805 13.6668 6.6665 13.9208 6.6665 16.1182ZM7.6665 16.1182C7.6665 15.1548 9.1065 14.6668 11.9472 14.6668C14.7872 14.6668 16.2265 15.1595 16.2265 16.1315C16.2265 17.0948 14.7872 17.5828 11.9472 17.5828C9.1065 17.5828 7.6665 17.0902 7.6665 16.1182Z" fill="#E8E8E8"/>
</svg>
