<svg width="80" height="80" viewBox="0 0 80 80" fill="none" xmlns="http://www.w3.org/2000/svg">
<g id="web 2">
<path id="Vector" d="M53.465 25C50.8275 12.75 45.2025 5 40 5C34.7975 5 29.1725 12.75 26.535 25H53.465Z" fill="#E8E8E8"/>
<path id="Vector_2" d="M25 40C24.9994 43.3445 25.2224 46.6853 25.6675 50H54.3325C54.7776 46.6853 55.0006 43.3445 55 40C55.0006 36.6555 54.7776 33.3147 54.3325 30H25.6675C25.2224 33.3147 24.9994 36.6555 25 40Z" fill="#E8E8E8"/>
<path id="Vector_3" d="M26.535 55C29.1725 67.25 34.7975 75 40 75C45.2025 75 50.8275 67.25 53.465 55H26.535Z" fill="#E8E8E8"/>
<path id="Vector_4" d="M58.585 24.9996H74.335C71.9685 19.614 68.3728 14.8579 63.8364 11.1129C59.2999 7.36789 53.9489 4.73813 48.2125 3.43457C52.955 7.60707 56.675 15.3221 58.585 24.9996Z" fill="#E8E8E8"/>
<path id="Vector_5" d="M76.1325 30H59.3825C59.7949 33.3174 60.0012 36.6571 60 40C60.0003 43.3429 59.7933 46.6827 59.38 50H76.13C77.9532 43.458 77.9557 36.542 76.1325 30Z" fill="#E8E8E8"/>
<path id="Vector_6" d="M48.2125 76.565C53.9498 75.2621 59.3018 72.6327 63.8392 68.8876C68.3766 65.1426 71.973 60.3862 74.34 55H58.59C56.675 64.6775 52.955 72.3925 48.2125 76.565Z" fill="#E8E8E8"/>
<path id="Vector_7" d="M21.415 55H5.66504C8.03202 60.3862 11.6285 65.1426 16.1659 68.8876C20.7033 72.6327 26.0553 75.2621 31.7925 76.565C27.045 72.3925 23.325 64.6775 21.415 55Z" fill="#E8E8E8"/>
<path id="Vector_8" d="M31.7875 3.43457C26.0503 4.73743 20.6983 7.36686 16.1609 11.1119C11.6235 14.857 8.02701 19.6134 5.66003 24.9996H21.41C23.325 15.3221 27.045 7.60707 31.7875 3.43457Z" fill="#E8E8E8"/>
<path id="Vector_9" d="M19.9999 40C19.9996 36.6571 20.2067 33.3173 20.6199 30H3.86994C2.04677 36.542 2.04677 43.458 3.86994 50H20.6199C20.2067 46.6827 19.9996 43.3429 19.9999 40Z" fill="#E8E8E8"/>
</g>
</svg>
