<svg width="32" height="32" viewBox="0 0 32 32" fill="none" xmlns="http://www.w3.org/2000/svg">
<path d="M30.5592 4.44905C30.2903 4.26515 29.9884 4.13496 29.6702 4.06562C29.3437 3.99379 29.0071 3.98081 28.6761 4.02727C28.3292 4.0757 27.993 4.18279 27.682 4.34396L26.2306 5.14491L24.7764 5.94443L23.3208 6.74396L21.8666 7.55059C21.5515 7.73493 21.2141 7.87811 20.8626 7.97662C20.5224 8.07529 20.1702 8.12689 19.816 8.13C19.4624 8.13432 19.1099 8.09085 18.7679 8.00076C18.4151 7.90733 18.0761 7.76791 17.7596 7.58609L16.3495 6.81923L14.9393 6.05236L13.5291 5.28834L12.1175 4.52147C11.5946 4.18767 10.9691 4.05309 10.3551 4.1423C9.78856 4.2304 9.26318 4.49185 8.85124 4.89071C8.43593 5.28438 8.1535 5.7976 8.04319 6.35911C7.92984 6.96793 8.04136 7.59721 8.35704 8.13L8.85124 9.03603L9.94047 11.0242L11.0297 13.0124L11.5253 13.9184C11.7095 14.2301 11.8527 14.5642 11.9514 14.9125C12.0449 15.253 12.0927 15.6045 12.0934 15.9577C12.0927 16.3118 12.045 16.6642 11.9514 17.0057C11.8636 17.3652 11.7285 17.7115 11.5495 18.0353L10.7755 19.4796L10.0001 20.9196L9.22473 22.3582L8.44934 23.7982C8.31907 24.0342 8.21888 24.2856 8.15112 24.5466C8.0872 24.7931 8.05851 25.0475 8.06591 25.3021C8.07543 25.5522 8.12333 25.7993 8.20792 26.0348C8.29328 26.2817 8.41692 26.5137 8.57431 26.7222C8.76602 26.9856 9.00425 27.2118 9.27727 27.3896C9.54862 27.5699 9.84952 27.7011 10.1663 27.7773C10.4913 27.857 10.8278 27.8787 11.1604 27.8412C11.5073 27.8014 11.8441 27.6989 12.1544 27.5388L13.664 26.7108L15.1722 25.8843L16.6804 25.0564L18.1885 24.2285C17.7349 23.9027 17.3157 23.5316 16.9374 23.1208C16.5582 22.7079 16.2102 22.2674 15.8964 21.8029C15.5798 21.3371 15.2901 20.8514 15.0217 20.3572C14.7817 19.917 14.5587 19.4711 14.3443 19.028C14.7234 19.738 15.54 20.4921 16.6008 21.2491C17.8912 22.137 19.2358 22.9433 20.6269 23.6632C22.0896 24.4415 23.5906 25.1771 24.8872 25.8275C26.1838 26.4779 27.283 27.0417 27.9348 27.472C28.461 27.7835 29.0864 27.882 29.683 27.7475C30.2361 27.6099 30.7326 27.3031 31.1031 26.8699C31.491 26.4303 31.743 25.8877 31.8288 25.3077C31.9181 24.6947 31.7916 24.0697 31.4709 23.5397L30.579 21.9264L28.6264 18.3762L26.6737 14.8259L25.7918 13.2311C25.6029 12.913 25.3976 12.6049 25.1769 12.308C24.9576 12.0166 24.7205 11.7392 24.4669 11.4772C24.2148 11.2164 23.9453 10.973 23.6602 10.7487C23.3704 10.5205 23.0637 10.3145 22.7428 10.1324C23.2413 10.3596 23.7483 10.5953 24.2453 10.8495C24.7461 11.1018 25.2334 11.3801 25.7052 11.6831C26.1764 11.9851 26.6228 12.3241 27.0401 12.6971C27.4611 13.0762 27.8397 13.5 28.1691 13.961L28.9715 12.4926L29.7738 11.0242L30.579 9.55295L31.3814 8.08455C31.5152 7.86381 31.6157 7.62455 31.6796 7.37449C31.7434 7.12647 31.7721 6.87072 31.7648 6.61473C31.7552 6.35632 31.7074 6.10076 31.6228 5.85639C31.537 5.60625 31.4119 5.37136 31.2522 5.16053C31.0703 4.88004 30.8348 4.63825 30.5592 4.44905ZM11.9499 25.018C11.9707 25.3182 11.8618 25.6129 11.6508 25.8274C11.4398 26.0419 11.147 26.1557 10.8465 26.1399C10.2324 26.145 9.73042 25.6513 9.72532 25.0372C9.72022 24.4231 10.2139 23.9211 10.828 23.916C11.1281 23.8949 11.4228 24.0034 11.6373 24.2142C11.8519 24.425 11.9657 24.7177 11.9499 25.018ZM9.75017 6.88455C9.72943 6.58438 9.83835 6.28972 10.0493 6.0752C10.2603 5.86069 10.5531 5.7469 10.8536 5.76266C11.1538 5.74192 11.4484 5.85083 11.663 6.06182C11.8775 6.2728 11.9913 6.56562 11.9755 6.86609C11.9962 7.16626 11.8873 7.46092 11.6763 7.67544C11.4654 7.88995 11.1725 8.00374 10.8721 7.98798C10.5719 8.00873 10.2772 7.89981 10.0627 7.68883C9.8482 7.47784 9.73441 7.18502 9.75017 6.88455ZM30.0976 24.984C30.1022 25.4345 29.8348 25.8434 29.4202 26.0198C29.0056 26.1962 28.5255 26.1053 28.2041 25.7896C27.8827 25.4738 27.7832 24.9955 27.9522 24.5778C28.1211 24.1601 28.5252 23.8854 28.9757 23.8819C29.2758 23.8608 29.5705 23.9694 29.785 24.1801C29.9996 24.3909 30.1134 24.6836 30.0976 24.984ZM22.571 15.5302C22.243 14.9934 21.7019 14.7833 21.0529 14.7904C20.1664 14.82 19.3825 15.3739 19.0584 16.1995C18.7343 17.0252 18.9322 17.9644 19.5618 18.5892C18.8583 18.4996 18.22 18.1319 17.7895 17.5683C17.3591 17.0047 17.1724 16.2921 17.2711 15.5899C17.4799 14.1825 18.8787 13.089 20.2846 13.2864C21.4747 13.4881 22.4531 14.3416 22.5682 15.5302H22.571ZM30.1772 6.79082C30.1618 7.39054 29.674 7.87024 29.0741 7.8756C28.4742 7.88096 27.9779 7.41005 27.9518 6.81071C27.9672 6.21099 28.455 5.73129 29.0549 5.72593C29.6548 5.72057 30.1511 6.19148 30.1772 6.79082Z" fill="#FF694B"/>
</svg>
